SplineFontDB: 3.0
FontName: Mekorot-Rashi-Bold
FullName: Rashi font bold 
FamilyName: Mekorot-Rashi
Weight: Bold
Copyright: Based on the Rashi font from the "Makor" (http://www.ctan.org/tex-archive/language/hebrew/makor/) set.\nLicensed under lppl (http://www.latex-project.org/lppl/lppl-1.3c.txt).
Version: 000.003
ItalicAngle: 0
UnderlinePosition: -100
UnderlineWidth: 50
Ascent: 800
Descent: 200
LayerCount: 2
Layer: 0 0 "Back" 
Layer: 1 0 "Fore" 
XUID: [1021 686 1246326004 6316987]
UniqueID: 4247672
FSType: 8
OS2Version: 0
OS2_WeightWidthSlopeOnly: 0
OS2_UseTypoMetrics: 0
CreationTime: 1227525443
ModificationTime: 1243450484
OS2TypoAscent: 0
OS2TypoAOffset: 1
OS2TypoDescent: 0
OS2TypoDOffset: 1
OS2TypoLinegap: 0
OS2WinAscent: 0
OS2WinAOffset: 1
OS2WinDescent: 0
OS2WinDOffset: 1
HheadAscent: 0
HheadAOffset: 1
HheadDescent: 0
HheadDOffset: 1
OS2Vendor: 'PfEd'
DEI: 0
Encoding: iso8859-8
UnicodeInterp: none
NameList: Adobe Glyph List
DisplaySize: -24
AntiAlias: 1
FitToEm: 1
WinInfo: 0 42 16
BeginPrivate: 6
BlueValues 16 [-20 0 929 942 ]
StdHW 5 [168]
StemSnapH 34 [129 141 168 209 226 275 280 295 ]
StdVW 5 [197]
StemSnapV 51 [139 146 158 197 204 209 213 261 290 322 366 1004 ]
ForceBold 4 true
EndPrivate
BeginChars: 266 75

StartChar: exclam
Encoding: 33 33 0
Width: 308
VWidth: 699
Flags: HMW
VStem: 47.6 203
LayerCount: 2
Fore
SplineSet
245.7 708.4 m 0
 253.4 693 254.8 676.9 254.8 661.5 c 0
 254.8 655.9 254.1 650.3 254.1 644.7 c 0
 252 619.5 246.4 595.7 243.6 574 c 0
 232.4 485.1 218.4 396.9 204.4 308.7 c 0
 198.8 277.2 196.7 242.9 188.3 209.3 c 0
 185.5 196 177.1 172.9 152.6 170.1 c 0
 151.9 170.1 149.8 170.1 148.4 170.1 c 2
 148.4 170.1 148.4 170.1 147.7 170.1 c 0
 142.8 170.1 141.4 170.1 135.8 172.2 c 0
 125.3 175.7 115.5 184.8 113.4 198.1 c 0
 112.7 205.1 112.7 211.4 112.7 217.7 c 0
 112.7 220.5 112.7 224 112.7 226.8 c 0
 112.7 230.3 112.7 233.1 112 236.6 c 2
 110.6 264.6 107.1 293.3 103.6 322 c 0
 95.2002 396.2 80.5 471.1 71.4004 546.7 c 0
 68.5996 568.4 66.5 590.1 64.4004 611.8 c 0
 63.7002 620.9 61.5996 627.2 61.5996 637 c 0
 61.5996 639.1 61.5996 641.2 62.2998 643.3 c 2
 65.0996 672 85.4004 707 106.4 723.1 c 0
 125.3 737.1 151.9 742.7 163.8 744.8 c 0
 168 745.5 172.2 745.5 177.1 745.5 c 0
 205.8 745.5 233.8 731.5 245.7 708.4 c 0
176.4 153.3 m 0
 225.4 141.4 251.3 96.5996 251.3 53.2002 c 0
 251.3 18.2002 233.8 -18.9004 198.1 -37.0996 c 0
 188.3 -42 177.8 -46.2002 166.6 -47.5996 c 0
 160.3 -48.2998 154.7 -49 149.1 -49 c 0
 139.3 -49 130.2 -47.5996 120.4 -44.7998 c 0
 75.5996 -31.5 47.5996 11.2002 47.5996 55.2998 c 0
 47.5996 65.7998 49 75.5996 52.5 86.0996 c 0
 60.2002 110.6 79.0996 129.5 95.2002 140.7 c 0
 110.6 150.5 126 154.7 140 156.1 c 0
 143.5 156.8 147 156.8 149.8 156.8 c 0
 159.6 156.8 168 155.4 176.4 153.3 c 0
EndSplineSet
EndChar

StartChar: quotedbl
Encoding: 34 34 1
Width: 541
VWidth: 699
Flags: HW
LayerCount: 2
Fore
SplineSet
329.7 655.2 m 2
 332.5 663.6 336 682.5 346.5 695.8 c 0
 362.6 716.1 386.4 720.3 407.4 720.3 c 0
 424.2 720.3 440.3 717.5 452.9 716.8 c 0
 466.2 716.1 483.7 718.9 501.2 705.6 c 2
 508.9 700 l 1
 506.8 690.9 l 2
 501.2 669.9 502.6 658 494.9 638.4 c 0
 481.6 605.5 460.6 578.2 441.7 552.3 c 2
 371 448.7 l 1
 331.1 392.7 l 2
 326.9 385.7 322.7 377.3 317.1 371 c 1
 316.4 371 316.4 370.3 315 369.6 c 1
 314.3 368.9 314.3 368.9 312.9 367.5 c 1
 312.2 367.5 311.5 366.8 310.1 366.1 c 0
 302.4 361.9 294 361.9 289.1 361.9 c 0
 279.3 361.9 269.5 363.3 264.6 363.3 c 2
 248.5 363.3 l 1
 250.6 379.4 l 2
 254.8 406 265.3 431.9 272.3 455 c 2
 329.7 655.2 l 2
106.4 655.2 m 2
 108.5 662.9 112 681.1 121.8 693.7 c 0
 135.8 712.6 155.4 719.6 183.4 719.6 c 0
 200.9 719.6 217.7 717.5 231 716.8 c 2
 231.7 716.8 l 2
 235.2 716.8 238.7 716.8 242.9 716.8 c 2
 243.6 716.8 l 2
 249.2 716.8 255.5 716.8 262.5 714.7 c 0
 269.5 713.3 277.2 709.1 281.4 700.7 c 0
 282.8 698.6 283.5 695.1 284.2 693.7 c 1
 284.2 693.7 284.2 691.6 284.2 690.9 c 2
 284.2 688.8 l 2
 284.2 679.7 282.1 672.7 280.7 667.1 c 0
 275.1 639.1 261.1 614.6 247.1 592.9 c 2
 135.8 431.2 l 1
 105.7 387.8 l 2
 102.2 382.2 99.4004 377.3 95.2002 372.4 c 1
 95.2002 371.7 94.5 371 93.0996 370.3 c 1
 93.0996 369.6 92.4004 368.9 91 368.2 c 2
 91 368.2 90.2998 366.8 88.2002 366.1 c 0
 86.7998 365.4 82.5996 364 81.2002 363.3 c 1
 79.0996 363.3 77.7002 363.3 75.5996 363.3 c 0
 72.7998 363.3 70 363.3 69.2998 363.3 c 2
 24.5 363.3 l 1
 28 380.1 l 2
 44.7998 452.2 68.5996 522.2 88.2002 592.2 c 2
 106.4 655.2 l 2
EndSplineSet
EndChar

StartChar: numbersign
Encoding: 35 35 2
Width: 580
VWidth: 699
Flags: HMW
HStem: 231 98.7<-14 100.8 -14 123.9 -14 326.2 -14 200.9 439.6 555.8> 448 98.7<14 137.9 14 149.8 468.3 583.8>
LayerCount: 2
Fore
SplineSet
240.1 445.9 m 1
 226.8 332.5 l 1
 343 330.4 l 1
 354.2 442.4 l 1
 240.1 445.9 l 1
185.5 772.1 m 1
 286.3 772.1 l 1
 284.9 757.4 l 2
 279.3 682.5 258.3 616.7 250.6 546.7 c 1
 366.1 546.7 l 1
 373.8 620.2 395.5 690.2 401.1 759.5 c 2
 402.5 772.1 l 1
 503.3 772.1 l 1
 483.7 648.2 l 1
 468.3 546.7 l 1
 583.8 546.7 l 1
 583.8 448 l 1
 455.7 448 l 1
 439.6 329.7 l 1
 555.8 329.7 l 1
 555.8 231 l 1
 427 231 l 1
 416.5 158.2 l 1
 391.3 -14 l 1
 291.9 -14 l 1
 301.7 58.0996 l 1
 319.9 184.8 l 1
 326.2 231 l 1
 200.9 231 l 1
 193.9 180.6 l 1
 170.1 14 l 1
 164.5 -12.5996 l 1
 134.4 -14 l 1
 67.2002 -14 l 1
 67.9004 0 l 2
 67.9004 35 77 70 81.9004 101.5 c 0
 88.9004 144.2 93.7998 187.6 100.8 231 c 1
 -14 231 l 1
 -14 329.7 l 1
 123.9 329.7 l 1
 137.9 448 l 1
 14 448 l 1
 14 546.7 l 1
 149.8 546.7 l 1
 156.8 620.2 179.2 690.2 184.1 759.5 c 2
 185.5 772.1 l 1
EndSplineSet
EndChar

StartChar: dollar
Encoding: 36 36 3
Width: 557
VWidth: 699
Flags: HW
HStem: -2.8 24.5 -2.8 32.2<288.4 288.4 288.4 295.4 288.4 295.4> 7 155.4<68.6 170.1> 537.6 3.5
VStem: 53.2 61.6<432.25 489.65> 129.5 7<541.1 541.45 541.45 541.8 540.4 542.5 540.4 541.8 540.4 541.8 540.4 541.8 540.4 541.8 540.4 541.8 540.4 541.8 540.4 541.8 540.4 541.8 540.4 542.5 540.4 541.8 540.4 541.8 540.4 541.8 540.4 541.8 540.4 541.8 540.4 541.8 540.4 541.8 540.4 543.2 540.4 542.5 540.4 542.5 540.4 542.5 540.4 542.5 540.4 542.5 540.4 542.5 540.4 542.5 540.4 542.5 540.4 542.5 540.4 542.5 540.4 542.5 540.4 542.5 540.4 542.5 540.4 542.5 540.4 542.5 540.4 542.5 540.4 542.5 540.4 543.9 540.4 543.2 540.4 543.2 540.4 543.2 540.4 543.2 540.4 543.2 540.4 543.2 540.4 543.2 540.4 544.6 540.4 545.3 540.4 545.3> 185.5 9.1<615.3 651> 288.4 165.2 295.4 7.7<-93.8 -37.8 -37.8 -36.05 -93.8 -2.8 -93.8 -37.8>
LayerCount: 2
Fore
SplineSet
148.4 559.3 m 1x1e
 148.4 560 149.1 561.4 149.1 562.8 c 1
 149.8 564.9 l 1
 158.9 568.4 l 1
 156.8 561.4 l 1
 156.1 560.7 155.4 558.6 155.4 557.2 c 1
 148.4 559.3 l 1x1e
322 205.1 m 1
 325.5 203.7 l 2
 326.9 203 328.3 201.6 327.6 199.5 c 1
 327.6 198.1 326.2 196.7 324.1 196.7 c 2
 324.1 196.7 324.1 196.7 323.4 196.7 c 1
 322 196 l 1
 322 196 l 1
 322 196 l 1
 321.3 196 319.9 196 318.5 196 c 2
 310.1 196 l 1
 317.1 203 l 1
 317.1 203.7 l 1
 317.8 203.7 318.5 204.4 319.2 205.1 c 2
 332.5 218.4 l 1
 332.5 188.3 l 1
 322 196 l 1
 322 196 l 1
 322 196 l 1
 322 196 l 1
 322 196 l 1
 318.5 198.8 l 1
 318.5 198.8 l 1
 318.5 198.8 l 1
 318.5 198.8 l 1
 317.1 200.2 316.4 201.6 317.1 203 c 1
 317.8 203.7 l 1
 317.8 203.7 l 1
 317.8 204.4 318.5 204.4 318.5 204.4 c 1
 319.2 205.1 l 1
 319.9 205.1 320.6 205.1 321.3 205.1 c 1
 321.3 205.1 l 1
 321.3 205.1 321.3 205.1 322 205.1 c 1
184.8 573.3 m 2
 184.8 428.4 l 2
 184.8 423.5 181.3 410.9 168 410.9 c 1
 168 410.9 l 1
 166.6 410.9 162.4 411.6 160.3 412.3 c 0
 148.4 417.2 133.7 433.3 133.7 447.3 c 0
 133.7 448.7 133.7 448.7 133 449.4 c 2
 130.9 453.6 123.2 459.2 119 466.9 c 0
 116.2 472.5 114.8 478.1 114.8 483 c 0
 114.8 496.3 119 506.1 119 514.5 c 0
 119 520.8 119.7 521.5 120.4 525 c 1
 121.1 526.4 121.8 527.1 121.8 527.8 c 1
 124.6 534.8 128.1 539 129.5 541.8 c 1
 129.5 541.8 l 1
 129.5 541.8 l 1
 129.5 541.8 l 1
 129.5 541.8 l 1
 129.5 541.8 l 1
 129.5 541.8 l 1
 129.5 541.8 l 1
 129.5 541.8 l 1
 129.5 541.8 129.5 541.8 129.5 542.5 c 1
 129.5 542.5 l 1
 129.5 542.5 l 1
 129.5 542.5 l 1
 129.5 542.5 l 1
 129.5 542.5 l 1
 129.5 542.5 l 1
 129.5 542.5 l 1
 129.5 542.5 l 1
 130.2 542.5 l 1
 129.5 542.5 129.5 542.5 129.5 543.2 c 1
 129.5 543.2 l 1
 129.5 543.2 l 1
 129.5 543.2 l 1
 129.5 543.2 l 1
 130.2 543.9 131.6 544.6 132.3 544.6 c 1
 132.3 544.6 130.9 543.2 130.2 543.2 c 1
 133 542.5 l 1
 133 542.5 132.3 542.5 131.6 542.5 c 1
 136.5 541.8 l 1
 136.5 541.8 136.5 541.8 136.5 541.1 c 0
 136.5 539.7 134.4 537.6 133 537.6 c 0
 130.9 537.6 129.5 539.7 129.5 541.1 c 0
 129.5 541.8 129.5 541.8 129.5 541.8 c 1
 129.5 541.8 l 1
 129.5 541.8 l 1
 129.5 541.8 l 1
 129.5 541.8 l 1
 129.5 541.8 l 1
 129.5 541.8 l 1
 129.5 541.8 l 1
 129.5 541.8 129.5 541.8 129.5 542.5 c 1
 129.5 542.5 l 1
 129.5 542.5 l 1
 129.5 542.5 l 1
 129.5 542.5 l 1
 129.5 542.5 l 1
 129.5 542.5 l 1
 129.5 542.5 l 1
 129.5 542.5 l 1
 129.5 543.2 l 1
 129.5 543.2 l 1
 129.5 543.2 l 1
 129.5 543.9 l 1
 129.5 544.6 l 1
 129.5 545.3 l 1
 130.2 546 129.5 557.9 144.2 562.8 c 1
 146.3 564.2 147.7 564.2 149.8 564.9 c 1
 150.5 570.5 153.3 576.8 157.5 583.1 c 1
 161 586.6 165.2 588.7 170.1 588.7 c 0
 172.2 588.7 l 1
 175 587.3 182.7 579.6 184.8 575.4 c 1
 184.8 573.3 l 2
288.4 29.4004 m 1x9f
 197.4 22.4004 l 1
 197.4 276.5 l 1
 292.6 241.5 l 1
 288.4 29.4004 l 1x9f
194.6 615.3 m 1
 194.6 651 l 1
 185.5 651 l 1
 185.5 605.5 l 1
 173.6 603.4 l 2
 165.9 602 156.8 597.8 142.8 591.5 c 0
 86.0996 565.6 53.2002 506.8 53.2002 448 c 0
 53.2002 416.5 62.2998 385 81.9004 358.4 c 0
 98 336.7 118.3 317.8 140.7 304.5 c 0
 149.1 299.6 157.5 295.4 165.9 291.2 c 0
 167.3 290.5 171.5 289.8 175 287.7 c 0
 175.7 287 176.4 287 177.1 286.3 c 0
 177.8 285.6 177.8 285.6 178.5 284.9 c 0
 179.9 283.5 179.9 283.5 183.4 278.6 c 1
 184.1 277.9 l 1
 184.1 277.2 l 1
 184.1 277.2 184.8 275.1 184.8 274.4 c 1
 185.5 273.7 185.5 272.3 185.5 271.6 c 1
 186.2 270.9 186.2 269.5 186.2 268.8 c 0
 186.2 267.4 186.2 264.6 186.2 263.9 c 1
 186.2 263.9 l 1
 186.2 259 185.5 252.7 185.5 250.6 c 2
 185.5 14.7002 l 1
 165.9 23.0996 l 2
 157.5 27.2998 144.2 30.7998 135.1 44.7998 c 0
 107.8 83.2998 130.9 132.3 99.4004 154 c 0
 95.2002 156.8 91 159.6 86.7998 161 c 0
 83.2998 161.7 79.7998 162.4 75.5996 162.4 c 0
 61.5996 162.4 48.2998 154.7 43.4004 144.2 c 0
 42 140.7 39.9004 135.1 39.9004 126.7 c 0
 39.9004 119 41.2998 111.3 43.4004 105.7 c 0
 63 52.5 115.5 9.7998 170.1 7 c 2x3f
 183.4 6.2998 l 1
 183.4 -93.7998 l 1
 194.6 -93.7998 l 1
 194.6 -2.7998 l 1
 295.4 -2.7998 l 1
 295.4 -93.7998 l 1
 303.1 -93.7998 l 1
 303.1 -37.7998 l 2x5e80
 303.1 -34.2998 302.4 -28 302.4 -21 c 0
 302.4 -18.9004 302.4 -17.5 302.4 -16.0996 c 0
 303.1 -8.40039 304.5 -7 306.6 -3.5 c 0
 307.3 -2.09961 309.4 0 309.4 0 c 1
 318.5 8.40039 331.1 9.7998 338.8 11.9004 c 0
 355.6 17.5 370.3 24.5 383.6 35 c 0
 434 73.5 452.9 137.9 452.9 203 c 0
 452.9 204.4 452.9 205.8 452.9 207.2 c 0
 452.2 256.2 410.2 302.4 367.5 331.1 c 0
 356.3 339.5 343.7 346.5 331.1 354.2 c 1
 329 354.9 322.7 357 317.1 360.5 c 0
 312.2 364 310.8 366.1 309.4 367.5 c 1
 308.7 368.9 308 371.7 307.3 372.4 c 1
 305.9 376.6 305.9 378.7 305.9 382.9 c 2
 305.9 383.6 l 2
 305.9 387.1 306.6 389.9 306.6 392 c 2
 306.6 595 l 1
 320.6 594.3 l 2
 326.9 594.3 333.2 593.6 338.8 591.5 c 0
 357 585.9 368.9 573.3 373.8 544.6 c 0
 378 517.3 370.3 474.6 396.2 466.9 c 0
 397.6 466.2 401.1 466.2 405.3 466.2 c 0
 407.4 466.2 409.5 466.2 412.3 466.2 c 0
 430.5 466.9 438.9 484.4 438.9 506.1 c 0
 438.9 516.6 436.1 527.8 432.6 535.5 c 0
 424.9 552.3 403.9 579.6 350 601.3 c 0
 338.8 605.5 327.6 609.7 318.5 611.1 c 2
 306.6 613.2 l 1
 306.6 651 l 1
 298.2 651 l 1
 298.2 615.3 l 1
 194.6 615.3 l 1
133 545.3 m 1
 132.3 544.6 l 1
 133 544.6 l 1
 133 544.6 l 1
 133 545.3 l 1
136.5 541.8 m 1
 136.5 541.8 l 1
 136.5 541.8 l 1
133 544.6 m 1
 134.4 544.6 135.8 543.2 136.5 541.8 c 1
 133 544.6 l 1
136.5 541.8 m 1
 136.5 541.8 l 1
 136.5 541.8 l 1
 136.5 541.8 l 1
EndSplineSet
EndChar

StartChar: percent
Encoding: 37 37 4
Width: 1064
VWidth: 699
Flags: HMW
HStem: 614.6 9.8<639.8 641.9 639.8 641.9 641.9 644.7 641.9 644 641.9 644.7 641.9 644.7 641.9 646.8 641.9 646.8 646.8 648.2 646.8 648.2 641.9 646.8 641.9 648.9 641.9 648.2>
LayerCount: 2
Fore
SplineSet
834.4 441.7 m 0
 865.9 439.6 909.3 436.1 941.5 410.2 c 0
 970.2 386.4 982.8 350.7 989.8 322 c 0
 998.2 289.1 1001.7 254.8 1001.7 220.5 c 0
 1001.7 191.8 998.9 163.8 994.7 135.8 c 0
 986.3 86.0996 965.3 -15.4004 876.4 -23.0996 c 0
 860.3 -24.5 843.5 -25.9004 826.7 -25.9004 c 0
 786.8 -25.9004 744.8 -20.2998 709.8 2.7998 c 0
 681.1 21.7002 667.8 49 659.4 74.9004 c 0
 648.2 110.6 643.3 147.7 643.3 184.8 c 0
 643.3 204.4 644.7 224.7 647.5 244.3 c 0
 652.4 278.6 661.5 312.2 673.4 345.1 c 0
 678.3 357 681.8 371 692.3 385.7 c 0
 706.3 403.9 728.7 421.4 758.1 433.3 c 0
 768.6 437.5 780.5 441.7 794.5 443.1 c 0
 798 443.1 801.5 443.8 804.3 443.8 c 0
 815.5 443.8 825.3 442.4 834.4 441.7 c 0
324.1 2.7998 m 1
 407.4 2.7998 l 1
 413.7 20.2998 422.8 37.0996 429.1 53.9004 c 0
 447.3 98 466.9 142.1 488.6 184.8 c 0
 539.7 285.6 592.9 385 649.6 483 c 0
 674.8 526.4 703.5 569.8 725.2 613.9 c 1
 665.7 613.9 l 2
 662.2 613.9 653.8 614.6 648.9 614.6 c 2
 648.2 614.6 l 1
 648.2 614.6 l 1
 646.8 614.6 l 1
 646.8 613.9 l 1
 644.7 614.6 l 1
 642.6 609.7 l 1
 623 562.8 l 2
 602 514.5 578.2 466.9 555.8 420 c 0
 529.9 366.8 502.6 315 476 263.2 c 0
 449.4 211.4 422.8 158.2 392.7 107.1 c 0
 371.7 72.0996 345.1 37.7998 324.1 2.7998 c 1
382.9 588 m 0
 391.3 578.2 395.5 564.9 398.3 559.3 c 0
 406.7 536.2 411.6 513.1 415.1 489.3 c 0
 417.9 471.8 418.6 454.3 418.6 436.8 c 0
 418.6 381.5 407.4 324.8 385 274.4 c 0
 379.4 261.8 366.1 227.5 345.8 209.3 c 0
 332.5 198.1 309.4 184.8 256.9 179.2 c 0
 247.1 177.8 236.6 177.1 225.4 177.1 c 0
 189.7 177.1 135.8 184.1 104.3 215.6 c 0
 84.7002 235.2 57.4004 276.5 57.4004 362.6 c 0
 57.4004 373.8 57.4004 383.6 58.0996 393.4 c 0
 60.2002 423.5 58.7998 456.4 64.4004 489.3 c 0
 69.2998 515.2 81.2002 540.4 91 562.1 c 0
 100.8 583.8 116.2 612.5 146.3 628.6 c 0
 169.4 640.5 193.9 641.2 214.2 643.3 c 0
 221.9 644 229.6 644.7 237.3 644.7 c 0
 287.7 644.7 350.7 626.5 382.9 588 c 0
648.2 620.9 m 1
 648.2 614.6 l 1
 647.5 614.6 647.5 614.6 646.8 614.6 c 1
 646.8 614.6 l 1
 646.1 614.6 645.4 614.6 644.7 614.6 c 1
 644.7 614.6 l 1
 644 614.6 l 1
 641.2 613.9 l 1
 641.2 614.6 l 1
 639.8 614.6 l 1
 640.5 616.7 l 1
 638.4 617.4 l 1
 641.2 622.3 l 1
 640.5 623 l 1
 641.2 623 l 1
 641.9 624.4 l 1
 642.6 623.7 l 1
 643.3 624.4 645.4 624.4 646.8 624.4 c 0
 647.5 624.4 648.2 624.4 648.2 624.4 c 1
 648.2 624.4 l 1
 648.2 624.4 l 1
 648.9 623.7 648.9 623 648.2 621.6 c 1
 648.2 620.9 l 1
EndSplineSet
EndChar

StartChar: ampersand
Encoding: 38 38 5
Width: 894
VWidth: 699
Flags: HMW
HStem: -31.5 119.7<656.95 751.1>
LayerCount: 2
Fore
SplineSet
592.2 -10.5 m 0
 562.1 6.2998 536.9 29.4004 513.8 52.5 c 0
 508.2 58.0996 502.6 64.4004 497.7 70.7002 c 1
 492.1 65.7998 486.5 61.5996 480.9 57.4004 c 0
 459.2 41.2998 434.7 27.2998 410.2 16.0996 c 0
 391.3 7.7002 372.4 0 352.1 -5.59961 c 0
 316.4 -16.7998 273.7 -24.5 231.7 -24.5 c 0
 164.5 -24.5 94.5 -4.90039 53.9004 54.5996 c 0
 44.7998 67.2002 37.7998 81.2002 32.9004 95.2002 c 0
 26.5996 114.8 23.0996 135.1 21.7002 154.7 c 0
 21.7002 163.1 21 171.5 21 179.9 c 0
 21 192.5 21.7002 205.1 24.5 218.4 c 0
 39.2002 292.6 95.9004 347.2 148.4 386.4 c 0
 172.9 403.9 198.8 420 224 435.4 c 2
 244.3 448.7 l 1
 244.3 448.7 l 1
 241.5 456.4 238.7 464.1 236.6 471.8 c 0
 226.8 500.5 218.4 529.9 212.8 560.7 c 0
 210 578.9 207.9 598.5 207.9 618.8 c 0
 207.9 637 209.3 655.9 214.9 673.4 c 0
 241.5 756 326.2 807.1 408.1 809.9 c 1
 410.2 810.6 411.6 810.6 413.7 810.6 c 0
 507.5 810.6 573.3 727.3 573.3 641.9 c 0
 573.3 623.7 570.5 606.2 564.2 588.7 c 0
 539.7 515.9 469 464.1 409.5 436.8 c 1
 483.7 315.7 l 1
 521.5 254.1 l 1
 534.1 233.1 l 1
 553 263.2 l 1
 575.4 297.5 l 1
 592.9 323.4 l 2
 611.8 352.1 630 385 630 412.3 c 0
 630 426.3 625.1 438.2 614.6 447.3 c 0
 610.4 451.5 605.5 454.3 599.2 456.4 c 0
 587.3 462 573.3 463.4 567 464.1 c 2
 554.4 466.2 l 1
 554.4 511 l 1
 826.7 511 l 1
 826.7 497 l 2
 826.7 494.9 827.4 491.4 827.4 487.2 c 2
 827.4 486.5 l 2
 827.4 481.6 827.4 479.5 825.3 475.3 c 2
 825.3 474.6 823.9 471.8 822.5 470.4 c 0
 819 466.9 819 466.2 818.3 466.2 c 1
 818.3 465.5 818.3 465.5 817.6 465.5 c 1
 816.9 464.8 816.9 464.8 815.5 464.1 c 0
 805 457.8 795.9 457.1 788.9 454.3 c 0
 768.6 446.6 751.1 439.6 739.2 427 c 0
 723.1 409.5 710.5 383.6 696.5 360.5 c 2
 620.9 238 l 1
 591.5 189 l 2
 584.5 178.5 583.1 177.1 582.4 174.3 c 1
 581.7 173.6 l 1
 581.7 173.6 l 1
 581.7 170.8 585.2 165.2 590.8 158.9 c 0
 602.7 145.6 618.1 133.7 634.2 122.5 c 0
 663.6 102.9 701.4 88.2002 736.4 88.2002 c 0
 765.8 88.2002 791.7 98.7002 810.6 121.1 c 0
 818.3 130.2 822.5 135.1 825.3 141.4 c 2
 832.3 155.4 l 1
 886.2 122.5 l 1
 879.2 110.6 l 2
 840.7 40.5996 758.8 -31.5 669.9 -31.5 c 0
 644 -31.5 617.4 -25.2002 592.2 -10.5 c 0
EndSplineSet
EndChar

StartChar: quotesingle
Encoding: 39 39 6
Width: 308
VWidth: 699
Flags: HMW
VStem: 33.6 251.3
LayerCount: 2
Fore
SplineSet
114.1 665.7 m 2
 116.9 676.2 117.6 688.1 125.3 699.3 c 0
 137.2 716.8 160.3 717.5 167.3 718.9 c 0
 182.7 721 196.7 722.4 212.1 722.4 c 0
 221.2 722.4 230.3 721.7 240.1 720.3 c 0
 250.6 718.9 261.1 717.5 270.2 713.3 c 0
 275.1 711.2 278.6 707.7 280.7 704.2 c 1
 284.2 700 284.9 693.7 284.9 689.5 c 0
 284.9 681.1 282.8 672.7 282.1 669.2 c 0
 277.2 642.6 266.7 618.1 252.7 595.7 c 0
 219.1 541.8 180.6 492.1 147.7 440.3 c 2
 116.2 391.3 l 2
 111.3 382.9 107.1 373.1 99.4004 366.8 c 1
 99.4004 366.1 98.7002 366.1 98.7002 366.1 c 1
 98 365.4 l 1
 98 365.4 97.2998 365.4 97.2998 364.7 c 1
 96.5996 364.7 l 1
 94.5 363.3 90.2998 361.9 88.9004 361.2 c 1
 87.5 361.2 85.4004 361.2 83.2998 361.2 c 0
 81.2002 361.2 79.0996 361.2 77.7002 361.2 c 2
 33.5996 361.2 l 1
 35.7002 377.3 l 2
 39.9004 403.2 49 428.4 55.2998 450.8 c 2
 114.1 665.7 l 2
EndSplineSet
EndChar

StartChar: parenright
Encoding: 41 41 7
Width: 387
VWidth: 699
Flags: HMW
VStem: 193.9 149.1
LayerCount: 2
Fore
SplineSet
55.2998 717.5 m 2
 57.4004 719.6 60.2002 721 63 721.7 c 0
 63.7002 721.7 65.7998 722.4 67.2002 722.4 c 1
 67.2002 722.4 67.9004 722.4 67.9004 721.7 c 1
 72.7998 721 73.5 721 74.2002 721 c 0
 74.9004 721 75.5996 721 76.2998 720.3 c 1
 77.7002 719.6 l 1
 78.4004 719.6 79.7998 718.9 80.5 718.9 c 1
 84 716.8 88.2002 714 89.5996 713.3 c 0
 107.8 704.2 124.6 693 140.7 681.1 c 0
 203.7 632.8 248.5 567.7 284.2 499.1 c 0
 325.5 420 341.6 333.2 343.7 245 c 0
 343.7 240.1 343.7 234.5 343.7 229.6 c 0
 343.7 65.0996 280.7 -95.2002 144.2 -196.7 c 0
 121.1 -214.9 95.2002 -231.7 67.2002 -245 c 2
 56 -250.6 l 1
 25.2002 -200.2 l 1
 37.0996 -193.2 l 2
 121.8 -141.4 161.7 -45.5 177.1 54.5996 c 0
 183.4 95.2002 185.5 135.8 188.3 177.8 c 0
 190.4 209.3 193.9 240.1 193.9 270.2 c 0
 193.9 278.6 l 0
 192.5 343.7 182.7 410.9 165.9 473.9 c 0
 156.8 510.3 146.3 548.1 128.1 578.2 c 0
 114.8 599.2 95.9004 616 75.5996 634.2 c 0
 60.9004 646.8 47.5996 660.1 34.2998 669.2 c 2
 22.4004 676.2 l 1
 30.0996 688.1 l 2
 35.7002 697.2 42.7002 704.2 47.5996 710.5 c 0
 52.5 716.1 53.2002 716.8 55.2998 717.5 c 2
EndSplineSet
EndChar

StartChar: parenleft
Encoding: 40 40 8
Width: 387
VWidth: 699
Flags: HMW
VStem: 41.3 151.9
LayerCount: 2
Fore
SplineSet
127.4 -66.5 m 0
 84 3.5 59.5 84 48.2998 164.5 c 0
 43.4004 196.7 41.2998 228.9 41.2998 261.1 c 0
 41.2998 382.2 75.5996 501.2 156.1 597.8 c 0
 188.3 636.3 224.7 669.2 266.7 697.2 c 0
 274.4 702.8 298.2 721.7 320.6 725.2 c 2
 329 727.3 l 1
 359.8 683.9 l 1
 347.9 675.5 l 2
 329 662.9 311.5 650.3 296.1 634.2 c 0
 221.9 556.5 202.3 452.9 194.6 345.8 c 0
 192.5 315.7 191.8 285.6 191.8 254.8 c 0
 191.8 235.9 191.8 217 192.5 198.1 c 0
 196 126 197.4 56 219.8 -10.5 c 0
 235.9 -58.7998 259 -102.2 292.6 -140.7 c 0
 303.8 -153.3 316.4 -164.5 330.4 -175 c 0
 334.6 -178.5 343 -182 347.9 -187.6 c 0
 350.7 -190.4 352.8 -193.2 354.2 -196.7 c 2
 354.9 -197.4 355.6 -200.9 355.6 -203 c 2
 355.6 -203.7 l 1
 354.9 -205.1 355.6 -207.9 353.5 -212.8 c 0
 349.3 -222.6 340.9 -233.8 339.5 -235.9 c 1
 335.3 -246.4 l 1
 324.1 -244.3 l 2
 301 -240.1 274.4 -218.4 263.2 -211.4 c 0
 207.9 -173.6 162.4 -123.2 127.4 -66.5 c 0
EndSplineSet
EndChar

StartChar: asterisk
Encoding: 42 42 9
Width: 658
VWidth: 699
Flags: HMW
VStem: 252.7 161<652.05 656.6>
LayerCount: 2
Fore
SplineSet
278.6 746.9 m 0
 294.7 763 316.4 770 337.4 770 c 0
 380.8 770 403.2 740.6 410.2 719.6 c 0
 413.7 708.4 414.4 697.9 414.4 689.5 c 0
 414.4 681.8 413.7 676.9 413.7 669.2 c 2
 413.7 667.8 l 2
 413.7 665 413.7 659.4 413.7 655.9 c 0
 413.7 648.2 413 643.3 412.3 639.8 c 0
 410.9 630.7 408.8 621.6 406 613.2 c 1
 421.4 627.9 l 2
 434.7 641.2 452.9 658.7 480.2 665.7 c 0
 487.9 667.8 497 669.9 507.5 669.9 c 0
 508.2 669.9 508.9 669.9 509.6 669.9 c 0
 517.3 669.2 520.8 669.2 528.5 667.8 c 1
 529.9 667.1 532.7 666.4 533.4 665.7 c 1
 535.5 665.7 537.6 664.3 539 664.3 c 1
 541.1 662.9 543.9 661.5 543.9 661.5 c 2
 570.5 646.8 585.9 616.7 585.9 587.3 c 2
 585.9 587.3 585.9 586.6 585.9 585.9 c 0
 585.9 575.4 584.5 569.1 581 559.3 c 0
 576.8 548.1 569.8 539.7 563.5 534.1 c 0
 552.3 524.3 528.5 504.7 501.2 494.9 c 0
 494.2 492.8 487.9 491.4 482.3 490 c 1
 491.4 487.9 l 2
 509.6 484.4 536.2 480.2 559.3 458.5 c 0
 563.5 454.3 566.3 452.2 567.7 450.1 c 1
 569.1 449.4 570.5 447.3 571.2 446.6 c 0
 572.6 445.2 574 443.1 574.7 441.7 c 2
 577.5 438.2 578.2 436.1 578.9 434.7 c 0
 579.6 432.6 582.4 427.7 583.8 417.2 c 0
 583.8 416.5 583.8 413 583.8 412.3 c 0
 583.8 410.9 584.5 408.1 584.5 407.4 c 0
 584.5 396.9 582.4 387.1 582.4 382.2 c 0
 582.4 380.1 583.1 378.7 583.1 377.3 c 0
 583.1 369.6 581.7 360.5 576.1 352.8 c 0
 560.7 328.3 534.1 315 503.3 315 c 0
 492.8 315 482.3 316.4 472.5 319.9 c 0
 442.4 328.3 424.2 350.7 410.2 365.4 c 2
 408.8 366.8 l 1
 413.7 351.4 417.2 333.2 417.2 316.4 c 0
 417.2 305.9 416.5 295.4 413 284.2 c 0
 410.9 277.2 406.7 262.5 399 250.6 c 0
 398.3 249.9 396.9 247.8 395.5 245.7 c 0
 394.1 244.3 392.7 242.9 392 241.5 c 1
 390.6 240.8 389.2 238.7 387.1 236.6 c 0
 371.7 225.4 354.2 219.1 337.4 219.1 c 0
 294.7 219.1 258.3 252.7 252.7 295.4 c 0
 252 299.6 252 303.8 252 308 c 0
 252 330.4 261.1 359.1 263.2 364.7 c 2
 264.6 371 l 1
 264.6 370.3 l 1
 248.5 352.1 228.2 329.7 198.8 321.3 c 0
 189.7 318.5 177.1 315.7 163.1 315.7 c 2
 163.1 315.7 161.7 315.7 161 315.7 c 0
 150.5 316.4 144.9 316.4 135.1 319.2 c 0
 133 319.9 130.2 321.3 129.5 321.3 c 1
 128.1 322 125.3 323.4 123.9 324.1 c 1
 123.2 324.8 119 326.2 116.9 328.3 c 0
 114.8 330.4 107.1 335.3 100.1 348.6 c 0
 90.2998 367.5 88.9004 392.7 88.9004 403.2 c 0
 88.9004 404.6 88.9004 408.1 88.9004 410.9 c 0
 88.9004 417.9 89.5996 424.2 91.7002 429.8 c 0
 93.7998 434 100.1 450.1 121.8 468.3 c 0
 137.9 481.6 156.1 488.6 175 493.5 c 1
 157.5 499.1 140.7 506.8 126 518.7 c 0
 119 524.3 103.6 538.3 96.5996 554.4 c 0
 93.7998 560 93.0996 566.3 93.0996 573.3 c 0
 93.0996 580.3 93.7998 583.1 93.7998 587.3 c 0
 95.2002 600.6 95.2002 611.1 98.7002 623 c 0
 101.5 632.8 107.1 643.3 116.9 651.7 c 0
 118.3 653.1 123.2 657.3 133.7 661.5 c 0
 135.8 662.2 137.9 662.9 139.3 662.9 c 2
 152.6 667.1 167.3 667.8 174.3 667.8 c 0
 187.6 667.8 196 666.4 201.6 665 c 0
 225.4 658.7 245 640.5 256.2 627.9 c 1
 254.1 637 252.7 646.8 252.7 656.6 c 2
 252 660.1 252 664.3 252 668.5 c 0
 252 715.4 268.1 736.4 278.6 746.9 c 0
EndSplineSet
EndChar

StartChar: plus
Encoding: 43 43 10
Width: 854
VWidth: 699
Flags: HMW
HStem: 216.3 146.3
VStem: 370.3 146.3<-77 216.3 -77 216.3 363.3 656.6>
LayerCount: 2
Fore
SplineSet
370.3 656.6 m 1
 516.6 656.6 l 1
 516.6 363.3 l 1
 805.7 363.3 l 1
 805.7 216.3 l 1
 516.6 216.3 l 1
 516.6 -77 l 1
 370.3 -77 l 1
 370.3 216.3 l 1
 91 216.3 l 1
 91 363.3 l 1
 370.3 363.3 l 1
 370.3 656.6 l 1
EndSplineSet
EndChar

StartChar: comma
Encoding: 44 44 11
Width: 270
VWidth: 699
Flags: HMW
VStem: 4.2 264.6
LayerCount: 2
Fore
SplineSet
64.4004 58.7998 m 1
 79.7998 118.3 l 2
 83.2998 130.2 84.7002 145.6 95.2002 159.6 c 0
 115.5 189 147.7 191.8 171.5 191.8 c 0
 183.4 191.8 194.6 191.1 204.4 191.1 c 2
 205.1 191.1 l 2
 205.8 191.1 205.8 191.1 207.2 191.1 c 2
 207.9 191.1 l 2
 220.5 191.1 236.6 191.1 249.9 182 c 0
 254.8 179.2 258.3 175.7 260.4 171.5 c 0
 264.6 163.8 264.6 163.8 266.7 158.2 c 0
 268.1 152.6 268.8 146.3 268.8 140.7 c 0
 268.8 112 254.1 88.9004 233.1 56 c 2
 100.1 -148.4 l 2
 94.5 -157.5 93.7998 -159.6 90.2998 -164.5 c 0
 89.5996 -165.2 88.2002 -166.6 87.5 -168 c 1
 87.5 -168 85.4004 -170.1 84 -171.5 c 1
 83.2998 -171.5 81.2002 -173.6 79.0996 -174.3 c 2
 64.4004 -184.1 46.2002 -184.1 37.7998 -184.1 c 2
 35.7002 -184.1 l 2
 35 -184.1 28.7002 -184.1 27.2998 -184.1 c 2
 4.2002 -184.1 l 1
 6.2998 -161.7 l 2
 8.40039 -134.4 17.5 -116.9 24.5 -89.5996 c 2
 64.4004 58.7998 l 1
EndSplineSet
EndChar

StartChar: rafe
Encoding: 256 1471 12
Width: 465
VWidth: 699
Flags: HMW
HStem: 469.7 158.2<90.3 375.2 44.8 424.2 90.3 90.3>
LayerCount: 2
Fore
SplineSet
44.7998 627.9 m 1
 375.2 627.9 l 1
 424.2 469.7 l 1
 90.2998 469.7 l 1
 44.7998 627.9 l 1
EndSplineSet
EndChar

StartChar: period
Encoding: 46 46 13
Width: 270
VWidth: 699
Flags: HMW
HStem: -56.7 231
VStem: 12.6 227.5<39.9 61.25 39.9 75.25>
LayerCount: 2
Fore
SplineSet
239.4 71.4004 m 0
 240.1 67.2002 240.1 63 240.1 59.5 c 0
 240.1 20.2998 221.2 -16.0996 189 -37.7998 c 0
 173.6 -48.2998 159.6 -53.9004 145.6 -55.2998 c 0
 139.3 -56.7002 133 -56.7002 126.7 -56.7002 c 0
 109.9 -56.7002 93.0996 -53.9004 77.7002 -46.9004 c 0
 34.2998 -27.2998 12.5996 15.4004 12.5996 56.7002 c 0
 12.5996 93.7998 30.0996 131.6 64.4004 154.7 c 0
 81.9004 167.3 100.8 170.8 116.9 172.9 c 0
 121.1 173.6 124.6 173.6 128.8 173.6 c 0
 186.2 173.6 234.5 122.5 239.4 71.4004 c 0
EndSplineSet
EndChar

StartChar: slash
Encoding: 47 47 14
Width: 501
VWidth: 699
Flags: HW
LayerCount: 2
Fore
SplineSet
100.1 134.4 m 2
 264.6 471.1 l 1
 329 601.3 l 1
 347.2 639.1 l 2
 350.7 646.8 350 646.1 351.4 648.9 c 1
 352.1 649.6 353.5 651.7 353.5 653.1 c 1
 354.2 653.1 355.6 655.9 357 657.3 c 1
 357 658 359.8 660.8 361.2 661.5 c 1
 361.2 662.2 l 1
 361.9 662.2 l 1
 363.3 662.9 372.4 667.8 375.2 668.5 c 0
 377.3 669.2 380.8 669.2 385.7 669.2 c 0
 393.4 669.2 399.7 668.5 401.8 668.5 c 2
 503.3 668.5 l 1
 495.6 641.9 l 2
 490 621.6 480.9 610.4 472.5 593.6 c 2
 422.8 491.4 l 2
 370.3 386.4 316.4 282.1 268.1 177.1 c 0
 245.7 128.1 221.9 80.5 198.1 33.5996 c 2
 178.5 -6.2998 l 2
 175 -14.7002 175.7 -14 173.6 -16.7998 c 1
 173.6 -18.2002 172.2 -20.2998 171.5 -21 c 1
 171.5 -21.7002 169.4 -24.5 168.7 -25.9004 c 1
 168 -26.5996 165.2 -29.4004 163.8 -30.7998 c 1
 163.8 -30.7998 l 1
 163.1 -31.5 l 1
 161.7 -32.2002 152.6 -37.0996 149.8 -37.7998 c 1
 147.7 -37.7998 144.2 -38.5 139.3 -38.5 c 0
 131.6 -38.5 125.3 -37.7998 123.2 -37.7998 c 2
 21.7002 -37.7998 l 1
 29.4004 -10.5 l 2
 34.2998 7 42 16.0996 49 30.0996 c 0
 65.0996 65.7998 84 100.1 100.1 134.4 c 2
EndSplineSet
EndChar

StartChar: zero
Encoding: 48 48 15
Width: 585
VWidth: 699
Flags: HMW
HStem: 285.6 42<402.15 414.05> 641.2 14G<302.75 361.55>
VStem: 37.8 198.8<321.3 372.75> 387.1 42.7<300.65 312.2>
LayerCount: 2
Fore
SplineSet
324.8 541.1 m 1
 303.1 571.9 l 1
 284.9 580.3 l 1
 272.3 578.2 l 1
 236.6 478.1 l 1
 236.6 321.3 l 1
 244.3 266.7 l 1
 266.7 126.7 l 1
 298.2 65.0996 l 1
 322.7 58.7998 l 1
 333.2 63 l 1
 368.9 174.3 l 1
 371 233.1 l 1
 371 301 l 1
 368.9 351.4 l 1
 357 424.9 l 1
 324.8 541.1 l 1
408.1 285.6 m 0
 396.2 285.6 387.1 294.7 387.1 306.6 c 0
 387.1 317.8 396.2 327.6 408.1 327.6 c 0
 420 327.6 429.8 317.8 429.8 306.6 c 0
 429.8 294.7 420 285.6 408.1 285.6 c 0
282.8 653.8 m 0
 291.2 654.5 298.9 655.2 306.6 655.2 c 0
 416.5 655.2 489.3 564.2 515.9 497 c 0
 538.3 440.3 550.9 377.3 550.9 314.3 c 0
 550.9 249.2 536.9 183.4 506.1 124.6 c 0
 491.4 98 474.6 68.5996 448.7 44.7998 c 0
 417.9 16.0996 376.6 0.700195 329 -4.2002 c 0
 318.5 -5.59961 298.2 -7.7002 277.9 -7.7002 c 0
 265.3 -7.7002 252.7 -7 240.8 -4.90039 c 0
 129.5 14 86.7998 102.2 65.0996 168 c 0
 46.2002 229.6 37.7998 287 37.7998 338.1 c 0
 37.7998 407.4 52.5 477.4 92.4004 539 c 0
 128.8 595 193.9 644.7 282.8 653.8 c 0
EndSplineSet
EndChar

StartChar: one
Encoding: 49 49 16
Width: 585
VWidth: 699
Flags: HMW
HStem: -9.8 81.2<480.2 501.2 480.2 501.2>
VStem: 233.8 186.2
LayerCount: 2
Fore
SplineSet
125.3 599.2 m 2
 165.2 599.2 249.2 609.7 287 624.4 c 0
 301.7 630.7 315.7 642.6 337.4 648.2 c 0
 342.3 649.6 350 651 362.6 651 c 0
 377.3 651 387.8 649.6 398.3 649.6 c 2
 419.3 649.6 l 1
 419.3 185.5 l 2
 419.3 175 419.3 164.5 419.3 154.7 c 0
 419.3 133.7 420.7 114.8 427.7 98.7002 c 0
 432.6 86.7998 434.7 82.5996 439.6 79.0996 c 0
 445.9 74.9004 464.1 71.4004 480.2 71.4004 c 2
 501.2 71.4004 l 1
 501.2 -9.7998 l 1
 98 -9.7998 l 1
 98 67.9004 l 1
 115.5 70.7002 l 2
 154 77.7002 172.2 77.7002 184.1 96.5996 c 1
 184.8 97.2998 l 1
 186.2 98 l 2
 235.2 114.8 235.2 137.9 235.2 147 c 0
 235.2 163.1 233.8 180.6 233.8 197.4 c 2
 233.8 462.7 l 2
 233.8 468.3 233.8 473.2 233.8 478.1 c 0
 233.8 481.6 233.1 487.2 225.4 490.7 c 0
 213.5 497 187.6 508.9 154 513.1 c 0
 149.8 513.8 148.4 513.8 147 513.8 c 0
 145.6 513.8 144.9 513.8 143.5 513.8 c 0
 142.8 513.8 141.4 513.8 140.7 513.8 c 0
 139.3 513.8 136.5 514.5 134.4 514.5 c 1
 133 515.2 128.8 515.9 128.1 516.6 c 1
 125.3 517.3 120.4 520.1 119 520.8 c 1
 118.3 521.5 l 1
 118.3 522.2 l 1
 116.2 527.1 111.3 532.7 109.9 537.6 c 1
 109.9 537.6 109.9 537.6 109.2 538.3 c 1
 109.2 542.5 109.2 543.2 109.2 543.9 c 0
 107.1 553.7 104.3 565.6 104.3 579.6 c 2
 104.3 599.2 l 1
 125.3 599.2 l 2
EndSplineSet
EndChar

StartChar: two
Encoding: 50 50 17
Width: 585
VWidth: 699
Flags: HW
HStem: -7 152.6 79.1 7<186.55 188.65> 526.4 129.5<247.8 346.5>
VStem: 184.1 7<81.9 83.65>
LayerCount: 2
Fore
SplineSet
187.6 79.0996 m 0x70
 185.5 79.0996 184.1 81.2002 184.1 82.5996 c 0
 184.1 84.7002 185.5 86.0996 187.6 86.0996 c 0
 189.7 86.0996 191.1 84.7002 191.1 82.5996 c 0
 191.1 81.2002 189.7 79.0996 187.6 79.0996 c 0x70
46.9004 460.6 m 2
 57.4004 494.2 74.2002 520.8 93.0996 547.4 c 0
 103.6 561.4 107.8 573.3 121.1 586.6 c 0
 135.1 601.3 163.8 622.3 214.9 638.4 c 0
 249.2 649.6 288.4 655.9 328.3 655.9 c 0
 364.7 655.9 401.1 650.3 434 637.7 c 0
 513.8 606.9 551.6 534.1 551.6 464.1 c 0
 551.6 457.1 550.9 450.1 550.2 443.8 c 0
 541.8 362.6 480.2 301.7 415.1 252 c 0
 382.2 226.8 350 200.2 315 175 c 2
 281.4 150.5 l 1
 289.1 151.2 296.8 151.2 304.5 151.2 c 0
 318.5 151.2 331.8 150.5 345.8 149.8 c 0
 366.1 148.4 387.1 146.3 405.3 146.3 c 0
 412.3 146.3 418.6 146.3 424.2 147 c 0
 431.2 147.7 445.2 152.6 456.4 164.5 c 0
 458.5 167.3 459.9 170.8 463.4 175 c 2
 464.1 176.4 465.5 177.8 466.2 178.5 c 0
 466.9 179.2 469 182 470.4 183.4 c 0
 471.1 184.1 474.6 186.2 476 187.6 c 0
 482.3 191.8 489.3 191.8 493.5 191.8 c 0
 498.4 191.8 499.8 191.8 501.2 191.8 c 2
 563.5 191.8 l 1
 505.4 -7 l 1
 35.7002 -7 l 1xb0
 35.7002 -1.40039 34.2998 13.2998 34.2998 21.7002 c 0
 34.2998 35.7002 37.0996 42.7002 37.7998 44.7998 c 1
 39.2002 46.9004 39.9004 50.4004 45.5 56.7002 c 0
 46.9004 58.0996 47.5996 58.7998 48.2998 59.5 c 0
 56 67.9004 63.7002 72.0996 68.5996 77 c 2
 133.7 137.9 l 2
 199.5 200.2 265.3 256.9 312.9 326.2 c 0
 331.8 354.2 350.7 382.9 355.6 409.5 c 0
 357 415.8 357 422.1 357 429.1 c 0
 357 448 352.1 467.6 340.9 483 c 0
 322.7 508.9 288.4 526.4 252.7 526.4 c 0
 242.9 526.4 232.4 525 222.6 521.5 c 0
 185.5 509.6 158.9 472.5 131.6 427.7 c 2
 122.5 412.3 l 1
 40.5996 441.7 l 1
 46.9004 460.6 l 2
EndSplineSet
EndChar

StartChar: three
Encoding: 51 51 18
Width: 585
VWidth: 699
Flags: HW
HStem: -14 100.1 542.5 116.9<221.2 348.95 242.2 348.95>
VStem: 317.8 190.4<478.8 545.3> 354.9 185.5<187.6 215.95>
LayerCount: 2
Fore
SplineSet
98.7002 508.9 m 2xe0
 91.7002 519.4 88.9004 527.1 83.2998 537.6 c 1
 81.9004 539 79.0996 543.9 77 548.8 c 0
 76.2998 550.9 75.5996 556.5 75.5996 557.9 c 0
 75.5996 560.7 75.5996 563.5 76.2998 564.9 c 0
 78.4004 569.8 81.2002 574.7 82.5996 576.8 c 0
 90.2998 585.9 100.8 591.5 105.7 595 c 0
 130.2 613.2 161.7 628.6 196.7 639.8 c 0
 236.6 651.7 282.8 659.4 329 659.4 c 0
 368.9 659.4 403.2 653.8 433.3 638.4 c 0
 482.3 613.9 508.2 568.4 508.2 522.2 c 0xe0
 508.2 487.2 493.5 451.5 463.4 424.9 c 0
 448 410.9 431.2 401.1 413.7 392 c 1
 427.7 387.8 441 382.2 454.3 373.1 c 0
 512.4 335.3 540.4 270.9 540.4 207.9 c 0
 540.4 163.8 526.4 118.3 497.7 81.2002 c 0
 457.8 30.0996 390.6 -0.700195 322 -9.7998 c 0
 301 -13.2998 279.3 -14 258.3 -14 c 0
 208.6 -14 158.9 -7 117.6 3.5 c 0
 103.6 7 90.2998 12.5996 77.7002 18.2002 c 0
 72.0996 20.2998 70.7002 21 68.5996 21.7002 c 0
 64.4004 23.7998 58.7998 28 56 33.5996 c 0
 54.5996 35.7002 53.2002 42.7002 53.2002 46.2002 c 0
 53.2002 57.4004 54.5996 55.2998 58.0996 64.4004 c 0
 61.5996 74.9004 65.7998 85.4004 69.2998 95.9004 c 2
 74.9004 112.7 l 1
 92.4004 109.9 l 2
 112.7 107.1 123.9 98.7002 141.4 94.5 c 0
 165.9 88.9004 192.5 85.4004 217.7 85.4004 c 0
 249.2 85.4004 277.9 91 301.7 103.6 c 0
 317.8 112.7 331.1 128.1 340.9 144.9 c 0
 350 160.3 354.9 178.5 354.9 196.7 c 0xd0
 354.9 235.2 331.8 272.3 282.1 287.7 c 0
 273 289.8 265.3 291.2 257.6 291.2 c 0
 239.4 291.2 232.4 287 193.2 279.3 c 2
 172.2 275.1 l 1
 133.7 343 l 1
 154 351.4 l 2
 172.9 359.8 192.5 371 212.8 381.5 c 0
 256.2 404.6 294 427 311.5 458.5 c 0
 316.4 466.9 317.8 475.3 317.8 482.3 c 0
 317.8 511.7 291.9 539 249.2 542.5 c 0
 246.4 542.5 244.3 542.5 242.2 542.5 c 0
 200.2 542.5 168 511.7 121.8 500.5 c 2
 107.1 496.3 l 1
 98.7002 508.9 l 2xe0
EndSplineSet
EndChar

StartChar: four
Encoding: 52 52 19
Width: 627
VWidth: 699
Flags: HW
HStem: -9.8 79.1<560.7 581.7 560.7 581.7> -9.8 84<179.9 206.5 206.5 222.25 179.9 581.7 179.9 206.5> 145.6 103.6
VStem: 282.8 181.3<387.1 387.1>
LayerCount: 2
Fore
SplineSet
29.4004 145.6 m 1x70
 29.4004 205.8 l 1
 30.0996 231.7 l 1
 53.9004 267.4 l 1
 331.1 608.3 l 1
 361.9 651.7 l 1
 371.7 652.4 l 1
 392 654.5 l 1
 464.1 654.5 l 1
 464.1 254.8 l 2
 464.1 252.7 464.1 248.5 463.4 245 c 1
 495.6 249.2 513.1 256.9 514.5 266.7 c 2
 515.9 285.6 l 1
 601.3 285.6 l 1
 584.5 145.6 l 1
 463.4 145.6 l 1
 463.4 136.5 462.7 128.1 462.7 120.4 c 0
 462.7 109.9 463.4 98.7002 480.9 88.9004 c 0
 501.9 77.7002 520.1 70.7002 525 68.5996 c 0
 526.4 67.9004 532 67.9004 533.4 67.9004 c 0
 541.1 67.9004 553.7 69.2998 560.7 69.2998 c 2
 581.7 69.2998 l 1
 581.7 -9.7998 l 1xb0
 179.9 -9.7998 l 1
 179.9 74.2002 l 1
 206.5 74.2002 l 2
 238 74.2002 266.7 76.2998 277.2 83.2998 c 0
 280 84.7002 282.1 88.2002 284.2 99.4004 c 0
 285.6 105 285.6 112 285.6 118.3 c 0
 285.6 126.7 284.9 135.8 284.9 145.6 c 1
 29.4004 145.6 l 1x70
159.6 248.5 m 1
 284.9 248.5 l 1
 282.8 387.1 l 1
 159.6 248.5 l 1
EndSplineSet
EndChar

StartChar: five
Encoding: 53 53 20
Width: 585
VWidth: 699
Flags: HMW
HStem: -17.5 91.7 505.4 135.8<228.9 384.3 384.3 390.95 438.9 439.25 228.9 228.9>
VStem: 375.9 155.4<167.3 250.25>
LayerCount: 2
Fore
SplineSet
69.2998 320.6 m 2
 85.4004 396.2 106.4 471.1 123.2 545.3 c 2
 138.6 603.4 l 2
 140 609 140.7 616.7 144.2 623.7 c 0
 146.3 627.9 149.1 632.1 155.4 636.3 c 0
 159.6 638.4 164.5 641.2 178.5 641.2 c 0
 186.9 641.2 188.3 641.2 190.4 641.2 c 2
 384.3 641.2 l 2
 397.6 641.2 410.2 640.5 422.1 640.5 c 0
 428.4 640.5 434 640.5 438.9 641.2 c 0
 439.6 641.2 440.3 641.9 441 643.3 c 0
 443.8 647.5 447.3 653.1 452.9 658.7 c 1
 453.6 660.1 455 662.9 457.1 665.7 c 1
 457.8 666.4 l 1
 459.2 667.1 l 1
 464.8 667.8 471.1 668.5 476 668.5 c 0
 477.4 668.5 480.9 667.8 482.3 667.8 c 2
 536.9 667.8 l 1
 502.6 505.4 l 1
 228.9 505.4 l 1
 225.4 491.4 221.2 477.4 217 464.1 c 1
 229.6 465.5 245 466.9 263.2 466.9 c 0
 268.8 466.9 273.7 466.9 278.6 466.9 c 0
 392.7 462.7 490 403.9 520.8 309.4 c 0
 527.8 287 531.3 262.5 531.3 238 c 0
 531.3 199.5 522.9 159.6 504 126.7 c 0
 457.1 42.7002 338.1 -16.7998 223.3 -17.5 c 0
 218.4 -17.5 214.2 -17.5 209.3 -17.5 c 0
 172.9 -17.5 135.1 -16.0996 101.5 -3.5 c 0
 85.4004 2.09961 72.0996 10.5 60.9004 17.5 c 2
 44.7998 25.9004 l 1
 74.2002 104.3 l 1
 92.4004 100.1 l 2
 110.6 95.2002 119.7 88.9004 136.5 84.7002 c 0
 161.7 77.7002 189.7 73.5 216.3 73.5 c 0
 234.5 73.5 252 75.5996 268.1 79.7998 c 0
 311.5 91 357.7 130.2 375.2 162.4 c 0
 375.9 164.5 375.9 166.6 375.9 168 c 0
 375.9 172.9 375.2 178.5 373.1 187.6 c 0
 368.2 220.5 353.5 250.6 324.1 272.3 c 0
 303.8 288.4 274.4 294.7 241.5 294.7 c 0
 224.7 294.7 206.5 292.6 190.4 289.8 c 0
 179.2 287.7 168.7 284.9 158.2 281.4 c 1
 156.8 281.4 151.9 279.3 150.5 278.6 c 1
 149.8 277.9 146.3 277.2 145.6 277.2 c 1
 144.2 276.5 140.7 275.8 139.3 275.1 c 1
 137.9 275.1 133 274.4 130.9 274.4 c 1
 130.9 274.4 l 1
 119 274.4 115.5 279.3 108.5 282.8 c 2
 66.5 305.9 l 1
 69.2998 320.6 l 2
EndSplineSet
EndChar

StartChar: six
Encoding: 54 54 21
Width: 585
VWidth: 699
Flags: HMW
VStem: 313.6 160.3
LayerCount: 2
Fore
SplineSet
284.9 430.5 m 0
 285.6 430.5 286.3 430.5 286.3 430.5 c 2
 308 429.8 329 426.3 347.9 419.3 c 0
 431.9 388.5 473.2 299.6 473.2 213.5 c 0
 473.2 191.8 470.4 170.1 465.5 149.8 c 0
 454.3 108.5 431.9 70 401.1 39.9004 c 0
 374.5 14 343 -7 305.2 -14 c 0
 293.3 -16.7998 280.7 -17.5 268.8 -17.5 c 0
 193.2 -17.5 124.6 25.2002 84.7002 85.4004 c 0
 60.2002 122.5 46.9004 168.7 42 212.8 c 0
 39.9004 228.2 39.2002 244.3 39.2002 259.7 c 0
 39.2002 329.7 55.2998 401.1 91 461.3 c 0
 118.3 506.8 159.6 548.1 203.7 579.6 c 0
 257.6 619.5 326.9 648.2 394.8 648.2 c 0
 406.7 648.2 418.6 647.5 431.2 645.4 c 1
 431.2 652.4 l 1
 436.1 644 l 1
 438.2 644 l 1
 438.2 644 l 1
 457.8 618.8 l 1
 448 620.2 l 2
 443.8 620.9 439.6 621.6 435.4 622.3 c 1
 435.4 622.3 435.4 623 434.7 623 c 1
 424.9 590.1 380.1 595 359.1 581 c 0
 345.1 572.6 329.7 567 317.1 557.9 c 0
 280.7 534.1 250.6 501.2 231 464.1 c 0
 224 450.1 213.5 431.9 212.8 416.5 c 1
 235.9 424.9 259.7 430.5 284.9 430.5 c 0
256.9 341.6 m 1
 231.7 340.2 l 1
 211.4 323.4 l 1
 202.3 252.7 l 1
 192.5 206.5 l 1
 199.5 154.7 l 1
 212.8 115.5 l 1
 234.5 84.7002 l 1
 263.2 68.5996 l 1
 291.9 68.5996 l 1
 303.1 74.2002 l 1
 313.6 126.7 l 1
 313.6 233.8 l 1
 298.2 285.6 l 1
 275.1 331.1 l 1
 256.9 341.6 l 1
EndSplineSet
EndChar

StartChar: seven
Encoding: 55 55 22
Width: 585
VWidth: 699
Flags: HMW
HStem: 490 145.6<203 225.4 203 225.4 218.4 221.2 221.2 225.4 218.4 405.3> 641.2 14G<154 156.1 155.75 159.25>
LayerCount: 2
Fore
SplineSet
60.9004 446.6 m 2
 63 466.2 68.5996 479.5 73.5 498.4 c 2
 95.9004 589.4 l 2
 98.7002 599.9 101.5 611.1 104.3 622.3 c 0
 104.3 623 105 628.6 107.1 632.8 c 0
 110.6 641.9 116.2 646.1 118.3 646.8 c 0
 122.5 648.9 123.2 650.3 132.3 652.4 c 1
 133 653.1 135.8 653.1 136.5 653.8 c 1
 142.1 654.5 147.7 655.2 154 655.2 c 0
 154.7 655.2 155.4 655.2 156.1 655.2 c 0
 162.4 655.2 165.9 655.2 172.2 653.8 c 0
 175.7 653.1 178.5 652.4 179.9 651.7 c 0
 191.1 644.7 193.9 642.6 196.7 639.8 c 2
 196.7 639.8 196.7 639.8 197.4 639.1 c 1
 202.3 637 211.4 635.6 225.4 635.6 c 0
 259 634.9 293.3 634.2 327.6 634.2 c 0
 396.2 634.2 464.1 635.6 523.6 635.6 c 2
 541.1 635.6 l 1
 544.6 619.5 l 2
 546 609.7 547.4 600.6 547.4 591.5 c 0
 547.4 534.8 511 487.9 491.4 441.7 c 0
 452.9 350.7 419.3 254.8 396.9 158.9 c 0
 388.5 121.1 382.2 83.2998 378 44.7998 c 0
 376.6 35 375.2 25.9004 375.2 17.5 c 1
 375.2 17.5 l 1
 375.2 16.0996 375.9 14.7002 375.9 10.5 c 0
 375.9 0 370.3 -6.2998 368.9 -7.7002 c 0
 365.4 -10.5 358.4 -16.7998 344.4 -16.7998 c 0
 343.7 -16.7998 340.9 -16.7998 340.2 -16.7998 c 2
 163.8 -16.7998 l 1
 167.3 6.2998 l 2
 173.6 46.9004 186.9 86.0996 200.2 123.9 c 0
 231.7 212.8 275.1 301 329 382.2 c 0
 347.9 410.9 367.5 440.3 388.5 469 c 0
 392.7 474.6 399 482.3 405.3 490 c 1
 221.2 490 l 2
 217 490 210.7 490 207.2 490 c 0
 205.8 490 203.7 490 203 490 c 0
 179.9 483 161 461.3 154.7 440.3 c 2
 150.5 424.9 l 1
 59.5 424.9 l 1
 60.9004 446.6 l 2
EndSplineSet
EndChar

StartChar: eight
Encoding: 56 56 23
Width: 585
VWidth: 699
Flags: HMW
HStem: -27.3 14.7G<281.75 335.3> 553 97.3<278.6 302.4 278.6 278.6>
VStem: 389.2 149.8<430.5 490.7>
LayerCount: 2
Fore
SplineSet
343 191.1 m 1
 283.5 222.6 l 1
 227.5 245 l 1
 221.9 239.4 l 1
 212.1 199.5 l 1
 207.9 158.9 l 1
 212.1 114.8 l 1
 216.3 93.7998 l 1
 242.9 67.9004 l 1
 283.5 48.2998 l 1
 324.1 46.2002 l 1
 360.5 61.5996 l 1
 389.2 82.5996 l 1
 396.9 102.9 l 1
 388.5 142.8 l 1
 377.3 165.9 l 1
 343 191.1 l 1
302.4 553 m 1
 278.6 553 l 1
 238.7 540.4 l 1
 217.7 517.3 l 1
 212.8 499.8 l 1
 218.4 468.3 l 1
 233.1 454.3 l 1
 263.9 429.1 l 1
 304.5 412.3 l 1
 304.5 412.3 l 1
 304.5 412.3 l 1
 353.5 382.9 l 1
 357 382.2 l 1
 374.5 406 l 1
 389.2 430.5 l 1
 389.9 478.8 l 1
 385.7 511 l 1
 375.9 532.7 l 1
 362.6 541.1 l 1
 333.9 548.1 l 1
 302.4 553 l 1
132.3 301.7 m 1
 101.5 326.9 81.9004 358.4 72.0996 396.9 c 0
 67.2002 414.4 65.0996 433.3 65.0996 452.9 c 0
 65.0996 471.8 67.2002 490.7 73.5 508.2 c 0
 104.3 599.2 206.5 650.3 313.6 650.3 c 0
 354.2 650.3 394.8 642.6 432.6 627.2 c 0
 468.3 611.8 499.1 586.6 517.3 555.8 c 0
 532 532.7 539 504.7 539 476.7 c 0
 539 445.9 530.6 415.1 509.6 390.6 c 0
 497 375.2 483 362.6 467.6 350.7 c 1
 479.5 341.6 489.3 331.8 494.2 326.9 c 0
 533.4 287.7 553.7 235.2 553.7 182 c 0
 553.7 140.7 541.1 98.7002 515.2 63.7002 c 0
 467.6 -0.700195 378.7 -27.2998 291.9 -27.2998 c 0
 271.6 -27.2998 252 -25.2002 231.7 -22.4004 c 0
 160.3 -12.5996 98.7002 21 68.5996 77 c 0
 56.7002 99.4004 51.7998 123.2 51.7998 147 c 0
 51.7998 200.2 79.0996 261.8 129.5 298.9 c 1
 132.3 301.7 l 1
EndSplineSet
EndChar

StartChar: nine
Encoding: 57 57 24
Width: 585
VWidth: 699
Flags: HMW
HStem: -15.4 84.7
VStem: 339.5 200.9<347.9 415.45 345.8 455.7 345.8 455.7>
LayerCount: 2
Fore
SplineSet
302.4 553 m 1
 284.2 563.5 l 1
 259 562.1 l 1
 239.4 545.3 l 1
 229.6 474.6 l 1
 220.5 428.4 l 1
 227.5 376.6 l 1
 240.8 335.3 l 1
 262.5 303.8 l 1
 289.8 287 l 1
 318.5 287 l 1
 329.7 292.6 l 1
 339.5 347.9 l 1
 339.5 455.7 l 1
 324.8 507.5 l 1
 302.4 553 l 1
306.6 192.5 m 2
 308 195.3 l 1
 290.5 191.8 272.3 190.4 254.1 190.4 c 0
 230.3 190.4 206.5 193.2 184.1 199.5 c 0
 81.9004 231 36.4004 322.7 36.4004 409.5 c 0
 36.4004 431.9 39.9004 455 46.2002 476.7 c 0
 56.7002 511.7 75.5996 542.5 99.4004 569.1 c 0
 134.4 607.6 194.6 644.7 265.3 644.7 c 0
 266.7 644.7 270.9 644.7 272.3 644.7 c 0
 301.7 643.3 333.2 639.1 362.6 630 c 0
 495.6 588.7 540.4 469.7 540.4 361.2 c 0
 540.4 330.4 536.9 300.3 530.6 272.3 c 0
 504.7 163.1 420.7 67.2002 297.5 19.5996 c 0
 235.9 -4.2002 167.3 -15.4004 102.9 -15.4004 c 2
 81.2002 -15.4004 l 1
 81.9004 4.90039 l 2
 81.9004 17.5 85.4004 28.7002 86.0996 37.0996 c 0
 87.5 44.7998 87.5 46.2002 88.2002 49 c 0
 88.9004 51.7998 92.4004 56.7002 93.0996 58.7998 c 1
 105.7 72.0996 127.4 68.5996 135.8 69.2998 c 0
 156.8 72.0996 176.4 78.4004 194.6 87.5 c 0
 243.6 110.6 287 150.5 306.6 192.5 c 2
EndSplineSet
EndChar

StartChar: colon
Encoding: 58 58 25
Width: 541
VWidth: 699
Flags: HMW
VStem: 96.6 247.8
LayerCount: 2
Fore
SplineSet
309.4 489.3 m 1
 330.4 469 l 1
 345.1 445.2 l 1
 319.9 420 l 1
 281.4 382.9 l 1
 245 345.8 l 1
 217.7 320.6 l 1
 194.6 339.5 l 1
 176.4 357.7 l 1
 96.5996 438.9 l 1
 96.5996 456.4 l 1
 214.2 581 l 1
 248.5 548.1 l 1
 309.4 489.3 l 1
307.3 124.6 m 2
 315 118.3 329.7 109.2 336.7 94.5 c 2
 336.7 94.5 338.1 91 338.8 88.9004 c 0
 339.5 86.7998 339.5 84 339.5 82.5996 c 2
 339.5 81.9004 l 1
 339.5 81.2002 l 1
 338.1 79.0996 335.3 67.9004 333.2 65.7998 c 0
 331.1 63 331.1 63 329 60.9004 c 2
 313.6 44.7998 l 1
 256.2 -13.2998 l 2
 252 -18.9004 246.4 -26.5996 239.4 -32.9004 c 0
 229.6 -39.9004 221.9 -39.9004 219.8 -39.9004 c 2
 219.1 -39.9004 l 1
 218.4 -39.9004 l 2
 216.3 -39.9004 209.3 -41.2998 198.1 -29.4004 c 2
 197.4 -28.7002 l 1
 178.5 -9.7998 l 1
 98.7002 71.4004 l 1
 98.7002 88.9004 l 1
 212.1 212.8 l 1
 226.8 201.6 l 2
 242.2 191.1 253.4 178.5 262.5 168.7 c 2
 307.3 124.6 l 2
EndSplineSet
EndChar

StartChar: semicolon
Encoding: 59 59 26
Width: 426
VWidth: 699
Flags: HMW
VStem: 76.3 214.2<527.1 558.6>
LayerCount: 2
Fore
SplineSet
210 650.3 m 0
 262.5 637 290.5 590.1 290.5 544.6 c 0
 290.5 509.6 273.7 473.9 239.4 452.9 c 0
 226.1 445.2 212.1 440.3 196.7 438.2 c 0
 192.5 437.5 188.3 437.5 184.1 437.5 c 0
 121.8 437.5 76.2998 492.1 76.2998 548.1 c 0
 76.2998 569.1 82.5996 590.8 96.5996 609.7 c 0
 104.3 619.5 114.1 629.3 126 636.3 c 0
 140 645.4 154.7 650.3 170.1 652.4 c 0
 175 653.1 179.2 653.1 184.1 653.1 c 0
 192.5 653.1 201.6 652.4 210 650.3 c 0
80.5 117.6 m 2
 83.2998 128.8 85.4004 143.5 95.2002 156.8 c 0
 112 181.3 136.5 184.8 157.5 184.8 c 0
 163.1 184.8 168.7 184.1 174.3 184.1 c 0
 179.9 184.1 186.9 184.8 193.9 184.8 c 0
 203.7 184.8 209.3 184.1 212.8 183.4 c 0
 221.9 182.7 234.5 183.4 245.7 177.8 c 0
 254.8 172.9 258.3 167.3 259 165.2 c 0
 260.4 162.4 262.5 159.6 263.9 149.8 c 0
 263.9 148.4 263.9 145.6 263.9 142.1 c 0
 263.9 137.2 263.9 137.9 263.9 135.1 c 0
 263.9 102.9 245.7 77.7002 233.8 53.9004 c 0
 221.9 29.4004 205.1 7.7002 191.8 -11.9004 c 2
 94.5 -159.6 l 2
 90.2998 -166.6 89.5996 -168 86.7998 -172.2 c 0
 81.2002 -179.9 75.5996 -182.7 74.2002 -183.4 c 0
 68.5996 -186.9 63 -187.6 58.0996 -187.6 c 0
 56.7002 -187.6 52.5 -187.6 51.7998 -187.6 c 2
 -6.2998 -187.6 l 1
 2.09961 -159.6 l 2
 24.5 -91 42 -18.9004 62.2998 52.5 c 2
 80.5 117.6 l 2
EndSplineSet
EndChar

StartChar: less
Encoding: 60 60 27
Width: 782
VWidth: 699
Flags: HW
LayerCount: 2
Fore
SplineSet
713.3 553.7 m 1
 710.5 518.7 l 1
 685.3 506.8 l 1
 655.9 493.5 l 1
 251.3 315.7 l 1
 320.6 283.5 l 1
 665 122.5 l 1
 690.9 110.6 l 2
 693.7 109.2 697.2 107.8 701.4 105 c 0
 703.5 103.6 707.7 99.4004 708.4 98 c 1
 709.1 97.2998 l 1
 709.1 96.5996 l 1
 709.8 95.9004 713.3 88.2002 713.3 85.4004 c 2
 714 84 714 81.2002 714 76.2998 c 0
 714 68.5996 713.3 64.4004 713.3 61.5996 c 2
 713.3 -34.2998 l 1
 683.9 -22.4004 l 2
 625.1 2.09961 568.4 32.2002 512.4 58.0996 c 2
 198.8 205.1 l 1
 112.7 246.4 l 2
 102.2 250.6 88.9004 253.4 78.4004 263.2 c 0
 77 264.6 74.9004 267.4 73.5 269.5 c 0
 70 275.1 69.2998 281.4 69.2998 286.3 c 0
 69.2998 287.7 69.2998 291.2 69.2998 292.6 c 2
 69.2998 323.4 l 2
 69.2998 326.9 68.5996 333.9 68.5996 340.9 c 0
 68.5996 341.6 68.5996 341.6 68.5996 342.3 c 0
 68.5996 347.9 68.5996 350.7 70 355.6 c 2
 70 357 71.4004 359.8 72.0996 361.2 c 1
 72.0996 361.9 l 1
 72.7998 362.6 l 2
 74.2002 364 81.9004 373.1 84.7002 374.5 c 0
 88.2002 376.6 93.0996 378 93.7998 378 c 1
 122.5 391.3 l 1
 629.3 616 l 2
 647.5 624.4 666.4 631.4 680.4 639.1 c 2
 710.5 656.6 l 1
 713.3 600.6 l 1
 713.3 553.7 l 1
EndSplineSet
EndChar

StartChar: equal
Encoding: 61 61 28
Width: 854
VWidth: 699
Flags: HMW
HStem: 141.4 116.9<101.5 804.3 101.5 804.3> 339.5 117.6
VStem: 101.5 702.8<141.4 258.3 141.4 258.3 141.4 457.8 141.4 457.8>
LayerCount: 2
Fore
SplineSet
101.5 258.3 m 1
 804.3 258.3 l 1
 804.3 141.4 l 1
 101.5 141.4 l 1
 101.5 258.3 l 1
101.5 457.8 m 1
 807.8 457.8 l 1
 807.8 339.5 l 1
 101.5 339.5 l 1
 101.5 457.8 l 1
EndSplineSet
EndChar

StartChar: greater
Encoding: 62 62 29
Width: 782
VWidth: 699
Flags: HW
LayerCount: 2
Fore
SplineSet
665 374.5 m 2
 673.4 370.3 682.5 366.8 691.6 362.6 c 0
 694.4 361.2 708.4 356.3 711.9 341.6 c 0
 713.3 337.4 714.7 329.7 714.7 318.5 c 0
 714.7 303.8 713.3 293.3 713.3 282.8 c 0
 713.3 282.1 714 276.5 714 272.3 c 0
 714 266.7 712.6 259.7 709.1 253.4 c 0
 699.3 238.7 674.1 233.1 667.1 229.6 c 2
 152.6 1.40039 l 2
 135.8 -6.2998 117.6 -16.0996 97.2998 -23.0996 c 2
 69.2998 -32.2002 l 1
 69.2998 60.9004 l 1
 71.4004 86.7998 l 1
 72.0996 98 l 1
 82.5996 103.6 l 1
 93.0996 109.2 l 1
 119 120.4 l 1
 529.2 301.7 l 1
 533.4 303.1 l 1
 117.6 497 l 1
 92.4004 508.9 l 1
 81.2002 515.2 l 1
 70.7002 520.8 l 1
 69.2998 556.5 l 1
 69.2998 652.4 l 1
 98.7002 640.5 l 2
 156.8 616.7 211.4 587.3 266.7 562.1 c 2
 665 374.5 l 2
EndSplineSet
EndChar

StartChar: question
Encoding: 63 63 30
Width: 465
VWidth: 699
Flags: HW
VStem: 38.5 366.1 122.5 212.1<24.5 50.05 22.75 62.3>
LayerCount: 2
Fore
SplineSet
107.1 775.6 m 0x80
 118.3 770.7 128.8 756.7 131.6 753.9 c 0
 144.2 743.4 154 738.5 170.8 735.7 c 0
 219.8 728 267.4 736.4 316.4 712.6 c 0
 374.5 684.6 405.3 618.8 405.3 524.3 c 0
 405.3 494.2 401.8 462.7 386.4 432.6 c 0
 358.4 380.8 320.6 354.9 288.4 309.4 c 0
 282.1 301 276.5 284.9 276.5 254.8 c 0
 276.5 252 276.5 250.6 276.5 249.2 c 0
 276.5 243.6 276.5 238 276.5 232.4 c 0
 276.5 228.9 277.2 219.8 277.2 213.5 c 0
 277.2 212.8 277.2 212.1 277.2 212.1 c 2
 277.2 205.8 277.2 199.5 275.1 191.8 c 0
 274.4 189.7 273 186.9 272.3 185.5 c 0
 271.6 184.1 268.8 177.8 259 170.1 c 0
 252.7 165.2 240.8 158.2 224.7 154 c 1
 226.8 154 229.6 154 231.7 154 c 0
 284.9 154 329 106.4 333.9 59.5 c 0
 333.9 56 334.6 51.7998 334.6 48.2998 c 0
 334.6 -2.7998 298.2 -52.5 242.9 -59.5 c 0
 238 -60.2002 233.1 -60.2002 228.2 -60.2002 c 0
 219.1 -60.2002 210 -59.5 200.2 -56.7002 c 0
 150.5 -42.7002 122.5 2.09961 122.5 46.9004 c 0x40
 122.5 77.7002 135.1 107.8 160.3 129.5 c 0
 175 142.1 191.8 148.4 207.9 151.2 c 1
 205.1 151.2 201.6 151.2 198.8 151.2 c 2
 198.8 151.2 197.4 151.2 196.7 151.2 c 1
 196.7 151.2 l 1
 196 151.2 l 1
 186.9 153.3 177.1 152.6 166.6 168 c 0
 158.2 181.3 158.2 198.1 158.2 204.4 c 2
 158.2 204.4 158.2 205.8 158.2 206.5 c 0
 158.9 234.5 161 280 182.7 317.8 c 0
 203.7 354.9 229.6 387.1 252.7 419.3 c 0
 268.1 440.3 277.9 452.9 282.8 465.5 c 1
 282.8 466.2 282.8 468.3 282.8 469 c 0
 282.8 471.1 282.1 476.7 282.1 480.2 c 0
 282.1 504 274.4 520.8 246.4 531.3 c 0
 218.4 541.1 175 538.3 143.5 541.8 c 0
 121.8 544.6 95.2002 548.1 74.9004 571.2 c 0
 46.2002 603.4 38.5 650.3 38.5 683.2 c 0
 38.5 694.4 39.9004 705.6 41.2998 716.1 c 0
 42.7002 729.4 44.0996 742 49 753.9 c 0
 51.7998 760.2 55.2998 765.1 59.5 768.6 c 1
 59.5 768.6 l 1
 60.2002 768.6 l 1
 62.2998 770 66.5 774.9 77.7002 777 c 0
 81.9004 778.4 85.4004 778.4 88.9004 778.4 c 2
 91 779.1 91.7002 779.1 92.4004 779.1 c 2
 93.0996 779.1 l 1
 98.7002 777.7 104.3 777 107.1 775.6 c 0x80
EndSplineSet
EndChar

StartChar: at
Encoding: 64 64 31
Width: 1055
VWidth: 699
Flags: HMW
HStem: -191.1 95.9<511 555.1> 33.6 92.4<769.3 770.7 769.3 784.7> 704.2 109.2<591.85 592.55 588 609.7>
VStem: 32.9 146.3<250.6 258.3 258.3 272.3 220.15 325.85> 926.1 102.2<351.05 361.9 340.2 397.6>
LayerCount: 2
Fore
SplineSet
518 -191.1 m 0
 424.9 -191.1 333.9 -160.3 256.2 -112 c 0
 200.9 -77.7002 144.2 -23.0996 100.1 49.7002 c 0
 55.2998 122.5 32.9004 207.9 32.9004 293.3 c 0
 32.9004 358.4 46.2002 423.5 73.5 483 c 0
 100.1 541.1 140.7 589.4 183.4 632.1 c 0
 235.9 684.6 296.1 732.9 365.4 764.4 c 0
 436.8 797.3 512.4 809.9 588 813.4 c 0
 597.1 813.4 606.2 814.1 614.6 814.1 c 0
 693 814.1 774.2 798.7 842.1 753.2 c 0
 893.9 718.2 931.7 669.9 961.1 618.1 c 0
 989.8 568.4 1010.1 514.5 1020.6 457.8 c 0
 1026.2 425.6 1028.3 393.4 1028.3 361.9 c 0
 1028.3 356.3 1028.3 351.4 1028.3 345.8 c 0
 1028.3 334.6 1028.3 322.7 1025.5 310.1 c 0
 1017.1 263.9 993.3 222.6 971.6 186.9 c 0
 954.8 158.9 936.6 128.8 911.4 102.9 c 0
 869.4 60.2002 816.2 33.5996 753.2 33.5996 c 0
 742 33.5996 730.8 35 719.6 36.4004 c 0
 707 37.7998 679.7 42 658 54.5996 c 0
 638.4 65.7998 624.4 81.2002 612.5 97.2998 c 1
 596.4 81.2002 576.8 69.2998 566.3 63.7002 c 0
 532.7 44.7998 493.5 33.5996 453.6 33.5996 c 0
 417.9 33.5996 381.5 42.7002 350.7 64.4004 c 0
 332.5 77.7002 310.8 97.2998 301 125.3 c 0
 291.2 154.7 291.2 186.2 291.2 213.5 c 2
 291.2 217 l 1
 291.2 220.5 l 2
 291.2 264.6 296.1 310.1 312.2 353.5 c 0
 322.7 382.2 338.1 407.4 353.5 431.2 c 0
 372.4 462 396.2 493.5 426.3 518 c 0
 459.2 544.6 510.3 570.5 566.3 570.5 c 0
 606.9 570.5 644 557.2 673.4 527.8 c 1
 673.4 530.6 674.1 533.4 674.8 536.9 c 2
 677.6 553.7 l 1
 819.7 553.7 l 1
 814.8 528.5 l 2
 796.6 435.4 772.1 343.7 750.4 252.7 c 2
 732.9 175.7 l 2
 730.8 168 725.9 155.4 725.2 149.1 c 1
 726.6 147.7 729.4 145.6 731.5 142.8 c 0
 741.3 131.6 753.9 126 769.3 126 c 2
 769.3 126 770 126 770.7 126 c 0
 801.5 126.7 831.6 153.3 858.2 189.7 c 0
 900.2 245.7 926.1 316.4 926.1 385.7 c 0
 926.1 409.5 923.3 433.3 917 456.4 c 0
 907.9 490.7 893.2 522.9 875 553 c 0
 826 629.3 740.6 685.3 651.7 700 c 0
 634.9 702.8 618.1 704.2 601.3 704.2 c 0
 582.4 704.2 562.8 702.8 543.2 701.4 c 0
 518 700 493.5 698.6 472.5 693.7 c 0
 422.8 681.8 375.9 648.2 334.6 611.8 c 0
 308 589.4 270.2 553 241.5 504.7 c 0
 214.2 459.2 200.9 407.4 191.1 352.8 c 0
 186.2 324.8 180.6 298.2 179.2 272.3 c 0
 179.2 266.7 179.2 261.1 179.2 255.5 c 0
 179.2 184.8 199.5 114.1 242.2 58.0996 c 0
 319.9 -43.4004 447.3 -95.2002 574.7 -95.2002 c 0
 609 -95.2002 644 -91.7002 676.9 -84 c 0
 713.3 -76.2998 748.3 -63.7002 782.6 -47.5996 c 0
 793.8 -42 806.4 -32.9004 822.5 -25.9004 c 2
 842.8 -16.0996 l 1
 875.7 -104.3 l 1
 856.8 -112 l 2
 818.3 -128.1 779.1 -147 736.4 -160.3 c 0
 664.3 -182 592.2 -191.1 518 -191.1 c 0
EndSplineSet
EndChar

StartChar: holam
Encoding: 257 1465 32
Width: 308
VWidth: 699
Flags: HW
VStem: 30.8 225.4<400.4 540.75> 143.5 115.5 186.9 67.9
LayerCount: 2
Fore
SplineSet
198.1 818.3 m 0x40
 200.2 818.3 201.6 818.3 203 818.3 c 0
 207.9 818.3 212.8 817.6 217.7 816.9 c 0
 245.7 810.6 259.7 786.1 259.7 762.3 c 0
 259.7 735.7 243.6 708.4 212.8 704.2 c 0
 209.3 703.5 206.5 703.5 203 703.5 c 0
 189.7 703.5 175.7 707.7 165.2 716.1 c 0
 151.2 727.3 143.5 745.5 143.5 763 c 0
 143.5 777.7 149.1 791.7 159.6 802.2 c 0
 170.1 812.7 183.4 816.2 198.1 818.3 c 0x40
182 -15.4004 m 1
 182 46.2002 186.9 109.2 186.9 171.5 c 0x20
 186.9 239.4 180.6 306.6 154.7 370.3 c 0
 140 407.4 114.8 438.2 83.2998 462.7 c 0
 65.7998 476.7 35.7002 485.1 31.5 509.6 c 0
 30.7998 513.8 30.7998 518.7 30.7998 523.6 c 0x80
 30.7998 557.9 47.5996 595.7 65.7998 623 c 0
 72.0996 633.5 79.7998 647.5 91.7002 653.1 c 0
 98.7002 657.3 107.1 658.7 116.2 658.7 c 0
 135.1 658.7 155.4 651 170.1 641.9 c 0
 219.8 612.5 242.2 553 250.6 498.4 c 0
 254.8 469.7 256.2 439.6 256.2 409.5 c 0
 256.2 391.3 255.5 373.1 254.8 354.9 c 0x20
 252 287 247.8 219.8 241.5 151.9 c 0
 237.3 113.4 234.5 74.9004 231.7 37.0996 c 0
 231 26.5996 230.3 15.4004 228.9 4.90039 c 0
 228.2 1.40039 229.6 -3.5 226.8 -6.2998 c 0
 217.7 -16.7998 194.6 -13.2998 182 -15.4004 c 1
EndSplineSet
EndChar

StartChar: enc-89
Encoding: 258 -1 33
Width: 0
VWidth: 699
Flags: HMW
HStem: 0.7 0.7
LayerCount: 2
Fore
SplineSet
2.09961 0.700195 m 1
 0.700195 2.09961 l 1
 2.09961 0.700195 l 1
EndSplineSet
EndChar

StartChar: enc-90
Encoding: 259 -1 34
Width: 0
VWidth: 699
Flags: HMW
HStem: 0.7 0.7
LayerCount: 2
Fore
SplineSet
2.09961 0.700195 m 1
 0.700195 2.09961 l 1
 2.09961 0.700195 l 1
EndSplineSet
EndChar

StartChar: bracketright
Encoding: 93 93 35
Width: 387
VWidth: 699
Flags: HW
HStem: -228.9 90.3<21 182 21 320.6 21 182> 613.9 88.9<21 182 21 320.6>
VStem: 21 299.6<-228.9 -138.6 -138.6 -138.6 613.9 702.8 -228.9 702.8> 182 138.6<-138.6 613.9 613.9 613.9>
LayerCount: 2
Fore
SplineSet
21 702.8 m 1xe0
 320.6 702.8 l 1
 320.6 -228.9 l 1xd0
 21 -228.9 l 1
 21 -138.6 l 1xe0
 182 -138.6 l 1
 182 613.9 l 1xd0
 21 613.9 l 1
 21 702.8 l 1xe0
EndSplineSet
EndChar

StartChar: backslash
Encoding: 92 92 36
Width: 385
VWidth: 699
Flags: HW
LayerCount: 2
Fore
SplineSet
96.5996 837.9 m 2
 98 837.9 l 2
 99.4004 837.9 105.7 837.2 108.5 836.5 c 0
 118.3 835.1 122.5 830.2 123.9 828.8 c 0
 133.7 819 133.7 806.4 135.1 802.9 c 2
 399 -21 l 1
 251.3 -21 l 1
 248.5 -2.7998 l 2
 245.7 18.2002 235.2 38.5 225.4 66.5 c 2
 4.2002 736.4 l 2
 -3.5 758.8 -14 784 -20.2998 811.3 c 2
 -26.5996 836.5 l 1
 80.5 836.5 l 2
 84 836.5 88.9004 837.9 96.5996 837.9 c 2
EndSplineSet
EndChar

StartChar: bracketleft
Encoding: 91 91 37
Width: 387
VWidth: 699
Flags: HW
HStem: -228.9 90.3<204.4 366.8 204.4 366.8> 613.9 91.7<204.4 366.8 204.4 204.4>
VStem: 64.4 140<-138.6 613.9 -138.6 705.6 -138.6 705.6> 64.4 302.4<-228.9 -138.6 613.9 705.6>
LayerCount: 2
Fore
SplineSet
64.4004 705.6 m 1xd0
 366.8 705.6 l 1
 366.8 613.9 l 1
 204.4 613.9 l 1
 204.4 -138.6 l 1xe0
 366.8 -138.6 l 1
 366.8 -228.9 l 1
 64.4004 -228.9 l 1
 64.4004 705.6 l 1xd0
EndSplineSet
EndChar

StartChar: circumflex
Encoding: 260 710 38
Width: 538
VWidth: 699
Flags: HW
LayerCount: 2
Fore
SplineSet
18.2002 297.5 m 1
 21.7002 311.5 30.7998 326.2 36.4004 339.5 c 2
 74.9004 422.8 l 1
 183.4 662.9 l 1
 221.9 747.6 l 2
 224.7 753.9 230.3 774.2 237.3 775.6 c 0
 242.9 777 249.2 777 255.5 777 c 0
 267.4 777 279.3 775.6 290.5 775.6 c 0
 293.3 775.6 296.8 776.3 300.3 776.3 c 0
 303.8 776.3 306.6 775.6 308 774.2 c 0
 316.4 765.8 321.3 746.9 326.2 735.7 c 2
 368.9 641.9 l 1
 472.5 412.3 l 1
 506.1 339.5 l 2
 511.7 326.2 520.8 311.5 524.3 297.5 c 1
 504.7 298.2 485.1 298.2 465.5 298.2 c 0
 462.7 298.2 457.1 297.5 452.2 297.5 c 0
 448.7 297.5 445.9 298.2 443.8 299.6 c 0
 437.5 303.8 433.3 320.6 430.5 327.6 c 2
 398.3 399.7 l 1
 312.2 592.9 l 1
 284.2 655.2 l 2
 280 665 274.4 674.1 272.3 684.6 c 1
 270.2 684.6 l 1
 268.1 674.1 262.5 665 258.3 655.2 c 2
 230.3 592.9 l 1
 144.2 399.7 l 1
 112 327.6 l 2
 109.2 320.6 105 303.8 98.7002 299.6 c 0
 96.5996 298.2 93.7998 297.5 90.2998 297.5 c 0
 85.4004 297.5 79.7998 298.2 77 298.2 c 0
 57.4004 298.2 37.7998 298.2 18.2002 297.5 c 1
EndSplineSet
EndChar

StartChar: hyphen
Encoding: 45 45 39
Width: 501
VWidth: 699
Flags: HMW
HStem: 209.3 196.7<109.2 343.7 7 445.9 109.2 109.2>
LayerCount: 2
Fore
SplineSet
343.7 406 m 1
 380.8 404.6 l 1
 391.3 380.8 l 1
 391.3 380.8 l 1
 401.1 349.3 l 1
 445.9 209.3 l 1
 109.2 209.3 l 1
 72.0996 210.7 l 1
 66.5 223.3 l 1
 61.5996 235.2 l 1
 52.5 264.6 l 1
 7 406 l 1
 343.7 406 l 1
EndSplineSet
EndChar

StartChar: afii57664
Encoding: 224 1488 40
Width: 625
VWidth: 699
Flags: HMW
VStem: 62.3 123.9<248.5 367.85 262.5 367.85> 484.4 99.4
LayerCount: 2
Fore
SplineSet
163.1 800.8 m 0
 170.8 813.4 183.4 842.8 205.8 860.3 c 0
 231 879.9 269.5 888.3 302.4 888.3 c 0
 343.7 888.3 366.8 875 371.7 871.5 c 0
 377.3 868 388.5 861.7 396.9 852.6 c 0
 401.1 848.4 404.6 842.8 406.7 837.2 c 0
 408.1 833.7 408.8 830.2 409.5 828.1 c 0
 410.2 823.9 410.9 819.7 410.9 815.5 c 0
 410.9 768.6 368.9 739.9 343 725.2 c 0
 310.1 707 275.1 691.6 248.5 672.7 c 0
 238.7 665 229.6 656.6 222.6 647.5 c 1
 235.2 648.2 247.1 648.9 259 650.3 c 0
 281.4 652.4 305.2 653.8 329.7 653.8 c 0
 363.3 653.8 417.9 651.7 465.5 629.3 c 0
 498.4 614.6 547.4 576.1 571.9 468.3 c 0
 580.3 431.2 584.5 392.7 584.5 353.5 c 0
 584.5 266 563.5 152.6 490.7 65.7998 c 0
 470.4 42 434 10.5 386.4 5.59961 c 0
 382.9 4.90039 379.4 4.90039 375.9 4.90039 c 0
 358.4 4.90039 330.4 8.40039 312.2 23.7998 c 0
 311.5 24.5 307.3 28 302.4 35.7002 c 0
 295.4 48.2998 294.7 63 294.7 69.2998 c 0
 294.7 73.5 294.7 81.9004 296.8 88.9004 c 1
 297.5 89.5996 l 1
 297.5 90.2998 l 1
 302.4 99.4004 303.8 106.4 320.6 115.5 c 2
 329 119.7 l 2
 342.3 126.7 354.2 134.4 366.8 142.1 c 0
 403.2 165.9 434 194.6 455 228.9 c 0
 474.6 259.7 484.4 294.7 484.4 329 c 0
 484.4 340.2 483.7 351.4 481.6 361.9 c 0
 473.9 402.5 452.2 419.3 442.4 424.9 c 0
 413.7 442.4 380.8 445.2 343 445.2 c 0
 333.2 445.2 323.4 444.5 313.6 444.5 c 0
 290.5 444.5 268.8 444.5 247.8 443.1 c 0
 246.4 443.1 242.9 443.1 241.5 443.1 c 0
 240.1 443.1 235.9 443.1 233.8 443.1 c 1
 233.8 443.1 l 1
 228.9 438.2 226.1 431.9 219.1 424.2 c 0
 192.5 394.8 187.6 380.8 186.2 369.6 c 2
 186.2 369.6 186.2 368.2 186.2 367.5 c 0
 186.2 359.1 189 350 193.2 333.9 c 0
 209.3 276.5 227.5 218.4 238 158.2 c 0
 240.8 142.1 245 121.1 245 99.4004 c 0
 245 89.5996 244.3 79.0996 240.8 69.2998 c 0
 234.5 51.7998 215.6 32.9004 212.8 29.4004 c 0
 203.7 18.9004 193.2 8.40039 179.9 -1.40039 c 0
 172.2 -7 163.1 -13.2998 151.9 -18.2002 c 0
 144.2 -21.7002 127.4 -29.4004 111.3 -29.4004 c 0
 110.6 -29.4004 109.9 -29.4004 109.9 -29.4004 c 2
 102.2 -29.4004 100.1 -28.7002 94.5 -27.2998 c 0
 91 -25.9004 87.5 -24.5 84.7002 -21.7002 c 2
 81.9004 -19.5996 78.4004 -17.5 73.5 -8.40039 c 0
 67.2002 4.2002 65.7998 20.2998 65.7998 27.2998 c 0
 65.7998 54.5996 64.4004 83.2998 64.4004 112.7 c 0
 64.4004 157.5 63 203 62.2998 248.5 c 0
 62.2998 254.1 62.2998 259.7 62.2998 265.3 c 0
 62.2998 306.6 64.4004 347.9 77.7002 389.9 c 0
 84 412.3 93.7998 433.3 106.4 452.2 c 1
 92.4004 455 72.0996 460.6 58.0996 472.5 c 0
 45.5 485.1 41.2998 501.2 38.5 513.8 c 0
 34.2998 529.9 32.2002 546 32.2002 562.8 c 0
 32.2002 574.7 33.5996 586.6 35.7002 598.5 c 0
 37.7998 611.1 39.2002 618.1 43.4004 626.5 c 0
 46.2002 632.1 49.7002 637.7 56.7002 642.6 c 0
 63.7002 646.8 64.4004 647.5 70 648.9 c 2
 72.7998 650.3 81.9004 653.8 100.1 653.8 c 0
 102.9 653.8 105.7 653.8 108.5 653.1 c 1
 111.3 685.3 123.2 736.4 163.1 800.8 c 0
EndSplineSet
EndChar

StartChar: afii57665
Encoding: 225 1489 41
Width: 549
VWidth: 699
Flags: HMW
HStem: -27.3 14.7G<87.15 101.15>
VStem: 388.5 120.4
LayerCount: 2
Fore
SplineSet
320.6 455.7 m 1
 310.1 456.4 299.6 457.1 289.1 457.1 c 0
 277.2 457.1 265.3 456.4 253.4 455.7 c 0
 241.5 454.3 228.2 450.8 210.7 450.1 c 0
 209.3 450.1 205.8 450.1 204.4 450.1 c 0
 184.8 450.1 167.3 452.9 151.9 454.3 c 0
 131.6 456.4 115.5 454.3 99.4004 460.6 c 2
 98.7002 460.6 97.2998 461.3 94.5 462.7 c 1
 93.7998 463.4 93.0996 463.4 90.2998 465.5 c 0
 88.9004 466.2 88.2002 466.9 85.4004 469 c 0
 57.4004 490.7 51.7998 522.9 51.7998 550.9 c 0
 51.7998 578.9 57.4004 606.9 58.0996 625.8 c 0
 58.7998 644 57.4004 663.6 65.7998 680.4 c 0
 67.9004 685.3 71.4004 690.2 75.5996 694.4 c 1
 75.5996 694.4 l 1
 76.2998 695.1 l 1
 83.2998 699.3 86.0996 704.2 102.9 705.6 c 0
 105.7 705.6 108.5 706.3 112.7 706.3 c 0
 123.2 706.3 133.7 704.9 138.6 704.9 c 2
 162.4 704.9 l 1
 163.1 685.3 l 2
 163.8 665 184.1 651 212.8 648.2 c 0
 227.5 646.8 242.9 646.8 258.3 646.8 c 0
 266.7 646.8 275.1 646.8 283.5 646.8 c 0
 289.1 646.8 295.4 646.8 301.7 646.8 c 0
 359.8 645.4 413.7 644.7 462.7 644.7 c 2
 485.1 644.7 l 1
 483.7 623 l 2
 480.2 585.2 469 546 455 511.7 c 0
 450.1 499.8 447.3 486.5 441.7 472.5 c 0
 436.8 459.9 435.4 458.5 435.4 456.4 c 0
 436.1 451.5 445.2 440.3 450.8 429.1 c 0
 464.1 403.2 478.8 376.6 491.4 347.9 c 0
 503.3 321.3 509.6 291.2 509.6 261.1 c 0
 509.6 242.9 506.8 224.7 501.9 207.2 c 0
 490 166.6 461.3 129.5 448 112.7 c 0
 385 33.5996 265.3 -8.40039 152.6 -21 c 0
 134.4 -23.0996 111.3 -27.2998 91 -27.2998 c 0
 83.2998 -27.2998 76.2998 -26.5996 68.5996 -25.2002 c 0
 60.9004 -23.7998 51.7998 -21.7002 43.4004 -15.4004 c 0
 37.7998 -11.9004 32.2002 -5.59961 30.0996 2.7998 c 0
 25.2002 19.5996 24.5 37.7998 24.5 46.2002 c 0
 24.5 55.2998 25.2002 63.7002 25.9004 72.0996 c 0
 30.0996 105 31.5 145.6 61.5996 167.3 c 1
 62.2998 168 l 1
 62.2998 168 l 1
 63.7002 168.7 72.7998 172.9 75.5996 173.6 c 0
 82.5996 175 88.9004 174.3 92.4004 174.3 c 0
 101.5 175 116.9 175 126.7 175.7 c 0
 137.9 176.4 148.4 177.1 158.9 177.1 c 0
 173.6 177.1 187.6 176.4 200.9 176.4 c 0
 246.4 176.4 293.3 177.1 334.6 185.5 c 0
 360.5 191.1 376.6 194.6 385 200.2 c 2
 385.7 200.2 386.4 200.9 386.4 201.6 c 1
 389.2 204.4 388.5 206.5 388.5 207.2 c 0
 388.5 212.8 383.6 220.5 381.5 224 c 0
 365.4 245.7 338.8 263.9 310.1 283.5 c 0
 301.7 289.1 289.8 294.7 281.4 302.4 c 0
 276.5 306.6 273 310.8 270.9 315 c 0
 270.2 317.1 269.5 322.7 269.5 325.5 c 0
 269.5 331.1 270.9 336 271.6 338.1 c 0
 273 345.8 275.8 362.6 283.5 378 c 0
 296.1 404.6 310.8 430.5 320.6 455.7 c 1
431.9 452.2 m 1
 431.9 452.2 432.6 452.9 433.3 453.6 c 1
 428.4 453.6 l 1
 431.9 452.2 l 1
EndSplineSet
EndChar

StartChar: afii57666
Encoding: 226 1490 42
Width: 510
VWidth: 699
Flags: HMW
HStem: 105 132.3<184.1 328.3>
VStem: 345.1 99.4<47.95 53.2 53.2 75.6 75.6 78.4>
LayerCount: 2
Fore
SplineSet
198.1 237.3 m 0
 251.3 237.3 305.9 215.6 346.5 196.7 c 1
 345.8 210.7 342.3 231 340.9 244.3 c 0
 332.5 320.6 317.8 396.9 264.6 442.4 c 0
 254.1 452.2 230.3 471.8 202.3 482.3 c 0
 180.6 490.7 153.3 496.3 135.8 516.6 c 0
 135.1 517.3 135.1 517.3 132.3 520.1 c 1
 131.6 521.5 132.3 520.8 129.5 525 c 1
 129.5 525 l 1
 129.5 525 129.5 525 129.5 525.7 c 1
 128.8 526.4 128.1 527.8 127.4 529.9 c 0
 126.7 531.3 123.9 535.5 123.2 544.6 c 0
 123.2 545.3 123.2 548.1 123.2 548.8 c 0
 123.2 558.6 125.3 567.7 126 572.6 c 0
 131.6 607.6 147.7 641.2 175.7 669.2 c 0
 184.8 679 191.8 686 201.6 692.3 c 0
 207.9 697.2 217 702.1 228.9 702.8 c 0
 233.1 703.5 237.3 703.5 241.5 703.5 c 0
 301.7 703.5 353.5 666.4 391.3 627.9 c 0
 436.1 581 440.3 506.1 441.7 454.3 c 0
 444.5 353.5 444.5 253.4 444.5 153.3 c 2
 444.5 53.2002 l 2
 444.5 42.7002 443.8 30.7998 437.5 17.5 c 0
 434.7 11.2002 430.5 3.5 422.8 -2.09961 c 0
 415.8 -6.2998 408.1 -7 403.2 -7 c 0
 402.5 -7 399 -7 397.6 -7 c 2
 345.1 -7 l 1
 345.1 75.5996 l 2
 345.1 81.2002 346.5 90.2998 346.5 94.5 c 0
 346.5 97.2998 345.8 98 345.8 98.7002 c 1
 345.8 98.7002 l 1
 345.8 99.4004 l 1
 345.1 100.8 344.4 102.9 336.7 104.3 c 0
 333.9 105 330.4 105 326.2 105 c 0
 311.5 105 301 100.8 297.5 98.7002 c 0
 265.3 74.9004 253.4 23.7998 203 -0.700195 c 0
 180.6 -11.9004 154 -15.4004 129.5 -15.4004 c 0
 98 -15.4004 70 -7.7002 46.9004 4.2002 c 0
 28 14.7002 2.7998 30.7998 -2.7998 62.2998 c 2
 -5.59961 79.7998 l 1
 11.9004 85.4004 l 2
 30.0996 91.7002 44.7998 103.6 51.7998 119.7 c 0
 59.5 137.9 59.5 166.6 80.5 190.4 c 0
 90.2998 200.9 102.2 209.3 114.8 216.3 c 0
 141.4 231.7 170.1 237.3 198.1 237.3 c 0
EndSplineSet
EndChar

StartChar: afii57667
Encoding: 227 1491 43
Width: 585
VWidth: 699
Flags: HW
LayerCount: 2
Fore
SplineSet
44.7998 679.7 m 2
 46.9004 694.4 l 1
 127.4 694.4 l 1
 131.6 683.9 l 1
 133.7 674.8 142.8 658.7 156.8 654.5 c 0
 160.3 653.8 171.5 651 193.9 651 c 2
 194.6 651 l 2
 209.3 651 226.1 652.4 241.5 652.4 c 2
 506.1 652.4 l 2
 509.6 652.4 512.4 652.4 516.6 652.4 c 0
 530.6 652.4 546 648.9 553.7 631.4 c 0
 560 616.7 562.8 602 562.8 586.6 c 0
 562.8 553.7 551.6 524.3 536.9 504 c 0
 522.9 485.8 517.3 486.5 513.1 481.6 c 1
 511.7 480.9 511 480.2 511 479.5 c 1
 510.3 478.1 510.3 475.3 510.3 471.8 c 0
 510.3 462 513.1 445.9 513.1 434.7 c 0
 513.1 434 512.4 432.6 512.4 431.9 c 0
 511.7 404.6 506.8 376.6 502.6 351.4 c 0
 487.9 268.8 457.1 191.1 438.9 112.7 c 0
 431.9 84 422.1 55.2998 411.6 28.7002 c 0
 408.8 21 404.6 1.40039 390.6 -11.9004 c 1
 390.6 -11.9004 l 1
 390.6 -11.9004 l 1
 387.1 -14.7002 383.6 -18.9004 371 -23.0996 c 0
 360.5 -26.5996 350 -28.7002 340.2 -28.7002 c 2
 339.5 -28.7002 l 2
 337.4 -28.7002 331.8 -28 329.7 -28 c 0
 329 -28 326.2 -27.2998 325.5 -27.2998 c 0
 324.1 -27.2998 321.3 -26.5996 320.6 -26.5996 c 1
 319.2 -25.9004 316.4 -25.2002 315.7 -25.2002 c 1
 300.3 -19.5996 287 -8.40039 281.4 -4.2002 c 0
 247.1 18.9004 210 47.5996 210 84 c 2
 210 85.4004 l 2
 211.4 133 243.6 177.8 261.8 205.8 c 2
 364.7 368.2 l 2
 378 390.6 404.6 420 404.6 442.4 c 0
 404.6 443.8 404.6 444.5 404.6 445.9 c 1
 403.9 445.9 402.5 445.9 401.8 445.9 c 0
 387.1 448 371 448.7 356.3 448.7 c 0
 348.6 448.7 340.9 448.7 333.9 448 c 0
 324.1 446.6 316.4 446.6 308.7 446.6 c 2
 305.9 446.6 l 2
 300.3 446.6 294.7 446.6 288.4 445.9 c 0
 249.2 443.8 210 442.4 171.5 441 c 0
 163.8 440.3 156.1 440.3 147.7 440.3 c 0
 120.4 440.3 87.5 441.7 61.5996 459.9 c 0
 31.5 480.2 30.7998 522.9 30.0996 534.8 c 0
 30.0996 539.7 30.0996 544.6 30.0996 549.5 c 0
 30.0996 595 39.2002 637.7 44.7998 679.7 c 2
EndSplineSet
EndChar

StartChar: afii57668
Encoding: 228 1492 44
Width: 664
VWidth: 699
Flags: HMW
HStem: 443.1 207.2<156.45 259>
VStem: 523.6 98<317.8 328.3>
LayerCount: 2
Fore
SplineSet
74.9004 703.5 m 0
 80.5 707.7 87.5 709.1 93.0996 709.1 c 0
 94.5 709.1 98 708.4 98.7002 708.4 c 0
 101.5 708.4 105 709.1 108.5 709.1 c 0
 109.2 709.1 109.9 709.1 110.6 709.1 c 0
 122.5 708.4 129.5 707.7 139.3 702.1 c 0
 140.7 701.4 144.2 700 145.6 698.6 c 0
 148.4 695.1 153.3 689.5 154.7 687.4 c 0
 158.2 679.7 158.2 675.5 158.9 674.1 c 0
 163.8 667.1 175 654.5 202.3 651.7 c 0
 214.9 651 227.5 650.3 240.8 650.3 c 0
 277.2 650.3 316.4 653.8 356.3 653.8 c 0
 412.3 653.8 471.8 647.5 523.6 611.1 c 0
 563.5 582.4 581.7 536.2 592.9 505.4 c 0
 613.2 450.1 621.6 391.3 621.6 333.2 c 0
 621.6 296.1 618.1 259.7 612.5 224 c 0
 608.3 196 602 168 594.3 140.7 c 0
 590.8 128.8 587.3 114.8 576.8 102.9 c 0
 576.1 102.2 574.7 101.5 573.3 100.1 c 0
 572.6 99.4004 571.9 98.7002 569.8 96.5996 c 1
 568.4 95.9004 568.4 95.2002 565.6 93.7998 c 2
 564.9 93.0996 564.2 92.4004 561.4 91 c 0
 553.7 86.7998 543.9 84 532.7 84 c 0
 513.1 84 485.1 91 469.7 109.2 c 0
 467.6 111.3 461.3 117.6 457.8 131.6 c 0
 457.1 135.8 456.4 140.7 456.4 144.9 c 0
 456.4 150.5 457.1 156.1 458.5 161.7 c 0
 464.8 185.5 483 207.2 494.9 225.4 c 0
 506.8 244.3 515.2 264.6 520.1 287 c 0
 522.2 298.9 523.6 311.5 523.6 324.1 c 0
 523.6 332.5 523.6 340.2 522.2 347.9 c 0
 520.1 359.1 517.3 369.6 511.7 378.7 c 0
 480.2 436.1 404.6 445.2 319.9 445.2 c 0
 299.6 445.2 280.7 444.5 261.8 444.5 c 0
 241.5 444.5 220.5 443.8 198.8 443.8 c 0
 189.7 443.8 179.2 443.1 168.7 443.1 c 0
 144.2 443.1 117.6 444.5 93.7998 457.1 c 0
 59.5 474.6 51.0996 502.6 47.5996 535.5 c 0
 46.2002 546 46.2002 556.5 46.2002 567 c 0
 46.2002 591.5 49 616 53.2002 639.1 c 0
 56 652.4 58.7998 665.7 62.2998 679 c 0
 63.7002 684.6 64.4004 686.7 65.0996 688.8 c 0
 67.9004 698.6 73.5 702.8 74.9004 703.5 c 0
148.4 377.3 m 2
 152.6 329.7 172.2 280 207.9 250.6 c 0
 221.2 239.4 241.5 230.3 261.8 220.5 c 0
 289.8 207.9 341.6 205.8 370.3 175 c 0
 377.3 167.3 376.6 167.3 380.1 161 c 0
 380.8 159.6 381.5 157.5 381.5 156.8 c 2
 386.4 144.2 386.4 131.6 387.1 125.3 c 0
 388.5 110.6 389.2 95.2002 389.2 79.0996 c 0
 389.2 62.2998 388.5 44.7998 384.3 28 c 0
 382.2 21 379.4 4.90039 369.6 -8.40039 c 0
 366.1 -14 361.9 -17.5 357.7 -20.2998 c 1
 357 -21 l 1
 357 -21 l 1
 352.1 -22.4004 349.3 -25.9004 338.1 -27.2998 c 0
 336.7 -27.2998 333.9 -28 333.2 -28 c 0
 332.5 -28 328.3 -28 326.9 -28 c 0
 320.6 -28.7002 315 -29.4004 308.7 -29.4004 c 0
 289.8 -29.4004 270.9 -25.9004 253.4 -20.2998 c 0
 219.8 -9.09961 184.1 7.7002 156.1 30.7998 c 0
 133 49.7002 72.0996 112.7 59.5 245.7 c 0
 58.0996 260.4 57.4004 275.1 57.4004 289.8 c 0
 57.4004 309.4 58.7998 329 60.9004 347.9 c 0
 62.2998 356.3 61.5996 366.8 65.0996 376.6 c 0
 66.5 381.5 69.2998 387.1 74.9004 391.3 c 0
 77.7002 393.4 81.9004 396.9 93.0996 396.9 c 0
 94.5 396.9 97.2998 396.9 98.7002 396.9 c 2
 146.3 396.9 l 1
 148.4 377.3 l 2
EndSplineSet
EndChar

StartChar: afii57669
Encoding: 229 1493 45
Width: 392
VWidth: 699
Flags: HMW
VStem: 22.4 309.4<432.25 537.6 432.25 548.8>
LayerCount: 2
Fore
SplineSet
218.4 192.5 m 0
 222.6 254.8 209.3 315 175.7 371 c 0
 155.4 406.7 119 436.8 84.7002 461.3 c 0
 63 476.7 44.0996 480.2 30.0996 502.6 c 0
 25.9004 509.6 23.0996 518.7 22.4004 527.8 c 0
 22.4004 531.3 22.4004 534.1 22.4004 537.6 c 0
 22.4004 560 30.0996 598.5 63 650.3 c 0
 72.0996 663.6 86.0996 683.9 115.5 689.5 c 0
 122.5 690.9 129.5 690.9 135.8 690.9 c 0
 149.8 690.9 168 691.6 205.1 678.3 c 0
 254.8 660.8 284.9 629.3 301.7 599.9 c 0
 313.6 579.6 318.5 556.5 322 538.3 c 0
 329 504.7 331.8 471.1 331.8 437.5 c 0
 331.8 427 331.1 417.2 331.1 407.4 c 0
 326.9 318.5 328.3 227.5 319.2 136.5 c 0
 316.4 106.4 315.7 75.5996 311.5 43.4004 c 0
 310.1 32.9004 310.1 23.0996 307.3 13.2998 c 0
 306.6 11.9004 305.9 9.7998 305.2 9.09961 c 1
 305.2 8.40039 303.8 5.59961 303.1 3.5 c 1
 301 0.700195 299.6 -0.700195 298.2 -1.40039 c 2
 294 -4.90039 289.8 -9.7998 274.4 -14 c 0
 263.2 -16.7998 251.3 -16.7998 245 -16.7998 c 1
 245 -20.2998 245 -20.2998 245 -16.7998 c 1
 242.2 -16.7998 233.8 -16.7998 231 -16.7998 c 2
 201.6 -16.7998 l 1
 201.6 0.700195 l 2
 201.6 65.0996 214.2 129.5 218.4 192.5 c 0
EndSplineSet
EndChar

StartChar: afii57670
Encoding: 230 1494 46
Width: 354
VWidth: 699
Flags: HW
HStem: -26.6 14.7G<124.25 131.95>
VStem: 44.8 281.4<547.05 558.95> 91.7 167.3<185.5 241.85 208.95 230.3>
LayerCount: 2
Fore
SplineSet
262.5 693.7 m 1xc0
 270.9 691.6 278.6 692.3 287.7 679.7 c 0
 296.1 669.2 298.9 653.8 301.7 646.8 c 0
 310.1 620.9 326.2 585.2 326.2 550.9 c 0xc0
 326.2 543.2 325.5 535.5 323.4 527.8 c 0
 314.3 485.8 282.1 459.2 256.9 432.6 c 0
 238 412.3 231 408.1 227.5 398.3 c 0
 226.8 395.5 226.1 393.4 226.1 391.3 c 0
 226.1 380.1 231 375.9 243.6 350.7 c 1
 243.6 350 l 1
 243.6 350 l 1
 249.9 329.7 253.4 308.7 255.5 289.1 c 0
 257.6 270.2 259 251.3 259 232.4 c 0
 259 185.5 252.7 139.3 248.5 94.5 c 0
 245.7 70 241.5 47.5996 226.1 23.7998 c 0
 213.5 2.7998 200.2 -9.7998 177.1 -18.9004 c 1
 175.7 -18.9004 174.3 -19.5996 170.1 -21 c 0
 153.3 -25.9004 137.2 -26.5996 126.7 -26.5996 c 0
 121.8 -26.5996 117.6 -26.5996 114.1 -25.9004 c 0
 112.7 -25.9004 106.4 -25.9004 105 -25.2002 c 2
 93.0996 -23.0996 87.5 -15.4004 86.7998 -14 c 0
 82.5996 -8.40039 81.2002 -1.40039 81.2002 3.5 c 0
 81.2002 8.40039 81.9004 11.2002 82.5996 14 c 0
 83.2998 22.4004 83.2998 30.7998 84.7002 42 c 0
 89.5996 88.2002 91.7002 137.9 91.7002 185.5 c 0xa0
 91.7002 188.3 91.7002 190.4 91.7002 192.5 c 0
 91.7002 268.1 90.2998 342.3 75.5996 415.8 c 0
 70 445.2 60.9004 474.6 52.5 506.1 c 0
 49 520.8 44.7998 537.6 44.7998 555.8 c 0
 44.7998 562.1 45.5 568.4 46.2002 575.4 c 0
 52.5 605.5 74.2002 620.9 88.2002 632.8 c 0
 119 660.1 184.1 693.7 259 693.7 c 2
 259 693.7 261.1 693.7 261.8 693.7 c 2
 262.5 693.7 l 1
 262.5 693.7 l 1xc0
EndSplineSet
EndChar

StartChar: afii57671
Encoding: 231 1495 47
Width: 625
VWidth: 699
Flags: HMW
HStem: 669.9 0<168.7 168.7>
LayerCount: 2
Fore
SplineSet
168.7 669.9 m 1
 168.7 669.9 l 1
 168.7 669.9 l 1
 175 663.6 184.1 662.2 202.3 659.4 c 0
 224.7 657.3 247.1 656.6 270.9 656.6 c 0
 294.7 656.6 319.2 657.3 345.1 657.3 c 0
 365.4 657.3 386.4 656.6 407.4 653.8 c 0
 438.2 650.3 476 644 504 620.2 c 0
 542.5 587.3 560.7 532.7 571.9 493.5 c 0
 585.2 447.3 592.2 396.9 592.2 345.8 c 0
 592.2 267.4 575.4 197.4 549.5 142.8 c 0
 525 89.5996 490 36.4004 423.5 13.2998 c 0
 405.3 6.2998 386.4 3.5 368.9 2.09961 c 0
 366.8 2.09961 361.9 1.40039 356.3 1.40039 c 0
 350 1.40039 343 2.09961 336 5.59961 c 0
 331.1 8.40039 324.8 10.5 316.4 22.4004 c 0
 312.9 26.5996 311.5 30.0996 309.4 32.9004 c 0
 308.7 33.5996 305.9 37.7998 305.2 39.2002 c 0
 301.7 44.7998 298.2 52.5 298.2 61.5996 c 0
 298.2 63.7002 298.9 69.2998 298.9 70.7002 c 1
 308.7 116.9 361.9 130.9 390.6 146.3 c 0
 418.6 161.7 443.8 189.7 460.6 216.3 c 0
 481.6 250.6 491.4 289.8 491.4 329.7 c 0
 491.4 338.1 491.4 346.5 490 354.9 c 0
 487.2 381.5 481.6 401.8 464.1 417.9 c 0
 447.3 434 418.6 440.3 406 442.4 c 0
 384.3 446.6 361.9 447.3 338.1 447.3 c 0
 314.3 447.3 290.5 446.6 266 444.5 c 0
 261.8 444.5 257.6 444.5 253.4 444.5 c 0
 240.1 444.5 228.9 445.2 217.7 445.9 c 0
 217 445.9 215.6 445.9 214.9 445.9 c 1
 213.5 442.4 212.8 438.2 211.4 435.4 c 0
 203 416.5 196 398.3 196 382.9 c 0
 196 377.3 196.7 372.4 198.1 367.5 c 0
 207.9 336.7 210 305.9 216.3 280 c 0
 226.8 237.3 241.5 192.5 247.8 146.3 c 0
 249.9 133.7 254.1 115.5 254.1 96.5996 c 0
 254.1 88.2002 253.4 80.5 250.6 72.0996 c 0
 246.4 59.5 234.5 44.7998 232.4 42 c 0
 213.5 17.5 182.7 -12.5996 141.4 -26.5996 c 0
 135.8 -28 124.6 -32.9004 113.4 -32.9004 c 0
 112 -32.9004 107.8 -32.2002 105.7 -32.2002 c 1
 100.8 -30.7998 94.5 -30.0996 84 -20.2998 c 0
 77.7002 -15.4004 65.0996 0 61.5996 16.0996 c 2
 60.9004 16.7998 60.2002 22.4004 60.2002 24.5 c 0
 60.2002 30.0996 61.5996 35 61.5996 37.0996 c 0
 61.5996 49 61.5996 60.9004 62.2998 74.2002 c 0
 64.4004 101.5 63 130.9 65.0996 161 c 0
 68.5996 208.6 69.2998 256.9 73.5 305.2 c 0
 74.9004 329 74.2002 356.3 81.2002 384.3 c 0
 86.0996 406.7 95.2002 423.5 105 443.8 c 1
 90.2998 450.8 60.9004 483.7 60.9004 483.7 c 1
 55.2998 496.3 56.7002 508.2 55.2998 517.3 c 0
 54.5996 527.1 54.5996 536.9 54.5996 546 c 0
 54.5996 569.1 56.7002 591.5 58.7998 613.9 c 0
 60.2002 631.4 63.7002 648.9 65.7998 665 c 0
 66.5 672 66.5 672 66.5 674.1 c 1
 67.9004 680.4 71.4004 692.3 85.4004 696.5 c 0
 88.9004 697.9 93.7998 698.6 102.2 698.6 c 0
 109.2 698.6 119.7 697.9 123.2 697.9 c 0
 124.6 697.9 128.1 697.9 128.8 697.9 c 0
 131.6 697.9 139.3 697.9 147 694.4 c 0
 161 687.4 164.5 675.5 168.7 669.9 c 1
 168.7 669.9 l 1
 168.7 669.9 l 1
 168.7 669.9 l 1
 168.7 669.9 l 1
 168.7 669.9 l 1
 168.7 669.9 l 1
 168.7 669.9 l 1
168.7 669.9 m 1
 168.7 669.9 l 1
 168.7 669.9 l 1
 168.7 669.9 l 1
EndSplineSet
EndChar

StartChar: afii57672
Encoding: 232 1496 48
Width: 745
VWidth: 699
Flags: HMW
VStem: 201.6 104.3 613.2 97.3<320.6 365.05 300.65 368.55>
LayerCount: 2
Fore
SplineSet
304.5 520.8 m 0
 304.5 522.2 304.5 527.1 305.2 529.9 c 1
 305.9 531.3 306.6 535.5 311.5 542.5 c 1
 313.6 543.9 314.3 545.3 314.3 545.3 c 2
 324.1 557.2 334.6 564.9 340.9 571.9 c 2
 418.6 655.9 l 1
 452.2 691.6 l 2
 460.6 701.4 462 702.1 464.8 704.2 c 0
 470.4 707.7 475.3 709.8 480.2 710.5 c 2
 481.6 711.2 487.9 711.9 490 711.9 c 0
 500.5 711.9 511 709.1 515.2 708.4 c 0
 537.6 704.2 567.7 695.1 592.2 674.8 c 0
 629.3 644 649.6 603.4 668.5 569.1 c 0
 672.7 561.4 683.2 543.2 688.8 526.4 c 0
 700.7 490.7 704.2 452.9 707.7 419.3 c 0
 709.8 398.3 710.5 375.9 710.5 354.2 c 0
 710.5 247.1 683.2 130.9 597.1 51.7998 c 0
 579.6 35.7002 559.3 21 534.1 8.40039 c 0
 484.4 -15.4004 426.3 -23.7998 371.7 -23.7998 c 0
 355.6 -23.7998 340.2 -23.0996 324.8 -22.4004 c 0
 305.2 -20.2998 284.9 -17.5 266 -11.9004 c 2
 264.6 -11.9004 262.5 -11.2002 260.4 -10.5 c 1
 260.4 -12.5996 259.7 -15.4004 259.7 -18.2002 c 1
 256.2 -33.5996 253.4 -48.2998 248.5 -64.4004 c 1
 248.5 -65.7998 245.7 -74.2002 242.9 -80.5 c 0
 238.7 -88.9004 233.1 -93.7998 229.6 -96.5996 c 1
 227.5 -97.2998 219.8 -102.9 205.1 -102.9 c 0
 197.4 -102.9 197.4 -102.2 193.9 -102.2 c 0
 182 -101.5 163.1 -98.7002 150.5 -98 c 2
 120.4 -97.2998 l 1
 128.1 -74.2002 l 2
 151.9 3.5 163.8 86.0996 199.5 168 c 1
 200.9 180.6 201.6 193.9 201.6 206.5 c 0
 201.6 266 189.7 325.5 160.3 381.5 c 0
 148.4 404.6 135.1 429.1 115.5 446.6 c 1
 115.5 446.6 l 1
 115.5 447.3 l 1
 104.3 461.3 89.5996 475.3 74.9004 491.4 c 0
 65.7998 501.2 56 511.7 46.2002 521.5 c 0
 38.5 528.5 39.2002 527.1 37.0996 529.2 c 0
 33.5996 533.4 30.0996 538.3 28 545.3 c 0
 27.2998 548.8 26.5996 555.1 26.5996 557.2 c 0
 26.5996 562.1 27.2998 566.3 27.2998 568.4 c 0
 30.7998 603.4 49 630.7 64.4004 653.8 c 0
 70 662.9 76.2998 674.8 87.5 686 c 0
 110.6 707.7 152.6 707.7 160.3 707.7 c 0
 180.6 707.7 193.2 705.6 200.9 702.8 c 1
 204.4 702.1 210 700.7 217 693 c 0
 222.6 686 226.1 678.3 228.2 674.1 c 0
 238.7 655.2 248.5 635.6 255.5 613.9 c 0
 278.6 545.3 291.9 471.1 296.8 399 c 0
 301.7 329.7 301 261.1 305.2 193.2 c 1
 324.1 191.1 341.6 187.6 357 186.2 c 0
 374.5 184.1 392.7 183.4 410.2 183.4 c 0
 458.5 183.4 504 191.1 539.7 214.2 c 0
 588 245.7 613.2 296.1 613.2 345.1 c 0
 613.2 392 591.5 434.7 551.6 463.4 c 0
 538.3 471.1 523.6 477.4 508.9 481.6 c 0
 487.2 488.6 472.5 490 463.4 490 c 2
 462 490 l 2
 425.6 489.3 397.6 475.3 351.4 460.6 c 2
 331.8 453.6 l 1
 322 470.4 l 2
 317.1 476.7 304.5 500.5 304.5 520.8 c 0
EndSplineSet
EndChar

StartChar: afii57673
Encoding: 233 1497 49
Width: 354
VWidth: 699
Flags: HMW
VStem: 19.6 322<501.55 574.35>
LayerCount: 2
Fore
SplineSet
62.2998 680.4 m 1
 157.5 690.9 l 1
 150.5 680.4 l 1
 149.8 675.5 148.4 674.1 148.4 672.7 c 0
 151.2 658 153.3 648.9 156.8 644.7 c 0
 179.9 615.3 242.2 606.2 280 586.6 c 0
 307.3 572.6 333.2 552.3 339.5 524.3 c 0
 341.6 518 341.6 511.7 341.6 506.1 c 0
 341.6 497 340.9 488.6 340.2 481.6 c 0
 335.3 405.3 305.9 332.5 258.3 273.7 c 1
 258.3 273.7 l 1
 258.3 273.7 l 1
 244.3 260.4 229.6 248.5 212.8 236.6 c 1
 211.4 239.4 l 1
 210 239.4 l 2
 203 239.4 195.3 238.7 183.4 238.7 c 0
 177.8 238 172.9 238 168 238 c 0
 161.7 238 156.1 238 150.5 239.4 c 0
 135.8 242.2 137.9 241.5 133.7 243.6 c 1
 128.8 242.2 125.3 241.5 122.5 240.8 c 1
 121.1 240.8 l 1
 119.7 241.5 l 1
 112 247.1 110.6 247.8 108.5 249.9 c 1
 107.8 249.9 105 252 104.3 253.4 c 1
 104.3 253.4 l 1
 104.3 253.4 l 1
 103.6 254.1 101.5 256.9 101.5 257.6 c 1
 100.8 258.3 98.7002 261.8 98.7002 263.2 c 1
 98 266 97.2998 270.2 97.2998 271.6 c 2
 97.2998 272.3 l 1
 97.2998 273 l 1
 98 275.1 101.5 287 104.3 289.8 c 1
 104.3 289.8 l 1
 104.3 289.8 l 1
 108.5 294 112 295.4 114.1 296.8 c 0
 125.3 305.2 136.5 314.3 147 324.1 c 0
 156.8 331.8 201.6 370.3 201.6 401.1 c 0
 201.6 406.7 200.2 410.9 198.1 415.1 c 1
 196 415.8 189 420 165.2 425.6 c 0
 126 436.1 83.2998 442.4 55.2998 458.5 c 1
 55.2998 458.5 l 1
 55.2998 459.2 l 1
 30.0996 483.7 19.5996 518 19.5996 556.5 c 0
 19.5996 592.2 34.2998 628.6 41.2998 645.4 c 0
 45.5 656.6 52.5 672 55.2998 681.8 c 1
 56.7002 683.2 l 1
 62.2998 680.4 l 1
EndSplineSet
EndChar

StartChar: afii57674
Encoding: 234 1498 50
Width: 549
VWidth: 699
Flags: HMW
HStem: 447.3 207.2<173.6 365.4 328.65 365.4 328.65 366.1>
LayerCount: 2
Fore
SplineSet
366.1 447.3 m 1
 179.9 447.3 l 2
 167.3 447.3 151.9 446.6 136.5 446.6 c 0
 112 446.6 88.2002 448.7 66.5 463.4 c 0
 29.4004 487.9 28 521.5 28 556.5 c 2
 28 557.9 l 2
 28 583.8 28.7002 609 32.2002 634.9 c 0
 33.5996 645.4 35.7002 655.2 37.0996 665 c 0
 38.5 673.4 38.5 675.5 39.9004 678.3 c 0
 40.5996 680.4 44.0996 683.9 44.7998 685.3 c 1
 45.5 686 l 1
 46.2002 686 l 1
 47.5996 686.7 58.0996 691.6 61.5996 692.3 c 0
 65.0996 693 69.2998 693 70.7002 693 c 0
 82.5996 694.4 94.5 695.8 105.7 697.2 c 2
 129.5 701.4 l 1
 133 684.6 l 2
 138.6 658.7 183.4 648.9 238.7 648.9 c 1
 238.7 648.9 l 1
 270.9 648.9 310.8 654.5 346.5 654.5 c 0
 384.3 654.5 420 647.5 448 621.6 c 0
 453.6 616.7 462 607.6 471.8 590.8 c 0
 480.2 576.8 484.4 561.4 486.5 547.4 c 0
 488.6 536.2 490 524.3 490 513.1 c 0
 490 443.8 454.3 378 454.3 314.3 c 0
 454.3 312.2 454.3 310.1 454.3 307.3 c 0
 457.1 255.5 464.8 202.3 471.8 148.4 c 0
 478.1 94.5 484.4 40.5996 491.4 -13.2998 c 0
 496.3 -50.4004 500.5 -87.5 504 -124.6 c 0
 505.4 -139.3 508.2 -155.4 508.2 -172.2 c 0
 508.2 -173.6 508.2 -177.8 507.5 -179.2 c 2
 505.4 -227.5 484.4 -270.9 450.8 -303.8 c 0
 413.7 -340.9 380.8 -341.6 364.7 -341.6 c 0
 364 -341.6 362.6 -341.6 361.2 -341.6 c 0
 359.8 -341.6 359.1 -341.6 358.4 -340.9 c 1
 350.7 -339.5 341.6 -340.2 330.4 -328.3 c 0
 316.4 -313.6 312.9 -291.2 311.5 -278.6 c 0
 310.8 -270.9 310.1 -263.2 310.1 -256.2 c 0
 310.1 -242.2 311.5 -229.6 311.5 -218.4 c 0
 311.5 -187.6 310.1 -156.8 310.1 -126 c 0
 310.1 -44.0996 308.7 37.7998 308.7 119.7 c 2
 308.7 135.1 l 1
 308.7 135.8 l 1
 321.3 217 322 298.2 343 381.5 c 0
 348.6 405.3 357 426.3 366.1 447.3 c 1
EndSplineSet
EndChar

StartChar: afii57675
Encoding: 235 1499 51
Width: 549
VWidth: 699
Flags: HMW
VStem: 398.3 100.8<342.65 366.8>
LayerCount: 2
Fore
SplineSet
100.8 708.4 m 0
 107.8 708.4 119.7 703.5 123.2 700.7 c 1
 123.2 700.7 123.2 700.7 123.9 700.7 c 1
 132.3 691.6 130.2 685.3 130.9 681.8 c 0
 132.3 674.1 134.4 669.2 136.5 667.1 c 1
 140 661.5 152.6 654.5 174.3 650.3 c 0
 190.4 646.8 207.2 646.1 226.1 646.1 c 0
 240.1 646.1 254.8 646.8 270.2 646.8 c 0
 298.2 646.8 329 645.4 359.1 635.6 c 0
 378 629.3 411.6 613.9 439.6 580.3 c 0
 485.8 525 494.2 455 498.4 401.1 c 0
 499.1 389.9 499.1 378 499.1 366.8 c 0
 499.1 279.3 475.3 193.2 421.4 119.7 c 0
 420.7 119 420 114.1 415.1 107.8 c 0
 352.8 42 258.3 8.40039 180.6 -5.59961 c 0
 151.9 -11.2002 122.5 -14 95.2002 -15.4004 c 0
 87.5 -16.0996 81.9004 -16.7998 72.7998 -16.7998 c 0
 69.2998 -16.7998 65.7998 -16.7998 61.5996 -16.0996 c 1
 60.9004 -16.0996 l 1
 60.9004 -16.0996 l 1
 53.2002 -13.2998 45.5 -13.2998 37.0996 -0.700195 c 0
 28 12.5996 28 30.7998 27.2998 38.5 c 0
 26.5996 46.2002 23.0996 55.2998 23.0996 67.9004 c 2
 23.0996 68.5996 l 2
 23.0996 88.2002 27.2998 100.8 29.4004 119.7 c 0
 30.0996 133 32.2002 151.2 42.7002 165.9 c 0
 46.2002 170.1 49.7002 174.3 53.9004 177.8 c 0
 73.5 192.5 93.7998 190.4 121.1 191.8 c 0
 160.3 194.6 200.2 198.1 237.3 204.4 c 0
 316.4 216.3 355.6 246.4 373.1 266 c 0
 380.8 275.8 387.8 287 392 298.2 c 0
 394.8 305.9 395.5 312.9 397.6 329 c 0
 398.3 333.9 398.3 339.5 398.3 345.8 c 0
 398.3 387.8 380.8 427 340.2 440.3 c 0
 317.8 447.3 292.6 449.4 266 449.4 c 0
 234.5 449.4 201.6 446.6 167.3 446.6 c 0
 158.9 446.6 151.2 446.6 142.8 447.3 c 0
 124.6 448 74.9004 449.4 48.2998 471.1 c 0
 43.4004 474.6 25.9004 490 18.9004 523.6 c 0
 16.0996 536.2 15.4004 548.1 15.4004 560 c 0
 15.4004 586.6 20.2998 611.8 22.4004 634.9 c 0
 23.7998 646.8 25.2002 659.4 30.7998 675.5 c 0
 33.5996 684.6 34.2998 686 35.7002 688.8 c 1
 36.4004 689.5 38.5 693 39.9004 694.4 c 1
 40.5996 694.4 l 1
 41.2998 694.4 l 1
 42.7002 695.1 53.9004 702.1 57.4004 702.8 c 0
 60.9004 703.5 64.4004 703.5 65.0996 703.5 c 0
 74.9004 704.9 84.7002 706.3 94.5 708.4 c 1
 95.9004 708.4 99.4004 708.4 100.8 708.4 c 0
EndSplineSet
EndChar

StartChar: afii57676
Encoding: 236 1500 52
Width: 471
VWidth: 699
Flags: HMW
VStem: 318.5 102.9
LayerCount: 2
Fore
SplineSet
398.3 492.1 m 0
 415.8 451.5 418.6 410.2 420.7 370.3 c 0
 420.7 363.3 420.7 356.3 420.7 348.6 c 0
 420.7 242.9 385 135.8 307.3 54.5996 c 0
 294 41.2998 277.9 27.2998 257.6 15.4004 c 0
 238 3.5 206.5 -12.5996 151.2 -28 c 0
 137.2 -32.2002 105.7 -39.9004 77 -39.9004 c 0
 72.0996 -39.9004 66.5 -39.2002 61.5996 -39.2002 c 1
 60.2002 -38.5 52.5 -38.5 44.0996 -35 c 1
 43.4004 -35 l 1
 43.4004 -35 l 1
 28.7002 -25.9004 25.2002 -9.7998 23.0996 0 c 0
 22.4004 5.59961 21.7002 11.2002 21.7002 16.7998 c 0
 21.7002 42.7002 27.2998 67.9004 30.0996 89.5996 c 0
 32.2002 100.8 33.5996 126 43.4004 146.3 c 0
 44.7998 148.4 49 161.7 61.5996 172.2 c 0
 74.2002 182.7 91 185.5 98.7002 186.9 c 0
 123.9 191.1 149.1 195.3 172.9 200.2 c 0
 198.8 205.8 223.3 211.4 242.2 219.8 c 0
 287 239.4 312.2 275.1 317.8 308 c 0
 317.8 310.1 318.5 312.9 318.5 315 c 0
 318.5 322 317.1 329.7 316.4 333.2 c 0
 305.9 388.5 249.2 410.2 174.3 438.2 c 0
 154.7 445.9 134.4 453.6 114.8 462.7 c 1
 104.3 459.2 102.2 458.5 99.4004 457.8 c 1
 97.2998 456.4 l 1
 95.9004 457.8 l 2
 89.5996 463.4 85.4004 469 82.5996 474.6 c 0
 74.2002 494.2 71.4004 514.5 71.4004 531.3 c 0
 71.4004 550.2 74.9004 567.7 75.5996 581.7 c 0
 77.7002 627.9 76.2998 676.9 79.7998 725.9 c 0
 80.5 743.4 83.2998 760.2 83.2998 774.2 c 0
 83.2998 779.8 82.5996 784 81.2002 788.2 c 0
 77.7002 802.9 63 815.5 39.2002 831.6 c 1
 39.2002 831.6 l 1
 39.2002 832.3 l 1
 28.7002 842.1 12.5996 854.7 5.59961 872.2 c 1
 4.90039 872.2 l 1
 4.90039 872.9 l 1
 2.7998 879.9 2.09961 885.5 2.09961 891.8 c 2
 1.40039 895.3 1.40039 899.5 1.40039 903 c 0
 1.40039 926.1 9.09961 949.9 14.7002 968.1 c 0
 16.0996 971.6 17.5 981.4 24.5 988.4 c 1
 25.2002 988.4 l 1
 25.2002 988.4 l 1
 26.5996 989.1 29.4004 990.5 30.0996 991.2 c 0
 42 997.5 56.7002 1000.3 69.2998 1000.3 c 0
 99.4004 1000.3 140 980.7 157.5 974.4 c 0
 169.4 969.5 182.7 964.6 196 957.6 c 0
 200.9 955.5 227.5 945 238 931.7 c 0
 239.4 929.6 241.5 928.2 242.9 924 c 1
 242.9 923.3 242.9 921.2 242.9 921.2 c 1
 243.6 920.5 243.6 918.4 243.6 917.7 c 0
 243.6 901.6 239.4 884.1 238 877.1 c 0
 235.9 863.8 237.3 862.4 234.5 845.6 c 2
 205.8 648.9 l 1
 223.3 644.7 245 639.1 266.7 628.6 c 0
 340.2 595 378.7 536.9 398.3 492.1 c 0
EndSplineSet
EndChar

StartChar: afii57677
Encoding: 237 1501 53
Width: 664
VWidth: 699
Flags: HMW
HStem: -31.5 198.8<350.7 350.7 350.7 357.35>
LayerCount: 2
Fore
SplineSet
283.5 457.8 m 0
 266 457.8 248.5 454.3 233.8 446.6 c 0
 209.3 435.4 189.7 413.7 182.7 389.9 c 2
 171.5 327.6 l 1
 173.6 271.6 l 1
 201.6 226.1 l 1
 204.4 223.3 207.2 221.2 210 219.1 c 0
 217.7 212.8 226.1 205.8 233.8 198.1 c 0
 238 193.9 240.1 192.5 241.5 191.8 c 0
 242.9 191.1 245.7 189.7 250.6 188.3 c 0
 260.4 185.5 268.1 181.3 275.8 178.5 c 1
 277.9 177.1 280.7 176.4 282.8 175 c 1
 350.7 167.3 l 1
 394.1 165.2 l 1
 443.1 184.1 l 1
 494.2 214.2 l 1
 524.3 250.6 l 1
 540.4 300.3 l 1
 536.2 366.1 l 1
 518 406 l 1
 487.9 438.2 l 1
 448 446.6 l 1
 378 452.9 l 1
 317.8 452.9 l 1
 314.3 453.6 l 2
 304.5 456.4 294 457.8 283.5 457.8 c 0
166.6 698.6 m 1
 159.6 686 l 1
 162.4 668.5 190.4 663.6 206.5 662.2 c 0
 241.5 659.4 279.3 658 315.7 658 c 0
 326.2 658 l 0
 344.4 658 364 659.4 384.3 659.4 c 0
 391.3 659.4 398.3 659.4 406 658.7 c 0
 426.3 658 472.5 656.6 508.2 639.1 c 0
 540.4 623.7 560.7 599.2 576.1 575.4 c 0
 600.6 534.8 617.4 490 625.8 443.8 c 0
 631.4 412.3 634.2 380.8 634.2 348.6 c 0
 634.2 312.9 630.7 277.2 625.1 242.9 c 0
 611.1 163.1 578.9 73.5 497.7 16.7998 c 0
 449.4 -16.0996 387.8 -31.5 326.9 -31.5 c 0
 278.6 -31.5 231 -21 189 -0.700195 c 0
 150.5 18.2002 113.4 49 86.7998 93.0996 c 0
 53.9004 147.7 44.7998 208.6 42 267.4 c 0
 42 270.9 41.2998 274.4 41.2998 278.6 c 0
 41.2998 311.5 48.2998 364 74.2002 410.2 c 0
 84 426.3 95.9004 441 106.4 455 c 1
 104.3 455.7 102.2 456.4 100.1 457.8 c 0
 63 475.3 49 510.3 49 543.9 c 0
 49 550.2 49.7002 556.5 50.4004 562.8 c 0
 56 600.6 65.7998 637 70 672 c 1
 62.2998 677.6 l 1
 71.4004 688.8 l 1
 72.0996 699.3 l 1
 81.2002 700 l 1
 88.9004 709.1 l 1
 98.7002 701.4 l 1
 122.5 703.5 l 2
 128.8 704.2 132.3 704.9 135.1 704.9 c 2
 135.1 704.9 135.8 704.9 136.5 704.9 c 2
 159.6 706.3 l 1
 159.6 700.7 l 1
 166.6 698.6 l 1
EndSplineSet
EndChar

StartChar: afii57678
Encoding: 238 1502 54
Width: 745
VWidth: 699
Flags: HMW
VStem: 205.8 110.6<270.2 398.65>
LayerCount: 2
Fore
SplineSet
465.5 675.5 m 0
 568.4 675.5 637.7 606.9 665.7 538.3 c 0
 688.8 483 697.2 424.9 697.2 367.5 c 0
 697.2 334.6 694.4 301.7 690.2 270.2 c 0
 682.5 216.3 669.2 163.1 640.5 113.4 c 0
 615.3 69.2998 573.3 29.4004 516.6 2.7998 c 0
 476 -15.4004 450.8 -18.9004 434.7 -18.9004 c 0
 432.6 -18.9004 427 -18.2002 424.9 -18.2002 c 0
 406 -16.7998 394.8 -16.0996 382.2 -11.9004 c 2
 380.8 -11.9004 378.7 -11.2002 375.9 -9.7998 c 1
 375.2 -9.7998 373.1 -8.40039 370.3 -7.7002 c 1
 369.6 -7 366.8 -6.2998 364.7 -4.2002 c 0
 356.3 2.7998 355.6 2.7998 351.4 8.40039 c 0
 340.2 25.2002 340.2 46.2002 339.5 54.5996 c 0
 338.8 58.7998 337.4 63 337.4 69.2998 c 0
 337.4 72.7998 338.1 78.4004 340.2 83.2998 c 0
 340.9 86.0996 341.6 90.2998 347.9 97.2998 c 0
 348.6 98 350 99.4004 350.7 100.1 c 0
 352.8 102.2 354.2 103.6 355.6 104.3 c 2
 380.1 126.7 413 135.1 439.6 142.8 c 0
 480.2 154 510.3 163.1 534.8 180.6 c 0
 574 208.6 593.6 249.9 593.6 300.3 c 2
 593.6 304.5 l 2
 593.6 326.9 592.2 334.6 589.4 341.6 c 0
 585.9 354.2 576.1 373.8 554.4 397.6 c 0
 544.6 408.1 522.9 431.9 497 440.3 c 0
 474.6 448 450.8 450.8 427 450.8 c 0
 399.7 450.8 373.1 446.6 347.2 438.9 c 0
 336 435.4 325.5 431.9 315 427 c 1
 314.3 427 l 1
 315 422.1 316.4 415.1 316.4 410.2 c 0
 316.4 405.3 316.4 401.1 316.4 396.2 c 0
 316.4 375.2 316.4 354.2 315 332.5 c 0
 312.2 260.4 300.3 187.6 261.1 115.5 c 0
 242.9 80.5 226.8 39.9004 193.9 6.2998 c 0
 166.6 -20.2998 142.1 -28.7002 126.7 -31.5 c 0
 121.1 -32.2002 116.2 -32.2002 110.6 -32.2002 c 0
 104.3 -32.2002 93.0996 -32.2002 77.7002 -27.2998 c 0
 64.4004 -23.7998 49 -18.2002 37.0996 -4.90039 c 0
 34.2998 -1.40039 30.7998 2.09961 28.7002 6.2998 c 0
 23.7998 16.7998 24.5 28.7002 24.5 33.5996 c 0
 24.5 39.2002 24.5 39.2002 24.5 42.7002 c 0
 24.5 43.4004 24.5 44.7998 24.5 46.2002 c 2
 24.5 46.9004 l 2
 24.5 51.0996 24.5 55.2998 25.2002 60.9004 c 0
 25.2002 61.5996 25.9004 65.0996 25.9004 66.5 c 1
 26.5996 67.9004 28 71.4004 28 72.7998 c 1
 28.7002 73.5 30.0996 77.7002 31.5 79.0996 c 2
 43.4004 98.7002 62.2998 109.9 72.0996 119 c 0
 91 135.1 109.2 152.6 136.5 172.2 c 0
 166.6 191.8 205.8 233.8 205.8 306.6 c 0
 205.8 318.5 205.1 330.4 203 340.9 c 0
 196.7 380.1 171.5 416.5 126 445.2 c 0
 105 457.1 90.2998 470.4 74.9004 483.7 c 0
 63.7002 494.2 49.7002 508.2 45.5 527.8 c 1
 45.5 529.9 44.7998 534.8 44.7998 536.2 c 0
 44.7998 545.3 48.2998 555.1 49.7002 559.3 c 0
 56 583.1 66.5 604.8 81.2002 625.1 c 0
 85.4004 631.4 98.7002 651 119 662.2 c 1
 119 662.2 l 1
 119.7 662.2 l 1
 128.1 665.7 147 672 174.3 672 c 0
 206.5 672 224.7 662.9 235.9 653.8 c 0
 269.5 626.5 284.2 588 294.7 557.9 c 0
 296.1 552.3 298.2 547.4 299.6 541.8 c 1
 305.2 552.3 l 2
 324.1 581 344.4 610.4 370.3 638.4 c 0
 381.5 649.6 389.9 660.8 403.9 667.8 c 1
 404.6 667.8 406.7 669.2 409.5 669.9 c 0
 423.5 673.4 420 673.4 427.7 673.4 c 0
 429.1 673.4 431.2 674.1 432.6 674.1 c 0
 436.8 674.1 438.9 674.1 441 674.1 c 0
 449.4 674.8 457.8 675.5 465.5 675.5 c 0
EndSplineSet
EndChar

StartChar: afii57679
Encoding: 239 1503 55
Width: 350
VWidth: 699
Flags: HW
VStem: 39.9 256.9 112.7 133<176.05 236.25> 114.8 182<-286.3 -191.8 -286.3 -191.8 -276.85 -191.8>
LayerCount: 2
Fore
SplineSet
54.5996 498.4 m 1x40
 54.5996 499.1 l 1
 54.5996 499.1 l 1
 42.7002 523.6 42 546 40.5996 565.6 c 0
 40.5996 573.3 39.9004 581 39.9004 588.7 c 0x80
 39.9004 613.9 43.4004 639.1 49.7002 662.9 c 0
 52.5 674.1 56.7002 684.6 61.5996 695.1 c 1
 61.5996 695.8 63 699.3 65.0996 702.8 c 1
 65.0996 702.1 l 1
 65.7998 702.8 l 1
 69.2998 704.9 72.7998 706.3 74.9004 707 c 0
 81.9004 709.1 86.7998 709.1 91 709.1 c 2
 94.5 709.1 l 2
 95.2002 709.1 96.5996 709.1 97.2998 709.1 c 0
 107.8 709.8 119.7 711.9 131.6 711.9 c 2
 152.6 711.9 l 1
 152.6 711.9 l 1
 158.2 666.4 218.4 644 251.3 610.4 c 1
 261.8 603.4 280.7 590.8 285.6 573.3 c 0
 289.8 560 290.5 546 290.5 532.7 c 0
 290.5 501.9 285.6 471.1 280.7 444.5 c 0
 268.1 377.3 249.2 311.5 246.4 247.8 c 0
 245.7 242.9 245.7 238.7 245.7 233.8 c 0x40
 245.7 217.7 247.1 202.3 249.9 186.9 c 0
 252.7 169.4 256.9 159.6 258.3 141.4 c 0
 266 68.5996 275.8 -4.2002 284.2 -78.4004 c 0
 287.7 -112 294.7 -148.4 296.8 -185.5 c 0
 296.8 -186.9 296.8 -191.1 296.8 -192.5 c 0
 296.8 -235.2 269.5 -273.7 240.1 -299.6 c 0
 233.8 -304.5 219.1 -317.8 203.7 -324.8 c 0
 195.3 -328.3 180.6 -331.8 158.2 -331.8 c 0
 157.5 -331.8 156.1 -331.8 154.7 -331.8 c 2
 154 -331.8 l 2
 146.3 -331.1 143.5 -331.1 137.9 -330.4 c 1
 136.5 -329.7 133 -329.7 131.6 -329.7 c 1
 130.2 -329 l 1
 129.5 -329.7 l 1
 128.1 -328.3 124.6 -326.2 121.1 -320.6 c 0
 114.1 -309.4 114.8 -293.3 114.8 -286.3 c 1
 114.8 -286.3 l 1x20
 114.8 -281.4 114.8 -278.6 114.8 -275.1 c 0
 114.8 -232.4 113.4 -189 113.4 -145.6 c 2
 113.4 113.4 l 2
 113.4 137.9 112.7 163.1 112.7 189 c 0
 112.7 217 114.1 246.4 119.7 275.8 c 0
 130.2 332.5 158.2 376.6 177.1 425.6 c 1
 144.2 441.7 l 2
 116.9 452.9 74.9004 467.6 54.5996 498.4 c 1x40
EndSplineSet
EndChar

StartChar: afii57680
Encoding: 240 1504 56
Width: 431
VWidth: 699
Flags: HMW
VStem: 284.2 98
LayerCount: 2
Fore
SplineSet
277.2 629.3 m 0
 334.6 598.5 362.6 547.4 373.1 474.6 c 0
 378.7 438.2 381.5 401.1 381.5 363.3 c 0
 381.5 258.3 360.5 135.8 264.6 47.5996 c 0
 196.7 -13.2998 128.1 -28 93.7998 -32.9004 c 0
 85.4004 -34.2998 77 -37.7998 65.0996 -37.7998 c 0
 61.5996 -37.7998 61.5996 -37.7998 60.9004 -38.5 c 1
 60.2002 -38.5 l 1
 59.5 -38.5 l 1
 46.9004 -36.4004 30.7998 -35 22.4004 -18.2002 c 1
 21.7002 -18.2002 l 1
 21.7002 -18.2002 l 1
 18.9004 -10.5 18.2002 -2.09961 17.5 2.09961 c 0
 16.7998 6.2998 16.7998 10.5 16.7998 14.7002 c 0
 16.7998 43.4004 23.0996 69.2998 25.2002 92.4004 c 0
 26.5996 105.7 27.2998 137.9 39.2002 160.3 c 1
 39.2002 161 l 1
 39.9004 161 l 1
 42.7002 165.9 48.2998 177.8 65.0996 184.8 c 0
 69.2998 186.2 73.5 186.9 76.2998 187.6 c 0
 95.2002 192.5 116.2 198.8 138.6 203.7 c 0
 176.4 212.1 228.9 221.9 255.5 244.3 c 1
 265.3 256.2 270.9 271.6 276.5 288.4 c 0
 281.4 301.7 284.2 316.4 284.2 330.4 c 0
 284.2 349.3 279.3 373.8 260.4 393.4 c 0
 245 409.5 222.6 421.4 196.7 430.5 c 0
 165.2 441 130.9 450.1 98 463.4 c 1
 88.9004 462.7 82.5996 462 75.5996 461.3 c 1
 74.2002 460.6 l 1
 72.7998 462 l 2
 67.9004 466.9 64.4004 471.8 61.5996 476.7 c 0
 54.5996 491.4 53.2002 510.3 52.5 518 c 0
 51.7998 522.9 51.7998 527.1 51.7998 532 c 0
 51.7998 548.1 57.4004 574.7 90.2998 615.3 c 0
 98 624.4 103.6 634.2 117.6 641.2 c 1
 117.6 641.2 l 1
 117.6 641.2 l 1
 119 641.9 120.4 642.6 122.5 643.3 c 0
 149.1 652.4 182 651 200.2 651.7 c 0
 200.9 651.7 203.7 651.7 204.4 651.7 c 0
 230.3 651.7 258.3 639.8 277.2 629.3 c 0
EndSplineSet
EndChar

StartChar: afii57681
Encoding: 241 1505 57
Width: 664
VWidth: 699
Flags: HMW
HStem: -31.5 195.3<328.3 328.3 328.3 343.35>
VStem: 30.8 146.3<-53.2 -41.65 -58.8 -27.65>
LayerCount: 2
Fore
SplineSet
321.3 445.2 m 1
 237.3 443.1 l 1
 216.3 415.1 l 1
 198.1 386.4 l 1
 177.8 356.3 l 1
 168.7 334.6 l 1
 170.8 298.2 l 1
 185.5 258.3 l 1
 210.7 216.3 l 1
 233.8 195.3 l 1
 257.6 184.1 l 1
 277.9 172.9 l 1
 328.3 163.8 l 1
 372.4 161.7 l 1
 413.7 170.8 l 1
 452.2 187.6 l 1
 494.9 224 l 1
 515.2 269.5 l 1
 521.5 342.3 l 1
 517.3 380.8 l 1
 506.8 401.8 l 1
 484.4 424.2 l 1
 453.6 437.5 l 1
 396.2 447.3 l 1
 321.3 445.2 l 1
109.2 446.6 m 0
 112 449.4 114.1 451.5 115.5 453.6 c 1
 113.4 454.3 111.3 455 109.9 456.4 c 2
 86.7998 469 67.2002 483 61.5996 513.1 c 0
 59.5 522.9 58.7998 533.4 58.7998 543.2 c 0
 58.7998 577.5 67.2002 608.3 70.7002 637 c 2
 74.9004 666.4 l 2
 74.9004 667.8 74.9004 670.6 74.9004 672 c 0
 76.2998 681.8 81.2002 688.1 84 690.2 c 0
 88.2002 693.7 92.4004 698.6 106.4 701.4 c 0
 119.7 704.2 134.4 702.1 141.4 703.5 c 2
 161.7 707.7 l 1
 168 693.7 l 2
 172.9 683.2 172.9 674.8 179.2 670.6 c 0
 186.9 665 198.8 663.6 219.1 662.9 c 0
 231.7 662.2 245 662.2 259 662.2 c 0
 270.2 662.2 282.1 662.2 294.7 662.2 c 0
 313.6 662.2 l 0
 387.1 662.2 498.4 662.9 558.6 594.3 c 0
 595 551.6 605.5 489.3 612.5 445.9 c 0
 618.8 409.5 623 371 623 331.8 c 0
 623 251.3 607.6 149.8 544.6 70 c 0
 505.4 21.7002 448.7 -21 373.1 -29.4004 c 0
 361.2 -30.7998 349.3 -31.5 337.4 -31.5 c 0
 269.5 -31.5 210 -7 167.3 39.9004 c 0
 161 46.9004 155.4 55.2998 149.8 63.7002 c 1
 153.3 44.7998 158.9 25.2002 164.5 6.2998 c 0
 168 -4.90039 177.1 -30.0996 177.1 -53.2002 c 0
 177.1 -64.4004 175 -75.5996 170.1 -86.7998 c 0
 155.4 -122.5 123.2 -128.1 95.2002 -128.1 c 0
 94.5 -128.1 93.7998 -128.1 93.7998 -128.1 c 1
 93.0996 -128.1 l 2
 88.2002 -128.1 82.5996 -128.1 75.5996 -127.4 c 1
 74.2002 -126.7 70.7002 -126 70 -126 c 1
 68.5996 -125.3 65.0996 -124.6 63.7002 -123.2 c 1
 61.5996 -122.5 58.0996 -120.4 56.7002 -119.7 c 1
 56 -118.3 51.7998 -115.5 46.2002 -107.8 c 0
 45.5 -106.4 44.7998 -105 44.0996 -104.3 c 0
 37.7998 -93.7998 35 -81.2002 33.5996 -74.9004 c 0
 31.5 -66.5 30.7998 -57.4004 30.7998 -49 c 0
 30.7998 -6.2998 53.9004 37.0996 56.7002 72.0996 c 0
 61.5996 141.4 58.7998 212.8 62.2998 284.2 c 0
 62.2998 291.9 62.2998 299.6 62.2998 307.3 c 0
 62.2998 309.4 62.2998 312.2 62.2998 315 c 0
 62.2998 328.3 63 341.6 64.4004 356.3 c 2
 64.4004 357.7 l 2
 64.4004 359.8 63.7002 361.9 63.7002 365.4 c 0
 63.7002 371.7 65.0996 375.2 65.0996 378 c 1
 72.7998 404.6 98 432.6 109.2 446.6 c 0
EndSplineSet
EndChar

StartChar: afii57682
Encoding: 242 1506 58
Width: 706
VWidth: 699
Flags: HMW
VStem: 220.5 88.2 564.9 97.3
LayerCount: 2
Fore
SplineSet
368.2 193.9 m 0
 411.6 200.2 456.4 208.6 487.9 226.8 c 0
 531.3 251.3 564.9 304.5 564.9 355.6 c 0
 564.9 380.1 557.2 402.5 541.1 420.7 c 0
 517.3 447.3 477.4 455 438.2 463.4 c 0
 420 466.2 401.1 469.7 382.2 476 c 0
 375.2 478.8 373.8 479.5 371.7 480.2 c 0
 366.1 483 360.5 487.2 355.6 494.2 c 0
 349.3 502.6 347.2 512.4 347.2 520.8 c 0
 347.2 536.9 356.3 553.7 359.8 560.7 c 0
 373.1 592.2 386.4 633.5 415.8 663.6 c 0
 420 667.8 428.4 676.9 439.6 683.9 c 0
 452.9 692.3 466.2 693.7 472.5 693.7 c 0
 473.2 693.7 475.3 693.7 476 693.7 c 0
 506.8 693.7 524.3 678.3 543.2 667.1 c 0
 603.4 630.7 635.6 566.3 650.3 508.9 c 0
 659.4 472.5 662.9 436.1 662.9 399.7 c 0
 662.9 262.5 607.6 101.5 450.1 30.7998 c 0
 355.6 -11.9004 245 -32.9004 137.9 -32.9004 c 0
 114.1 -32.9004 93.0996 -32.9004 72.7998 -31.5 c 0
 63.7002 -30.7998 60.9004 -30.7998 58.0996 -30.0996 c 0
 52.5 -29.4004 43.4004 -26.5996 37.0996 -19.5996 c 0
 21.7002 -0.700195 17.5 21.7002 17.5 41.2998 c 0
 17.5 68.5996 25.2002 95.2002 28.7002 114.8 c 0
 32.9004 135.8 34.2998 155.4 50.4004 168 c 1
 51.7998 168.7 53.2002 170.1 56 171.5 c 0
 62.2998 175 68.5996 175.7 74.2002 175.7 c 0
 81.2002 175.7 88.2002 174.3 91.7002 174.3 c 0
 109.2 174.3 133 174.3 157.5 174.3 c 0
 169.4 174.3 181.3 174.3 193.2 174.3 c 2
 193.9 174.3 l 2
 194.6 174.3 196 174.3 197.4 174.3 c 2
 198.1 174.3 l 2
 207.9 174.3 214.9 174.3 219.8 175 c 1
 219.8 173.6 219.8 172.9 219.8 172.2 c 1
 219.8 176.4 219.8 179.2 219.8 182.7 c 0
 219.8 183.4 219.8 184.8 219.8 186.2 c 0
 219.8 190.4 220.5 195.3 220.5 199.5 c 0
 220.5 232.4 212.8 266.7 209.3 301.7 c 0
 205.8 338.1 200.9 371.7 190.4 406 c 0
 184.1 425.6 182.7 436.8 175.7 446.6 c 0
 175 447.3 175.7 446.6 174.3 447.3 c 0
 167.3 452.2 156.8 456.4 144.2 462.7 c 0
 118.3 476 77 502.6 75.5996 544.6 c 0
 75.5996 545.3 75.5996 546.7 75.5996 546.7 c 2
 75.5996 563.5 81.2002 581.7 83.2998 588.7 c 0
 88.2002 609 93.7998 632.1 107.1 654.5 c 1
 107.1 654.5 l 1
 107.1 654.5 l 1
 112.7 661.5 124.6 677.6 144.2 687.4 c 0
 145.6 688.1 147.7 688.8 150.5 690.2 c 0
 160.3 693.7 170.8 694.4 179.2 694.4 c 0
 199.5 694.4 224 689.5 228.2 688.1 c 0
 242.2 683.2 254.8 673.4 261.1 669.2 c 0
 282.8 653.8 312.9 633.5 324.8 602 c 0
 326.9 595.7 328.3 589.4 328.3 583.1 c 0
 328.3 567.7 324.1 558.6 322.7 546 c 0
 318.5 516.6 314.3 487.9 312.2 458.5 c 0
 310.1 420 308.7 382.2 308.7 343.7 c 0
 308.7 291.2 310.8 238.7 315 186.9 c 1
 331.8 188.3 350 191.1 368.2 193.9 c 0
EndSplineSet
EndChar

StartChar: afii57683
Encoding: 243 1507 59
Width: 625
VWidth: 699
Flags: HW
HStem: 485.8 189<200.2 296.8 200.2 296.8>
VStem: 38.5 109.9<332.85 421.75> 39.2 284.9 382.2 133.7<56.7 223.65 97.3 223.65>
LayerCount: 2
Fore
SplineSet
287 674.8 m 0xd0
 306.6 674.8 326.2 672 343 669.9 c 0
 413 660.1 469.7 634.9 517.3 597.1 c 0
 532.7 585.2 546.7 572.6 560 556.5 c 0
 568.4 546 570.5 543.9 572.6 540.4 c 1
 572.6 539.7 574 536.9 574.7 535.5 c 1
 575.4 532.7 576.1 525.7 576.1 524.3 c 0
 576.1 518 575.4 511.7 574.7 508.9 c 0
 572.6 487.9 567.7 468.3 562.8 450.1 c 0
 547.4 389.2 527.1 333.2 519.4 275.1 c 0
 516.6 254.8 515.9 233.8 515.9 213.5 c 0
 515.9 170.1 520.8 127.4 527.1 81.9004 c 0
 535.5 16.0996 546 -49.7002 553 -116.9 c 0
 555.8 -139.3 557.2 -161 558.6 -183.4 c 0
 558.6 -191.1 560 -196.7 560 -205.8 c 0
 560 -209.3 559.3 -213.5 558.6 -217.7 c 0
 550.9 -259.7 522.2 -291.2 493.5 -313.6 c 0
 477.4 -326.2 459.2 -340.9 439.6 -344.4 c 2
 438.2 -345.1 437.5 -345.1 434.7 -345.1 c 2
 434.7 -345.1 432.6 -345.1 431.9 -345.1 c 2
 431.2 -345.1 l 2
 420.7 -344.4 399 -343.7 385 -317.1 c 0
 380.8 -309.4 378 -301 376.6 -292.6 c 0
 375.9 -288.4 375.2 -284.9 375.2 -281.4 c 0
 375.2 -269.5 377.3 -261.1 377.3 -252.7 c 0
 377.3 -218.4 378.7 -184.1 378.7 -150.5 c 0
 378.7 -81.2002 382.2 -11.9004 382.2 56.7002 c 0
 382.2 72.7998 382.2 88.9004 382.2 105.7 c 0
 382.2 156.8 383.6 209.3 398.3 261.1 c 0
 406.7 292.6 416.5 322.7 428.4 352.8 c 0
 434 366.1 442.4 380.1 443.1 385 c 1
 443.1 385.7 l 1
 443.1 385.7 l 1
 442.4 393.4 436.1 404.6 414.4 422.1 c 0
 375.2 451.5 315.7 475.3 247.1 482.3 c 0
 231.7 483.7 219.8 485.8 209.3 485.8 c 0
 204.4 485.8 201.6 485.8 200.2 485.8 c 1
 191.8 483.7 179.9 474.6 165.2 459.9 c 0
 153.3 445.9 148.4 429.8 148.4 413.7 c 0xd0
 148.4 394.8 155.4 374.5 167.3 357.7 c 0
 179.9 340.2 200.2 324.1 221.2 309.4 c 0
 246.4 291.9 270.9 286.3 294 261.1 c 0
 315 238 316.4 216.3 320.6 187.6 c 0
 321.3 180.6 323.4 172.9 323.4 162.4 c 0
 323.4 158.9 323.4 154.7 322 150.5 c 1
 321.3 151.2 l 1
 321.3 150.5 l 1
 319.9 149.8 313.6 140 310.8 137.9 c 0
 306.6 135.1 303.1 133.7 299.6 131.6 c 0
 284.9 123.9 268.8 118.3 251.3 115.5 c 0
 239.4 113.4 226.8 112 214.2 112 c 0
 161 112 112 132.3 82.5996 170.1 c 0
 70 186.9 42.7002 227.5 39.2002 315 c 0xb0
 38.5 322 38.5 329 38.5 336.7 c 0
 38.5 418.6 59.5 496.3 105 566.3 c 0
 130.2 604.8 170.1 637 218.4 657.3 c 0
 226.8 661.5 249.2 671.3 270.9 674.1 c 0
 276.5 674.8 281.4 674.8 287 674.8 c 0xd0
EndSplineSet
EndChar

StartChar: afii57684
Encoding: 244 1508 60
Width: 664
VWidth: 699
Flags: HMW
HStem: 444.5 193.2
VStem: 516.6 97.3<310.45 381.5>
LayerCount: 2
Fore
SplineSet
175.7 686 m 2
 186.9 662.9 179.9 658 190.4 650.3 c 0
 207.9 637 247.1 639.1 270.2 637.7 c 0
 339.5 633.5 408.8 641.2 476.7 621.6 c 0
 575.4 594.3 601.3 488.6 609.7 422.8 c 0
 611.8 409.5 613.2 395.5 613.9 381.5 c 0
 613.9 373.8 614.6 366.1 614.6 358.4 c 0
 614.6 271.6 593.6 177.1 534.1 106.4 c 0
 485.1 49 402.5 8.40039 327.6 -12.5996 c 0
 281.4 -25.9004 228.2 -37.0996 175.7 -37.0996 c 0
 163.1 -37.0996 149.8 -36.4004 137.9 -35 c 0
 124.6 -33.5996 112.7 -33.5996 100.8 -30.0996 c 0
 91.7002 -27.2998 80.5 -21.7002 73.5 -9.7998 c 0
 68.5996 -0.700195 67.9004 7.7002 67.9004 14.7002 c 0
 67.9004 20.2998 67.9004 20.2998 67.9004 23.0996 c 0
 67.9004 23.7998 67.9004 25.2002 67.9004 25.9004 c 0
 67.2002 33.5996 66.5 41.2998 66.5 49 c 0
 66.5 71.4004 70 93.0996 74.2002 114.1 c 0
 75.5996 119 77.7002 129.5 82.5996 139.3 c 0
 89.5996 153.3 99.4004 158.2 102.2 158.9 c 1
 112 163.8 125.3 163.8 130.9 163.8 c 0
 137.2 163.8 137.2 163.8 141.4 163.8 c 0
 142.1 163.8 143.5 163.8 143.5 163.8 c 2
 164.5 165.2 186.2 166.6 208.6 168 c 0
 301 172.9 384.3 175 446.6 212.8 c 0
 492.8 240.8 516.6 286.3 516.6 334.6 c 0
 516.6 340.9 516.6 347.2 515.9 353.5 c 0
 511.7 382.9 499.1 409.5 473.9 424.9 c 0
 457.8 434.7 424.9 437.5 402.5 440.3 c 0
 378.7 443.1 355.6 444.5 332.5 444.5 c 0
 319.2 444.5 305.9 443.8 292.6 443.1 c 0
 276.5 441.7 263.9 442.4 255.5 438.9 c 0
 242.9 434 221.2 411.6 216.3 390.6 c 1
 217 390.6 217 390.6 217 389.9 c 1
 219.1 387.8 220.5 385 224.7 380.8 c 0
 238 366.1 261.1 352.8 268.8 328.3 c 0
 270.2 324.1 271.6 319.2 271.6 313.6 c 0
 271.6 312.9 270.9 310.1 270.9 309.4 c 0
 269.5 293.3 260.4 280.7 253.4 270.2 c 0
 240.1 250.6 222.6 223.3 191.1 210 c 0
 184.1 207.2 167.3 200.9 151.2 200.9 c 0
 144.2 200.9 139.3 202.3 134.4 204.4 c 0
 115.5 212.1 99.4004 229.6 92.4004 238 c 0
 58.7998 277.9 58.7998 315 58.7998 323.4 c 0
 58.7998 332.5 59.5 342.3 62.2998 351.4 c 0
 68.5996 371.7 79.0996 389.2 89.5996 403.2 c 0
 100.8 418.6 113.4 431.2 124.6 443.1 c 1
 122.5 443.8 121.1 444.5 120.4 445.2 c 2
 100.8 452.9 87.5 472.5 80.5 483.7 c 0
 67.9004 505.4 63.7002 529.2 63.7002 550.9 c 0
 63.7002 580.3 70.7002 607.6 75.5996 632.1 c 0
 77.7002 641.9 79.7998 652.4 81.9004 662.9 c 0
 82.5996 669.2 83.2998 670.6 83.2998 672 c 1
 84.7002 676.2 86.7998 681.1 91.7002 685.3 c 1
 91.7002 686 l 1
 92.4004 686 l 1
 93.7998 686.7 104.3 692.3 107.8 693 c 0
 113.4 694.4 119 694.4 121.1 694.4 c 0
 133 695.1 140 694.4 144.9 696.5 c 2
 166.6 704.2 l 1
 175.7 686 l 2
EndSplineSet
EndChar

StartChar: afii57685
Encoding: 245 1509 61
Width: 510
VWidth: 699
Flags: HW
VStem: 20.3 455<598.85 604.45> 128.8 228.2<-177.45 -77>
LayerCount: 2
Fore
SplineSet
475.3 626.5 m 0x80
 475.3 571.2 460.6 511.7 417.2 472.5 c 1
 417.2 471.8 l 1
 416.5 471.8 l 1
 399 465.5 377.3 462 353.5 458.5 c 0
 342.3 456.4 336.7 455 333.2 453.6 c 1
 333.2 452.9 333.2 452.9 333.2 452.2 c 0
 331.8 446.6 331.8 436.1 330.4 430.5 c 0
 320.6 372.4 316.4 312.9 316.4 253.4 c 0
 316.4 233.1 317.1 212.1 317.8 191.8 c 0
 319.2 167.3 317.8 144.2 320.6 123.9 c 0
 322 107.8 330.4 83.2998 333.2 68.5996 c 0
 345.1 11.9004 357 -46.9004 357 -107.1 c 0
 357 -117.6 356.3 -127.4 355.6 -137.2 c 0
 353.5 -162.4 342.3 -183.4 333.9 -203 c 0
 320.6 -231.7 307.3 -260.4 290.5 -287.7 c 0
 282.1 -301 271.6 -312.9 261.1 -324.1 c 0
 255.5 -329.7 254.8 -331.1 252.7 -332.5 c 1
 252.7 -332.5 l 1
 252.7 -332.5 l 1
 252 -333.2 249.9 -334.6 249.2 -334.6 c 1
 248.5 -335.3 245.7 -336 245 -336.7 c 1
 244.3 -336.7 l 1
 244.3 -336.7 l 1
 243.6 -336.7 240.8 -337.4 239.4 -337.4 c 1
 237.3 -338.1 231 -340.2 228.2 -340.9 c 1
 224 -340.9 219.8 -341.6 216.3 -341.6 c 1
 214.9 -340.9 206.5 -341.6 195.3 -338.8 c 1
 195.3 -338.8 l 1
 195.3 -338.8 l 1
 182.7 -333.9 173.6 -324.8 170.1 -320.6 c 0
 143.5 -292.6 137.2 -252 133 -225.4 c 0
 130.2 -205.8 128.8 -186.9 128.8 -168 c 0x40
 128.8 -108.5 139.3 -51.0996 149.8 5.59961 c 0
 158.9 57.4004 165.9 109.9 173.6 162.4 c 0
 182.7 227.5 194.6 291.2 203.7 355.6 c 0
 207.2 383.6 209.3 414.4 214.9 445.2 c 1
 118.3 448.7 74.9004 469 52.5 487.9 c 1
 52.5 487.9 l 1
 51.7998 488.6 l 2
 28 518.7 20.2998 558.6 20.2998 595.7 c 0
 20.2998 613.2 23.0996 630 27.2998 645.4 c 0
 30.7998 656.6 39.2002 674.8 53.2002 686.7 c 1
 53.2002 686 l 1
 53.9004 686.7 l 1
 53.9004 686.7 54.5996 687.4 56.7002 688.1 c 1
 57.4004 688.8 58.0996 688.8 60.9004 690.2 c 1
 61.5996 690.2 61.5996 690.9 65.0996 691.6 c 1
 65.0996 691.6 l 1
 65.7998 691.6 l 2
 67.9004 691.6 74.2002 691.6 76.2998 691.6 c 1
 76.2998 691.6 l 1
 77 691.6 l 2
 79.7998 691.6 87.5 690.9 90.2998 690.2 c 1
 91 690.2 l 1
 91.7002 690.2 l 1
 100.8 685.3 109.2 674.8 110.6 674.1 c 2
 132.3 655.9 158.9 643.3 186.9 637.7 c 0
 210 632.8 235.2 630 260.4 630 c 0
 291.9 630 324.1 634.2 350.7 643.3 c 0
 379.4 653.1 408.8 674.1 430.5 694.4 c 2
 448.7 709.8 l 1
 462 694.4 l 2
 474.6 676.9 474.6 648.2 474.6 643.3 c 0
 475.3 637.7 475.3 632.1 475.3 626.5 c 0x80
EndSplineSet
EndChar

StartChar: afii57686
Encoding: 246 1510 62
Width: 471
VWidth: 699
Flags: HMW
VStem: 321.3 100.1<313.95 346.85>
LayerCount: 2
Fore
SplineSet
415.1 430.5 m 0
 419.3 402.5 421.4 373.1 421.4 344.4 c 0
 421.4 251.3 400.4 156.1 343 78.4004 c 0
 309.4 35 245 -7.7002 175.7 -25.2002 c 0
 155.4 -30.7998 128.1 -32.2002 116.9 -32.9004 c 0
 107.1 -34.2998 94.5 -36.4004 81.2002 -36.4004 c 0
 77 -36.4004 72.7998 -36.4004 68.5996 -35.7002 c 0
 67.2002 -35.7002 58.7998 -35.7002 50.4004 -32.2002 c 1
 50.4004 -31.5 l 1
 49.7002 -32.2002 l 1
 37.7998 -23.0996 32.9004 -7.7002 30.7998 4.2002 c 0
 29.4004 10.5 29.4004 17.5 29.4004 23.7998 c 0
 29.4004 36.4004 30.0996 49 30.7998 60.2002 c 0
 32.9004 88.9004 32.2002 125.3 51.0996 155.4 c 0
 53.2002 158.9 60.2002 174.3 78.4004 182.7 c 0
 84.7002 185.5 90.2998 186.2 95.2002 187.6 c 2
 151.9 200.2 l 2
 225.4 213.5 283.5 228.2 308.7 268.8 c 0
 317.8 284.9 321.3 304.5 321.3 323.4 c 0
 321.3 370.3 295.4 412.3 244.3 428.4 c 0
 213.5 437.5 179.2 441.7 143.5 449.4 c 0
 142.8 449.4 105.7 455 89.5996 469 c 1
 88.2002 469 84.7002 469.7 81.2002 471.1 c 2
 79.7998 471.8 l 1
 79.0996 473.2 l 2
 78.4004 474.6 77.7002 476 77 476.7 c 1
 72.7998 487.9 70.7002 499.1 69.2998 505.4 c 0
 65.0996 523.6 62.2998 542.5 62.2998 562.1 c 0
 62.2998 574.7 64.4004 588 67.9004 600.6 c 0
 77 636.3 99.4004 656.6 120.4 678.3 c 0
 139.3 698.6 155.4 721 170.8 742.7 c 0
 186.9 765.1 200.2 800.8 245.7 817.6 c 0
 269.5 826 298.2 830.2 326.9 830.2 c 0
 347.2 830.2 364.7 827.4 381.5 821.8 c 0
 394.8 816.9 424.9 805 424.9 779.8 c 0
 424.9 771.4 424.2 763 422.1 754.6 c 0
 413.7 722.4 393.4 706.3 370.3 688.1 c 0
 329.7 657.3 275.8 650.3 236.6 623 c 1
 236.6 620.9 l 1
 251.3 619.5 267.4 617.4 280 613.2 c 0
 375.2 579.6 405.3 498.4 415.1 430.5 c 0
EndSplineSet
EndChar

StartChar: afii57687
Encoding: 247 1511 63
Width: 664
VWidth: 699
Flags: HW
HStem: 434 214.2<170.1 267.4 186.9 267.4>
VStem: 63 132.3<69.3 226.8 114.1 226.8> 64.4 182.7<-208.6 -177.8 -197.4 -189> 514.5 98.7<310.45 320.95>
LayerCount: 2
Fore
SplineSet
215.6 396.9 m 2xd0
 202.3 355.6 198.8 310.8 196.7 265.3 c 0
 196 249.9 195.3 234.5 195.3 219.1 c 0xd0
 195.3 201.6 196 184.1 198.1 166.6 c 0
 202.3 129.5 213.5 91 221.2 50.4004 c 0
 235.2 -23.7998 247.1 -100.1 247.1 -177.8 c 0
 247.1 -184.1 247.1 -190.4 247.1 -197.4 c 0
 246.4 -205.8 247.8 -228.9 242.2 -247.1 c 0
 229.6 -284.9 191.8 -312.2 165.9 -327.6 c 0
 152.6 -336 135.1 -345.8 114.8 -345.8 c 0
 108.5 -345.8 95.9004 -344.4 82.5996 -335.3 c 1
 82.5996 -335.3 l 1
 82.5996 -335.3 l 1
 78.4004 -330.4 70 -326.2 65.7998 -308.7 c 0
 63 -296.1 63.7002 -286.3 63 -277.2 c 0
 62.2998 -270.2 62.2998 -262.5 62.2998 -255.5 c 0
 62.2998 -239.4 63.7002 -223.3 64.4004 -208.6 c 0
 64.4004 -205.1 64.4004 -200.9 64.4004 -197.4 c 0xb0
 64.4004 -180.6 63 -162.4 62.2998 -144.2 c 0
 61.5996 -124.6 60.9004 -105.7 60.9004 -86.0996 c 0
 60.9004 -37.7998 63 10.5 63 58.0996 c 0
 63 61.5996 63 65.7998 63 69.2998 c 0
 63 87.5 63 105 63 123.2 c 0
 63 174.3 64.4004 226.1 74.9004 277.9 c 0
 81.9004 312.9 93.0996 347.2 107.8 379.4 c 0
 112 389.2 115.5 399.7 121.1 408.1 c 0
 124.6 413.7 128.8 417.2 132.3 420 c 1
 138.6 423.5 144.9 424.2 150.5 424.2 c 0
 154.7 424.2 156.8 424.2 158.2 424.2 c 2
 224.7 424.2 l 1
 215.6 396.9 l 2xd0
135.1 707 m 0
 135.8 707 137.9 707 138.6 707 c 2
 139.3 707 l 1
 140 707 l 1
 140 707 l 1
 144.9 705.6 158.2 706.3 165.9 686 c 0
 171.5 670.6 170.1 665.7 170.1 665.7 c 1
 174.3 658.7 184.1 652.4 195.3 651 c 0
 212.8 648.9 230.3 648.2 248.5 648.2 c 0
 286.3 648.2 325.5 651.7 366.1 651.7 c 0
 384.3 651.7 402.5 651 421.4 648.9 c 0
 465.5 644.7 511 634.2 540.4 602 c 0
 553.7 587.3 570.5 563.5 588.7 510.3 c 0
 598.5 481.6 604.8 452.2 608.3 422.8 c 0
 611.8 399 613.2 375.2 613.2 351.4 c 0
 613.2 269.5 595.7 187.6 557.2 114.1 c 0
 532 65.0996 466.2 12.5996 388.5 12.5996 c 0
 383.6 12.5996 378.7 12.5996 373.8 13.2998 c 1
 373.1 13.2998 l 1
 373.1 13.2998 l 1
 358.4 17.5 361.9 15.4004 354.9 18.9004 c 0
 351.4 21 348.6 23.0996 347.2 23.7998 c 0
 343 25.2002 335.3 29.4004 328.3 35 c 0
 324.8 37.7998 321.3 41.2998 318.5 45.5 c 0
 317.1 46.9004 313.6 51.7998 312.2 61.5996 c 0
 312.2 63 311.5 66.5 311.5 67.2002 c 0
 311.5 80.5 317.8 96.5996 330.4 109.9 c 0
 359.8 139.3 405.3 142.8 428.4 161 c 0
 482.3 201.6 514.5 258.3 514.5 317.8 c 0
 514.5 324.1 514.5 330.4 513.8 336.7 c 0
 509.6 370.3 504.7 382.2 498.4 391.3 c 0
 469.7 431.9 420 441.7 361.9 441.7 c 0
 327.6 441.7 291.2 438.2 257.6 436.1 c 0
 240.1 434.7 221.9 434 203 434 c 0
 198.1 434 192.5 434 186.9 434 c 0
 153.3 434 116.9 436.1 89.5996 460.6 c 0
 67.2002 480.9 60.9004 504 60.2002 539.7 c 0
 60.2002 543.2 60.2002 546 60.2002 549.5 c 0
 60.2002 576.1 63 602.7 65.7998 628.6 c 0
 67.9004 641.2 70 653.8 71.4004 666.4 c 0
 72.7998 675.5 72.7998 676.2 73.5 677.6 c 2
 74.2002 681.8 76.2998 687.4 81.2002 692.3 c 1
 81.2002 693 l 1
 81.9004 693 l 1
 85.4004 695.8 89.5996 701.4 104.3 704.2 c 0
 116.9 707 129.5 706.3 135.1 707 c 0
EndSplineSet
EndChar

StartChar: afii57688
Encoding: 248 1512 64
Width: 585
VWidth: 699
Flags: HMW
HStem: 447.3 206.5
VStem: 438.2 98.7
LayerCount: 2
Fore
SplineSet
53.2002 700.7 m 2
 60.2002 700.7 67.2002 700.7 73.5 700.7 c 0
 84 700.7 l 0
 84.7002 700.7 84.7002 700.7 85.4004 700.7 c 1
 85.4004 700.7 l 1
 86.7998 700.7 87.5 701.4 92.4004 701.4 c 0
 96.5996 701.4 105.7 698.6 108.5 696.5 c 1
 108.5 696.5 l 1
 109.2 696.5 l 1
 109.9 695.1 117.6 690.2 119 688.1 c 0
 123.2 681.8 124.6 673.4 124.6 673.4 c 2
 128.8 665.7 131.6 660.1 144.9 658 c 0
 165.2 655.2 186.2 654.5 208.6 654.5 c 0
 238 654.5 268.8 656.6 300.3 656.6 c 0
 338.1 656.6 378 653.8 415.8 636.3 c 0
 471.1 611.1 497 552.3 511.7 508.9 c 0
 529.2 457.8 537.6 403.9 537.6 349.3 c 0
 537.6 282.1 525.7 214.9 504.7 154 c 0
 491.4 115.5 475.3 77 450.8 42 c 0
 437.5 23.0996 420 4.2002 393.4 -8.40039 c 0
 375.2 -17.5 351.4 -25.2002 326.9 -25.2002 c 0
 289.1 -25.2002 270.9 -7.7002 263.9 0.700195 c 0
 254.1 13.2998 249.2 27.2998 249.2 41.2998 c 0
 249.2 56.7002 254.8 71.4004 266 84 c 0
 280 99.4004 293.3 105.7 306.6 116.2 c 0
 317.8 125.3 328.3 135.8 338.8 145.6 c 0
 396.9 203.7 438.2 265.3 438.2 337.4 c 0
 438.2 375.9 428.4 403.9 401.8 423.5 c 0
 390.6 431.9 368.9 443.1 324.8 448 c 0
 307.3 449.4 289.1 450.1 271.6 450.1 c 0
 235.2 450.1 197.4 447.3 158.9 447.3 c 0
 119 447.3 53.2002 448.7 28.7002 502.6 c 0
 23.7998 513.1 24.5 522.9 23.0996 530.6 c 0
 21.7002 543.2 21 555.8 21 567.7 c 0
 21 576.1 21.7002 584.5 21.7002 592.9 c 0
 21.7002 625.1 28.7002 655.2 32.2002 683.2 c 2
 34.2998 700.7 l 1
 53.2002 700.7 l 2
EndSplineSet
EndChar

StartChar: afii57689
Encoding: 249 1513 65
Width: 664
VWidth: 699
Flags: HMW
HStem: -7 209.3<344.75 351.05 331.1 371> 447.3 193.2<299.25 378.7>
VStem: 95.2 111.3 509.6 96.6<376.6 376.6>
LayerCount: 2
Fore
SplineSet
99.4004 637 m 2
 107.1 655.9 116.2 674.1 120.4 690.2 c 2
 123.9 705.6 l 1
 212.1 705.6 l 1
 212.1 684.6 l 2
 212.1 653.1 231 646.8 237.3 644.7 c 0
 241.5 643.3 249.2 644 260.4 643.3 c 0
 276.5 641.9 291.9 640.5 306.6 640.5 c 0
 328.3 639.1 350 638.4 371 638.4 c 0
 402.5 638.4 433.3 640.5 463.4 646.1 c 0
 487.2 650.3 509.6 665.7 514.5 684.6 c 2
 518 701.4 l 1
 608.3 701.4 l 1
 608.3 681.8 l 2
 608.3 653.1 600.6 623 592.9 597.8 c 0
 585.2 574.7 577.5 550.2 567 526.4 c 0
 562.8 518 560 506.1 550.2 496.3 c 0
 525.7 470.4 477.4 459.9 453.6 455 c 0
 423.5 448.7 393.4 447.3 364 447.3 c 0
 320.6 447.3 279.3 450.8 239.4 450.8 c 0
 230.3 450.8 221.2 450.8 212.1 450.8 c 1
 210.7 387.8 206.5 326.2 206.5 265.3 c 2
 206.5 264.6 l 2
 206.5 261.8 206.5 258.3 206.5 254.8 c 0
 206.5 242.2 206.5 228.9 204.4 215.6 c 0
 204.4 214.2 204.4 212.8 203.7 211.4 c 1
 207.2 210.7 211.4 210 214.2 210 c 0
 237.3 205.8 262.5 205.8 290.5 204.4 c 0
 307.3 203 323.4 202.3 338.8 202.3 c 0
 363.3 202.3 386.4 204.4 408.1 212.1 c 0
 476.7 234.5 506.1 306.6 509.6 376.6 c 2
 510.3 396.9 l 1
 606.2 396.9 l 1
 606.2 375.9 l 2
 606.2 296.8 597.8 215.6 571.9 138.6 c 0
 569.1 129.5 554.4 81.2002 531.3 52.5 c 0
 518.7 37.0996 489.3 14.7002 435.4 1.40039 c 0
 409.5 -4.90039 383.6 -7 358.4 -7 c 0
 331.1 -7 303.8 -4.90039 278.6 -2.7998 c 0
 266 -1.40039 242.9 2.7998 230.3 2.7998 c 0
 224.7 2.7998 221.2 2.09961 219.8 1.40039 c 0
 198.1 -4.90039 202.3 -44.7998 177.1 -70 c 0
 175 -72.0996 168 -79.0996 152.6 -84.7002 c 0
 140 -88.2002 129.5 -88.9004 120.4 -88.9004 c 0
 111.3 -88.9004 105 -88.2002 98.7002 -88.2002 c 2
 72.0996 -88.2002 l 1
 78.4004 -62.2998 l 2
 79.0996 -59.5 79.7998 -54.5996 79.7998 -46.9004 c 0
 79.7998 -44.0996 79.7998 -40.5996 79.7998 -37.0996 c 0
 79.7998 -32.2002 79.7998 -29.4004 79.7998 -27.2998 c 0
 81.9004 -2.09961 82.5996 23.7998 83.2998 49.7002 c 0
 87.5 127.4 91.7002 204.4 95.2002 282.1 c 0
 97.2998 320.6 98 360.5 101.5 400.4 c 0
 102.2 412.3 102.2 424.9 102.9 438.9 c 0
 103.6 443.8 104.3 448 105 452.2 c 1
 103.6 452.2 l 1
 93.7998 455 70 459.9 56.7002 473.9 c 0
 53.2002 477.4 46.9004 485.8 46.9004 497.7 c 2
 46.9004 497.7 46.9004 497.7 46.9004 498.4 c 1
 46.9004 498.4 l 1
 46.9004 499.1 l 1
 47.5996 501.9 46.9004 505.4 50.4004 513.8 c 2
 51.7998 517.3 l 1
 53.2002 518.7 53.2002 520.1 53.9004 520.8 c 1
 99.4004 637 l 2
EndSplineSet
EndChar

StartChar: afii57690
Encoding: 250 1514 66
Width: 664
VWidth: 699
Flags: HMW
HStem: -27.3 14.7G<83.65 84.7 84.7 84.7> 441 207.2<314.65 315 315 329.35 323.4 335.3 282.8 359.8>
VStem: 83.3 125.3<335.65 350 335.65 358.4> 515.2 102.2<329.7 336 335.3 336>
LayerCount: 2
Fore
SplineSet
133.7 455.7 m 1
 126 458.5 118.3 462.7 112 468.3 c 0
 84.7002 492.8 78.4004 526.4 78.4004 557.2 c 0
 78.4004 583.1 82.5996 609 85.4004 628.6 c 0
 87.5 643.3 89.5996 658 90.2998 672 c 0
 90.2998 674.1 90.2998 674.8 90.2998 679 c 0
 90.2998 688.1 92.4004 696.5 100.1 702.8 c 0
 102.9 704.9 107.8 708.4 119.7 708.4 c 0
 125.3 708.4 126 708.4 127.4 708.4 c 0
 139.3 708.4 151.9 709.1 165.9 709.1 c 2
 184.1 709.1 l 1
 188.3 693 l 2
 189.7 686 194.6 670.6 205.1 662.2 c 0
 215.6 653.8 234.5 648.2 282.8 648.2 c 0
 293.3 648.2 303.8 648.2 315 648.2 c 0
 355.6 648.2 398.3 647.5 441 641.2 c 0
 476 636.3 517.3 625.1 546 594.3 c 0
 560.7 578.9 569.8 557.2 574 547.4 c 0
 585.2 523.6 595 498.4 602 471.8 c 0
 612.5 430.5 617.4 388.5 617.4 346.5 c 0
 617.4 274.4 602.7 203 573.3 136.5 c 0
 554.4 92.4004 501.2 2.09961 414.4 2.09961 c 0
 399.7 2.09961 385 4.90039 369.6 9.7998 c 1
 369.6 10.5 l 1
 369.6 10.5 l 1
 363.3 14 348.6 19.5996 340.9 39.9004 c 0
 335.3 53.9004 335.3 70.7002 334.6 75.5996 c 1
 334.6 79.0996 334.6 81.2002 334.6 84.7002 c 0
 334.6 95.2002 338.1 104.3 346.5 111.3 c 0
 375.9 135.8 403.9 140 433.3 157.5 c 0
 464.1 175.7 484.4 206.5 494.2 225.4 c 0
 510.3 257.6 515.2 292.6 515.2 329.7 c 0
 515.2 331.1 515.2 334.6 515.2 336 c 0
 514.5 363.3 511 385.7 494.9 402.5 c 0
 464.1 436.8 416.5 441 359.8 441 c 0
 347.9 441 335.3 441 323.4 441 c 0
 305.9 441 289.1 443.1 275.8 443.1 c 0
 269.5 443.1 265.3 443.1 262.5 442.4 c 1
 249.9 427.7 l 2
 229.6 406 213.5 385 210 362.6 c 0
 209.3 357.7 208.6 352.8 208.6 347.2 c 0
 208.6 324.1 217 300.3 226.8 274.4 c 0
 236.6 249.9 242.2 225.4 250.6 203.7 c 0
 262.5 172.2 279.3 138.6 279.3 98 c 0
 279.3 93.0996 279.3 88.2002 278.6 83.2998 c 0
 273 34.2998 255.5 14 242.2 2.7998 c 0
 241.5 2.09961 237.3 -1.40039 228.2 -5.59961 c 0
 226.8 -6.2998 224.7 -7 224 -7.7002 c 1
 213.5 -11.2002 200.9 -13.2998 197.4 -14 c 0
 166.6 -21.7002 134.4 -26.5996 103.6 -26.5996 c 0
 100.8 -26.5996 91.7002 -27.2998 84.7002 -27.2998 c 1
 84.7002 -27.2998 l 1
 82.5996 -27.2998 77.7002 -26.5996 76.2998 -26.5996 c 0
 74.9004 -26.5996 72.0996 -25.9004 71.4004 -25.9004 c 0
 70.7002 -25.9004 67.2002 -25.2002 66.5 -24.5 c 1
 63.7002 -23.7998 61.5996 -23.0996 60.9004 -22.4004 c 0
 56 -18.9004 51.7998 -15.4004 50.4004 -13.2998 c 0
 41.2998 -1.40039 39.2002 14.7002 37.7998 21 c 0
 35 34.2998 35 47.5996 35 60.2002 c 0
 35 70 35 79.0996 35 87.5 c 0
 35 93.7998 34.2998 100.1 34.2998 108.5 c 0
 34.2998 117.6 35 123.2 35.7002 126 c 0
 42 149.8 61.5996 164.5 84.7002 176.4 c 0
 91 179.2 93.7998 180.6 96.5996 181.3 c 1
 96.5996 182 96.5996 182.7 96.5996 182.7 c 2
 96.5996 189 94.5 200.9 94.5 208.6 c 0
 93.7998 234.5 93.7998 259.7 91 283.5 c 0
 89.5996 298.9 83.2998 314.3 83.2998 334.6 c 0
 83.2998 382.2 108.5 425.6 133.7 455.7 c 1
EndSplineSet
EndChar

StartChar: braceright
Encoding: 125 125 67
Width: 671
VWidth: 699
Flags: HW
VStem: 285.6 142.8<158.2 169.4 169.4 170.1 158.2 183.05> 291.2 141.4
LayerCount: 2
Fore
SplineSet
356.3 946.4 m 0x80
 401.1 909.3 415.1 848.4 422.1 805.7 c 0
 427 775.6 428.4 744.8 428.4 714.7 c 0
 428.4 681.8 427 648.9 425.6 617.4 c 0
 424.9 603.4 424.2 588.7 424.2 574.7 c 0
 424.2 530.6 429.1 487.2 446.6 451.5 c 0
 458.5 428.4 479.5 413.7 499.1 403.9 c 0
 504.7 401.1 518 399 528.5 392 c 2
 576.8 361.9 l 1
 520.1 353.5 l 2
 515.2 352.8 509.6 351.4 495.6 344.4 c 0
 436.8 315 428.4 245 428.4 170.1 c 2
 428.4 169.4 l 2x80
 428.4 147 428.4 125.3 429.1 104.3 c 0
 430.5 73.5 433.3 41.2998 433.3 9.09961 c 0
 433.3 -25.2002 430.5 -60.9004 420 -95.9004 c 0
 408.8 -135.8 387.1 -176.4 347.2 -200.2 c 0
 331.1 -210 313.6 -216.3 296.8 -220.5 c 0
 265.3 -228.2 232.4 -231 201.6 -231 c 2
 180.6 -231 l 1
 180.6 -190.4 l 1
 198.1 -188.3 l 2
 203 -187.6 207.9 -186.2 221.2 -180.6 c 0
 266.7 -161.7 280.7 -116.9 287.7 -62.2998 c 0
 290.5 -40.5996 291.2 -18.9004 291.2 3.5 c 0x40
 291.2 56.7002 285.6 112 285.6 168.7 c 0
 285.6 197.4 287 226.1 291.9 255.5 c 0
 298.9 297.5 318.5 345.8 357 374.5 c 1
 305.9 410.2 291.9 478.8 287 529.9 c 0
 285.6 547.4 284.9 564.9 284.9 582.4 c 0
 284.9 638.4 291.2 693.7 291.2 746.9 c 0
 291.2 775.6 289.1 803.6 284.2 830.9 c 0
 279.3 854 273 877.1 262.5 894.6 c 0
 246.4 921.2 216.3 941.5 185.5 947.8 c 2
 168.7 951.3 l 1
 168.7 990.5 l 1
 189.7 990.5 l 2
 221.9 990.5 254.8 987.7 287 979.3 c 0
 323.4 970.2 345.1 955.5 356.3 946.4 c 0x80
EndSplineSet
EndChar

StartChar: braceleft
Encoding: 123 123 68
Width: 671
VWidth: 699
Flags: HMW
VStem: 240.8 139.3<-35.7 50.75>
LayerCount: 2
Fore
SplineSet
240.8 536.2 m 0
 241.5 553 242.2 570.5 242.2 587.3 c 0
 242.2 625.8 240.1 665.7 240.1 705.6 c 0
 240.1 748.3 242.2 791.7 252.7 835.1 c 0
 258.3 858.9 268.8 896.7 294 924.7 c 0
 310.1 942.9 345.1 970.9 424.9 970.9 c 0
 431.2 970.9 445.9 972.3 455 972.3 c 0
 470.4 972.3 478.1 969.5 480.9 968.1 c 2
 543.2 942.2 l 1
 476.7 928.2 l 2
 438.2 920.5 415.8 893.2 407.4 878.5 c 0
 397.6 861.7 392.7 840.7 387.8 818.3 c 0
 381.5 785.4 379.4 750.4 379.4 715.4 c 0
 379.4 670.6 382.9 625.1 382.9 579.6 c 0
 382.9 567.7 383.6 555.1 383.6 541.8 c 0
 383.6 532 382.9 522.9 381.5 513.1 c 0
 375.9 464.1 368.9 391.3 308 359.8 c 1
 345.1 329.7 365.4 282.8 373.8 240.1 c 0
 382.2 200.9 384.3 160.3 384.3 120.4 c 0
 384.3 89.5996 382.9 58.7998 381.5 29.4004 c 0
 380.8 9.7998 380.1 -9.09961 380.1 -28 c 0
 380.1 -43.4004 380.8 -58.7998 382.2 -73.5 c 0
 389.2 -130.9 401.1 -178.5 448 -200.2 c 0
 459.2 -205.8 466.2 -207.9 472.5 -208.6 c 2
 491.4 -210 l 1
 491.4 -251.3 l 1
 470.4 -251.3 l 2
 440.3 -251.3 408.8 -249.2 378 -240.8 c 0
 351.4 -233.8 324.1 -222.6 302.4 -201.6 c 0
 263.9 -165.2 252 -105.7 246.4 -67.9004 c 0
 241.5 -33.5996 240.8 0.700195 240.8 35 c 0
 240.8 66.5 241.5 98 241.5 128.1 c 0
 241.5 177.8 239.4 226.8 223.3 269.5 c 0
 214.2 292.6 199.5 311.5 179.9 325.5 c 0
 168.7 333.2 155.4 336.7 142.1 347.2 c 2
 113.4 371.7 l 1
 149.1 383.6 l 2
 169.4 390.6 184.1 393.4 195.3 401.8 c 0
 233.1 429.8 237.3 491.4 240.8 536.2 c 0
EndSplineSet
EndChar

StartChar: nullchar
Encoding: 261 -1 69
Width: 541
VWidth: 699
Flags: HMW
HStem: 0.7 0.7
LayerCount: 2
Fore
SplineSet
2.09961 0.700195 m 1
 0.700195 2.09961 l 1
 2.09961 0.700195 l 1
EndSplineSet
EndChar

StartChar: afii57716
Encoding: 262 1520 71
Width: 701
VWidth: 699
Flags: HMW
VStem: 177.8 111.3 529.2 111.3
LayerCount: 2
Fore
SplineSet
529.2 175 m 0
 529.2 238 522.2 298.2 496.3 354.9 c 0
 480.2 390.6 454.3 422.8 416.5 444.5 c 0
 391.3 459.9 368.2 460.6 351.4 478.8 c 1
 351.4 478.8 l 1
 350.7 479.5 l 1
 345.8 487.9 343 498.4 341.6 510.3 c 0
 341.6 520.8 l 0
 341.6 542.5 350 578.9 391.3 626.5 c 0
 401.1 638.4 418.6 655.2 450.8 659.4 c 0
 455.7 660.1 461.3 660.1 466.2 660.1 c 0
 477.4 660.1 490.7 660.1 519.4 649.6 c 0
 562.8 632.8 593.6 604.1 611.1 576.8 c 0
 623 557.2 627.9 536.2 631.4 518.7 c 0
 638.4 486.5 640.5 453.6 640.5 420.7 c 0
 640.5 410.9 640.5 401.1 639.8 391.3 c 0
 636.3 302.4 637 212.1 628.6 121.1 c 0
 625.8 91.7002 624.4 60.9004 620.2 28.7002 c 0
 619.5 18.9004 618.8 9.7998 616 0.700195 c 1
 616 1.40039 l 1
 616 0.700195 l 1
 616 0.700195 615.3 0 613.9 -0.700195 c 1
 613.9 -1.40039 612.5 -2.7998 611.1 -4.2002 c 2
 610.4 -4.90039 l 1
 609.7 -4.90039 l 2
 608.3 -4.90039 606.9 -5.59961 606.2 -5.59961 c 1
 602 -8.40039 597.8 -11.9004 583.8 -14 c 0
 571.9 -16.7998 560 -16.7998 554.4 -16.7998 c 1
 554.4 -20.2998 554.4 -20.2998 554.4 -16.7998 c 1
 552.3 -16.7998 546 -16.7998 544.6 -16.7998 c 2
 522.2 -16.7998 l 1
 522.2 -13.2998 l 2
 522.2 50.4004 529.2 113.4 529.2 175 c 0
177.8 175 m 0
 177.8 238 172.2 298.2 150.5 355.6 c 0
 137.2 390.6 115.5 422.8 84.7002 444.5 c 0
 64.4004 459.2 44.0996 461.3 30.7998 478.8 c 1
 30.0996 478.8 l 1
 30.0996 479.5 l 1
 25.9004 487.9 23.0996 499.1 22.4004 510.3 c 0
 22.4004 520.8 l 0
 22.4004 542.5 29.4004 578.9 63.7002 626.5 c 0
 72.0996 638.4 86.0996 654.5 113.4 659.4 c 0
 117.6 660.1 121.8 660.1 126.7 660.1 c 0
 135.1 660.1 147 660.1 170.8 649.6 c 0
 211.4 632.1 242.2 604.1 259.7 576.8 c 0
 271.6 557.2 276.5 536.2 280 518.7 c 0
 287 486.5 289.8 453.6 289.8 420.7 c 0
 289.8 410.9 289.1 401.1 289.1 390.6 c 0
 284.9 302.4 286.3 212.1 277.2 121.1 c 0
 274.4 91.7002 273.7 60.9004 269.5 28.7002 c 0
 268.1 18.9004 268.1 9.7998 265.3 0.700195 c 1
 265.3 1.40039 l 1
 264.6 0.700195 l 1
 264.6 0.700195 263.9 0 263.2 -0.700195 c 0
 262.5 -1.40039 261.1 -2.7998 260.4 -4.2002 c 1
 259.7 -4.90039 l 1
 258.3 -4.90039 l 2
 256.9 -4.90039 256.2 -5.59961 255.5 -5.59961 c 1
 251.3 -8.40039 246.4 -11.9004 232.4 -14 c 0
 221.2 -16.7998 209.3 -16.7998 203 -16.7998 c 1
 203 -20.2998 203 -20.2998 203 -16.7998 c 1
 200.9 -16.7998 195.3 -16.7998 193.2 -16.7998 c 2
 172.2 -16.7998 l 1
 172.2 -13.2998 l 2
 172.2 50.4004 177.8 113.4 177.8 175 c 0
EndSplineSet
EndChar

StartChar: afii57717
Encoding: 263 1521 72
Width: 664
VWidth: 699
Flags: HMW
VStem: 490.7 103.6
LayerCount: 2
Fore
SplineSet
56.7002 690.2 m 1
 62.2998 687.4 l 1
 148.4 697.9 l 1
 142.8 685.3 l 1
 141.4 679 140.7 678.3 140.7 676.2 c 0
 142.1 664.3 144.2 654.5 147.7 649.6 c 0
 165.9 621.6 214.2 612.5 254.1 592.9 c 0
 280.7 579.6 307.3 562.8 317.8 536.9 c 1
 320.6 557.9 331.1 588 362.6 627.9 c 0
 372.4 640.5 387.8 656.6 417.9 661.5 c 0
 422.8 662.9 428.4 662.9 433.3 662.9 c 0
 451.5 662.9 466.2 658 478.8 653.8 c 0
 508.2 643.3 549.5 618.1 573.3 579.6 c 0
 585.2 560 590.1 538.3 593.6 520.8 c 0
 600.6 486.5 602.7 452.9 602.7 419.3 c 0
 602.7 406 602.7 393.4 602 380.8 c 0
 600.6 343.7 602 305.2 599.9 266 c 0
 599.2 241.5 595.7 217.7 594.3 194.6 c 0
 592.9 172.9 594.3 148.4 590.8 122.5 c 0
 587.3 93.7998 586.6 61.5996 582.4 28.7002 c 0
 579.6 6.2998 577.5 0.700195 572.6 -4.90039 c 2
 571.9 -5.59961 l 1
 571.2 -5.59961 l 1
 570.5 -6.2998 568.4 -7 567 -7 c 1
 564.9 -7.7002 561.4 -10.5 553.7 -12.5996 c 0
 539.7 -16.7998 522.9 -16.7998 515.9 -16.7998 c 1
 515.9 -20.2998 515.9 -20.2998 515.9 -16.7998 c 1
 514.5 -16.7998 508.2 -16.7998 506.1 -16.7998 c 2
 484.4 -16.7998 l 1
 484.4 -13.2998 l 2
 484.4 51.0996 490.7 114.8 490.7 177.1 c 0
 490.7 240.8 484.4 302.4 459.9 360.5 c 0
 445.2 394.1 420.7 425.6 387.8 446.6 c 0
 369.6 457.8 339.5 464.8 325.5 483 c 2
 324.8 483.7 l 1
 324.8 483.7 l 1
 324.1 486.5 322.7 488.6 322 490.7 c 1
 321.3 485.1 l 2
 315.7 408.8 282.8 336 228.9 277.2 c 0
 217.7 264.6 205.8 252 192.5 240.1 c 1
 191.1 239.4 l 1
 189.7 239.4 l 1
 184.1 240.8 177.8 241.5 168 242.2 c 1
 163.8 241.5 159.6 241.5 156.1 241.5 c 0
 151.2 241.5 146.3 242.2 141.4 242.9 c 1
 141.4 242.9 l 1
 141.4 242.9 l 1
 130.2 245.7 131.6 245 128.1 246.4 c 1
 124.6 245.7 121.1 245 119.7 244.3 c 1
 117.6 244.3 l 1
 116.2 245 l 1
 109.9 250.6 109.2 251.3 107.1 253.4 c 1
 107.1 254.1 105 256.2 104.3 256.9 c 0
 103.6 257.6 101.5 260.4 101.5 261.1 c 1
 100.8 261.8 98.7002 265.3 98.7002 266.7 c 1
 98 269.5 97.2998 273.7 97.2998 275.1 c 2
 97.2998 275.8 l 1
 97.2998 276.5 l 1
 98 278.6 101.5 290.5 104.3 293.3 c 0
 107.8 296.8 110.6 298.9 112 300.3 c 0
 121.1 308 129.5 317.8 138.6 326.9 c 0
 146.3 335.3 182.7 373.8 182.7 404.6 c 0
 182.7 408.8 182 413.7 179.9 418.6 c 1
 177.8 420 171.5 423.5 153.3 429.1 c 0
 121.8 438.9 83.2998 445.9 55.2998 462 c 1
 55.2998 462 l 1
 55.2998 462.7 l 1
 30.0996 487.2 19.5996 521.5 19.5996 560 c 0
 19.5996 596.4 34.2998 633.5 41.2998 650.3 c 0
 45.5 660.8 52.5 676.9 55.2998 686 c 2
 56.7002 690.2 l 1
EndSplineSet
EndChar

StartChar: afii57718
Encoding: 264 1522 73
Width: 626
VWidth: 699
Flags: HW
LayerCount: 2
Fore
SplineSet
62.2998 680.4 m 1
 147.7 690.9 l 1
 142.1 680.4 l 1
 141.4 674.8 140.7 674.1 140.7 672.7 c 0
 142.1 659.4 144.2 649.6 147 644.7 c 0
 165.9 615.3 214.2 605.5 252.7 586.6 c 0
 276.5 574.7 299.6 560 312.2 539.7 c 1
 311.5 545.3 311.5 550.9 311.5 556.5 c 0
 311.5 592.2 328.3 628.6 335.3 645.4 c 0
 340.2 656.6 348.6 672 351.4 681.8 c 1
 352.8 683.2 l 1
 359.1 680.4 l 1
 449.4 690.9 l 1
 443.8 680.4 l 1
 443.1 674.8 441.7 674.1 442.4 672.7 c 1
 443.8 659.4 445.2 649.6 448.7 644.7 c 0
 467.6 615.3 514.5 606.2 551.6 586.6 c 0
 578.2 571.9 604.8 552.3 611.1 524.3 c 0
 612.5 518 613.2 511.7 613.2 506.1 c 0
 613.2 497 612.5 488.6 611.8 481.6 c 0
 606.9 405.3 577.5 332.5 529.2 273.7 c 0
 518.7 260.4 506.1 248.5 493.5 236.6 c 1
 492.1 239.4 l 1
 490 239.4 l 2
 484.4 239.4 478.1 238.7 469 238.7 c 2
 464.8 238 460.6 238 457.1 238 c 0
 452.2 238 447.3 238.7 442.4 239.4 c 1
 442.4 239.4 l 1
 442.4 239.4 l 1
 431.2 242.2 432.6 241.5 429.1 242.9 c 1
 425.6 242.2 422.8 241.5 420.7 240.8 c 1
 419.3 240.8 l 1
 417.9 241.5 l 1
 411.6 247.1 410.2 247.8 408.8 249.9 c 0
 408.1 250.6 406 252.7 405.3 253.4 c 1
 405.3 254.1 403.2 256.2 402.5 257.6 c 2
 401.8 258.3 399.7 261.8 399.7 263.2 c 1
 398.3 265.3 397.6 270.2 397.6 271.6 c 2
 397.6 272.3 l 1
 398.3 273 l 1
 399.7 275.8 403.2 287 405.3 289.8 c 0
 408.8 294 412.3 296.1 413.7 296.8 c 1
 422.1 304.5 431.2 314.3 439.6 323.4 c 0
 447.3 331.8 483 370.3 483 401.1 c 0
 483 405.3 482.3 410.2 480.2 415.1 c 1
 478.8 416.5 472.5 420 454.3 425.6 c 0
 423.5 435.4 382.2 442.4 351.4 458.5 c 1
 351.4 458.5 l 1
 350.7 459.2 l 2
 337.4 471.1 326.9 485.1 320.6 501.2 c 1
 320.6 494.2 319.9 487.2 319.9 481.6 c 0
 313.6 405.3 280.7 332.5 228.2 273.7 c 0
 217 261.1 205.1 248.5 191.8 236.6 c 1
 190.4 239.4 l 1
 189 239.4 l 2
 183.4 239.4 177.1 238.7 167.3 238.7 c 2
 163.1 238 158.9 238 155.4 238 c 0
 150.5 238 145.6 238.7 141.4 239.4 c 1
 140.7 239.4 l 1
 140.7 239.4 l 1
 130.2 242.2 130.9 241.5 128.1 242.9 c 1
 124.6 242.2 121.1 241.5 119.7 240.8 c 1
 117.6 240.8 l 1
 116.2 241.5 l 1
 109.9 247.1 109.2 247.8 107.1 249.9 c 1
 107.1 250.6 105 252.7 104.3 253.4 c 0
 103.6 254.1 101.5 256.9 101.5 257.6 c 1
 100.8 258.3 98.7002 261.8 98.7002 263.2 c 1
 98 266 97.2998 270.2 97.2998 271.6 c 2
 97.2998 272.3 l 1
 97.2998 273 l 1
 98 275.1 101.5 287 104.3 289.8 c 0
 107.8 294 110.6 296.1 112 296.8 c 1
 120.4 304.5 129.5 314.3 137.9 323.4 c 0
 145.6 331.8 182 370.3 182 401.1 c 0
 182 405.3 181.3 410.2 179.2 415.1 c 1
 177.1 416.5 171.5 420 152.6 425.6 c 0
 121.8 435.4 83.2998 442.4 55.2998 458.5 c 1
 55.2998 458.5 l 1
 55.2998 459.2 l 1
 30.0996 483.7 19.5996 518 19.5996 556.5 c 0
 19.5996 592.2 34.2998 628.6 41.2998 645.4 c 0
 45.5 656.6 52.5 672 55.2998 681.8 c 1
 56.7002 683.2 l 1
 62.2998 680.4 l 1
EndSplineSet
EndChar

StartChar: uniFB1D
Encoding: 265 64285 74
Width: 270
VWidth: 699
Flags: HMW
VStem: -1.4 280<501.9 575.75>
LayerCount: 2
Fore
SplineSet
37.7998 700.7 m 1
 121.8 711.9 l 1
 118.3 684.6 l 2
 117.6 678.3 116.9 677.6 116.2 676.2 c 1
 118.3 666.4 119.7 659.4 122.5 655.9 c 0
 139.3 630.7 182 624.4 217 604.8 c 0
 245 589.4 270.2 563.5 277.2 527.8 c 0
 278.6 520.1 278.6 513.1 278.6 506.1 c 0
 278.6 497.7 277.9 490 277.2 483 c 0
 272.3 406 242.9 333.2 195.3 273.7 c 0
 185.5 261.1 174.3 248.5 162.4 236.6 c 0
 157.5 231.7 151.2 225.4 141.4 222.6 c 0
 137.2 221.2 133 220.5 129.5 220.5 c 0
 124.6 220.5 120.4 221.2 116.2 223.3 c 1
 115.5 223.3 l 1
 115.5 223.3 l 1
 106.4 228.9 107.1 228.2 105.7 228.9 c 1
 105.7 229.6 l 1
 105 229.6 104.3 230.3 102.9 231.7 c 0
 98.7002 235.9 95.9004 240.1 93.7998 242.2 c 0
 88.2002 247.1 87.5 248.5 86.0996 249.9 c 0
 85.4004 250.6 83.2998 252.7 83.2998 253.4 c 1
 82.5996 254.1 80.5 256.9 80.5 257.6 c 1
 79.7998 258.3 77.7002 261.8 77.7002 263.2 c 1
 77 266 76.2998 270.2 76.2998 271.6 c 2
 76.2998 272.3 l 1
 76.2998 273 l 1
 77 275.1 80.5 287 82.5996 289.8 c 1
 86.0996 293.3 88.9004 296.1 90.2998 296.8 c 1
 98 304.5 105.7 313.6 113.4 323.4 c 0
 120.4 331.8 152.6 370.3 152.6 401.1 c 0
 152.6 406.7 151.9 410.9 150.5 415.1 c 1
 149.1 415.8 144.9 418.6 126.7 426.3 c 0
 98.7002 438.2 61.5996 449.4 34.2998 472.5 c 0
 9.09961 493.5 -1.40039 522.9 -1.40039 556.5 c 0
 -1.40039 595 13.2998 634.9 20.2998 653.1 c 0
 23.7998 663.6 31.5 678.3 34.2998 687.4 c 2
 37.7998 700.7 l 1
126.7 170.1 m 2
 126.7 169.4 l 2
 126.7 155.4 123.9 146.3 115.5 135.1 c 0
 112 130.2 107.1 126 101.5 121.8 c 0
 95.2002 117.6 86.7998 114.1 76.2998 112 c 0
 73.5 111.3 70.7002 111.3 67.2002 111.3 c 2
 67.2002 111.3 66.5 111.3 65.7998 111.3 c 0
 56.7002 112 39.2002 112 23.0996 131.6 c 0
 14 142.8 9.09961 156.8 9.09961 170.8 c 0
 9.09961 172.9 l 0
 9.09961 180.6 9.09961 180.6 10.5 186.2 c 0
 13.2998 201.6 24.5 224 55.2998 228.9 c 0
 59.5 229.6 63 230.3 66.5 230.3 c 0
 102.2 230.3 126.7 200.9 126.7 170.1 c 2
EndSplineSet
EndChar
